{
.appVersion = "3516";
.formatVersion = 3;
axes = (
{
name = Weight;
tag = wght;
}
);
classes = (
{
automatic = 1;
code = "A Aacute Abreve Acircumflex Adieresis Agrave Amacron Aogonek Aring Atilde AE B C Cacute Ccaron Ccedilla Cdotaccent D Dcaron Dcroat Eth E Eacute Ecaron Ecircumflex Edieresis Edotaccent Egrave Emacron Eogonek F G Gbreve Gcommaaccent Gdotaccent H Hbar I Iacute Icircumflex Idieresis Idotaccent Igrave Imacron Iogonek J K Kcommaaccent L Lacute Lcaron Lcommaaccent Lslash M N Nacute Ncaron Ncommaaccent Ntilde O Oacute Ocircumflex Odieresis Ograve Ohungarumlaut Oslash Otilde OE P Thorn Q R Racute Rcaron S Sacute Scaron Scedilla Scommaaccent Germandbls T Tcaron Tcommaaccent U Uacute Ucircumflex Udieresis Ugrave Uhungarumlaut Umacron Uogonek Uring V W Wacute Wcircumflex Wdieresis Wgrave X Y Yacute Ycircumflex Ydieresis Ygrave Z Zacute Zcaron Zdotaccent";
name = Uppercase;
}
);
customParameters = (
{
name = fsType;
value = (
);
},
{
name = "Use Typo Metrics";
value = 1;
},
{
name = "Export DSIG Table";
value = 0;
},
{
name = panoseProportion;
value = "0";
},
{
name = isFixedPitch;
value = 0;
},
{
name = panose;
value = (
2,
11,
6,
0,
3,
8,
1,
1,
1,
1
);
}
);
date = "2025-12-19 06:16:32 +0000";
familyName = "Alien Block";
featurePrefixes = (
{
automatic = 1;
code = "languagesystem DFLT dflt;

languagesystem latn dflt;
languagesystem latn ROM;
languagesystem latn MOL;
";
name = Languagesystems;
}
);
features = (
{
automatic = 1;
code = "feature locl;
feature ordn;
";
tag = aalt;
},
{
automatic = 1;
code = "lookup ccmp_DFLT_1 {
	@CombiningTopAccents = [acutecomb brevecomb caroncomb circumflexcomb dieresiscomb dotaccentcomb gravecomb hungarumlautcomb macroncomb ringcomb tildecomb];
	lookupflag UseMarkFilteringSet @CombiningTopAccents;
	sub i' @CombiningTopAccents by idotless;
	sub j' @CombiningTopAccents by jdotless;
} ccmp_DFLT_1;
";
tag = ccmp;
},
{
automatic = 1;
code = "script latn;
language ROM;
lookup locl_latn_0 {
	sub Scedilla by Scommaaccent;

glyphs = (
{
color = 11;
glyphname = A;
lastChange = "2026-04-30 13:12:08 +0000";
layers = (
{
anchors = (
{
name = ogonek;
pos = (479.734,0);
},
{
name = top;
pos = (375,720);
}
);
background = {
anchors = (
{
name = ogonek;
pos = (480,0);
},
{
name = top;
pos = (375,720);
}
);
shapes = (
{
closed = 1;
nodes = (
(735,370,ls),
(735,569,o),
(574,730,o),
(375,730,cs),
(176,730,o),
(15,569,o),
(15,370,cs),
(15,0,l),
(735,0,l)
);
}
);
};
layerId = "76DA76B7-AE51-4169-AB0E-317D7E08960F";
shapes = (
{
closed = 1;
nodes = (
(735,370,ls),
(735,569,o),
(574,730,o),
(375,730,cs),
(176,730,o),
(15,569,o),
(15,370,cs),
(15,0,l),
(735,0,l)
);
}
);
width = 750;
}
);
unicode = 65;
},
{
glyphname = Aacute;
lastChange = "2026-04-30 13:10:11 +0000";
layers = (
{
background = {
anchors = (
{
name = ogonek;
pos = (480,0);
},
{
name = top;
pos = (375,900);
}
);
shapes = (
{
closed = 1;
nodes = (
(735,370,ls),
(735,569,o),
(574,730,o),
(375,730,cs),
(176,730,o),
(15,569,o),
(15,370,cs),
(15,0,l),
(735,0,l)
);
},
{
closed = 1;
nodes = (
(519,720,o),
(600,801,o),
(600,900,c),
(240,900,l),
(240,850,o),
(200,810,o),
(150,810,c),
(150,720,l),
(420,720,ls)
);
}
);
};
layerId = "76DA76B7-AE51-4169-AB0E-317D7E08960F";
shapes = (
{
ref = A;
},
{
pos = (375,180);
ref = acutecomb;
}
);
width = 750;
}
);
unicode = 193;
},
{
glyphname = Abreve;
lastChange = "2026-04-30 13:10:11 +0000";
layers = (
{
background = {
anchors = (
{
name = ogonek;
pos = (480,0);
},
{
name = top;
pos = (375,900);
}
);
shapes = (
{
closed = 1;
nodes = (
(735,370,ls),
(735,569,o),
(574,730,o),
(375,730,cs),
(176,730,o),
(15,569,o),
(15,370,cs),
(15,0,l),
(735,0,l)
);
},
{
closed = 1;
nodes = (
(420,720,ls),
(519,720,o),
(600,801,o),
(600,900,c),
(415,900,l),
(415,878,o),
(397,860,o),
(375,860,cs),
(353,860,o),
(335,878,o),
(335,900,c),
(150,900,l),
(150,801,o),
(231,720,o),
(330,720,cs)
);
}
);
};
layerId = "76DA76B7-AE51-4169-AB0E-317D7E08960F";
shapes = (
{
ref = A;
},
{
pos = (375,180);
ref = brevecomb;
}
);
width = 750;
}
);
unicode = 258;
},
{
glyphname = Acircumflex;
lastChange = "2026-04-30 13:10:11 +0000";
layers = (
{
background = {
anchors = (
{
name = ogonek;
pos = (480,0);
},
{
name = top;
pos = (375,900);
}
);
shapes = (
{
closed = 1;
nodes = (
(735,370,ls),
(735,569,o),
(574,730,o),
(375,730,cs),
(176,730,o),
(15,569,o),
(15,370,cs),
(15,0,l),
(735,0,l)
);
},
{
closed = 1;
nodes = (
(335,720,o),
(375,760,o),
(375,810,c),
(375,760,o),
(415,720,o),
(465,720,cs),
(645,720,l),
(645,810,l),
(595,810,o),
(555,850,o),
(555,900,c),
(195,900,l),
(195,850,o),
(155,810,o),
(105,810,c),
(105,720,l),
(285,720,ls)
);
}
);
};
layerId = "76DA76B7-AE51-4169-AB0E-317D7E08960F";
shapes = (
{
ref = A;
},
{
pos = (375,180);
ref = circumflexcomb;
}
);
width = 750;
}
);
unicode = 194;
},
{
glyphname = Adieresis;
lastChange = "2026-04-30 13:10:11 +0000";
layers = (
{
background = {
anchors = (
{
name = ogonek;
pos = (480,0);
},
{
name = top;
pos = (375,900);
}
);
shapes = (
{
closed = 1;
nodes = (
(735,370,ls),
(735,569,o),
(574,730,o),
(375,730,cs),
(176,730,o),
(15,569,o),
(15,370,cs),
(15,0,l),
(735,0,l)
);
},
{
closed = 1;
nodes = (
(360,900,l),
(130,900,l),
(130,780,ls),
(130,747,o),
(157,720,o),
(190,720,cs),
(360,720,l)
);
},
{
closed = 1;
nodes = (
(620,900,l),
(390,900,l),
(390,780,ls),
(390,747,o),
(417,720,o),
(450,720,cs),
(620,720,l)
);
}
);
};
layerId = "76DA76B7-AE51-4169-AB0E-317D7E08960F";
shapes = (
{
ref = A;
},
{
pos = (375,180);
ref = dieresiscomb;
}
);
width = 750;
}
);
unicode = 196;
},
{
glyphname = Agrave;
lastChange = "2026-04-30 13:10:11 +0000";
layers = (
{
background = {
anchors = (
{
name = ogonek;
pos = (480,0);
},
{
name = top;
pos = (375,900);
}
);
shapes = (
{
closed = 1;
nodes = (
(735,370,ls),
(735,569,o),
(574,730,o),
(375,730,cs),
(176,730,o),
(15,569,o),
(15,370,cs),
(15,0,l),
(735,0,l)
);
},
{
closed = 1;
nodes = (
(600,810,l),
(550,810,o),
(510,850,o),
(510,900,c),
(150,900,l),
(150,801,o),
(231,720,o),
(330,720,cs),
(600,720,l)
);
}
);
};
layerId = "76DA76B7-AE51-4169-AB0E-317D7E08960F";
shapes = (
{
ref = A;
},
{
pos = (375,180);
ref = gravecomb;
}
);
width = 750;
}
);
unicode = 192;
},
{
glyphname = Amacron;
lastChange = "2026-04-30 13:10:11 +0000";
layers = (
{
background = {
anchors = (
{
name = ogonek;
pos = (480,0);
},
{
name = top;
pos = (375,900);
}
);
shapes = (
{
closed = 1;
nodes = (
(735,370,ls),
(735,569,o),
(574,730,o),
(375,730,cs),
(176,730,o),
(15,569,o),
(15,370,cs),
(15,0,l),
(735,0,l)
);
},
{
closed = 1;
nodes = (
(645,900,l),
(105,900,l),
(105,780,ls),
(105,747,o),
(132,720,o),
(165,720,cs),
(645,720,l)
);
}
);
};
layerId = "76DA76B7-AE51-4169-AB0E-317D7E08960F";
shapes = (
{
ref = A;
},
{
pos = (375,180);
ref = macroncomb;
}
);
width = 750;
}
);
unicode = 256;
},
{
glyphname = Aogonek;
lastChange = "2026-04-30 13:13:29 +0000";
layers = (
{
anchors = (
{
name = top;
pos = (375,720);
}
);
background = {
anchors = (
{
name = ogonek;
pos = (480,0);
},
{
name = top;
pos = (375,720);
}
);
shapes = (
{
closed = 1;
nodes = (
(735,370,ls),
(735,569,o),
(574,730,o),
(375,730,cs),
(176,730,o),
(15,569,o),
(15,370,cs),
(15,0,l),
(735,0,l)
);
},
{
closed = 1;
nodes = (
(735,-30,l),
(555,-30,l),
(555,120,l),
(405,120,l),
(405,-60,ls),
(405,-126,o),
(459,-180,o),
(525,-180,cs),
(735,-180,l)
);
}
);
};
layerId = "76DA76B7-AE51-4169-AB0E-317D7E08960F";
shapes = (
{
ref = A;
},
{
pos = (569.734,-1);
ref = ogonekcomb;
}
);
width = 750;
}
);
unicode = 260;
},
{
glyphname = Aring;
lastChange = "2026-04-30 13:10:11 +0000";
layers = (
{
background = {
anchors = (
{
name = ogonek;
pos = (480,0);
},
{
name = top;
pos = (375,900);
}
);
shapes = (
{
closed = 1;
nodes = (
(735,370,ls),
(735,569,o),
(574,730,o),
(375,730,cs),
(176,730,o),
(15,569,o),
(15,370,cs),
(15,0,l),
(735,0,l)
);
},
{
closed = 1;
nodes = (
(485,720,o),
(525,760,o),
(525,810,cs),
(525,860,o),
(485,900,o),
(435,900,cs),
(315,900,ls),
(265,900,o),
(225,860,o),
(225,810,cs),
(225,760,o),
(265,720,o),
(315,720,cs),
(435,720,ls)
);
}
);
};
layerId = "76DA76B7-AE51-4169-AB0E-317D7E08960F";
shapes = (
{
ref = A;
},
{
pos = (375,180);
ref = ringcomb;
}
);
width = 750;
}
);
unicode = 197;
},
{
glyphname = Atilde;
lastChange = "2026-04-30 13:10:11 +0000";
layers = (
{
background = {
anchors = (
{
name = ogonek;
pos = (480,0);
},
{
name = top;
pos = (375,900);
}
);
shapes = (
{
closed = 1;
nodes = (
(735,370,ls),
(735,569,o),
(574,730,o),
(375,730,cs),
(176,730,o),
(15,569,o),
(15,370,cs),
(15,0,l),
(735,0,l)
);
},
{
closed = 1;
nodes = (
(552,720,o),
(600,768,o),
(600,828,cs),
(600,900,l),
(510,900,l),
(493,863,o),
(455,837,o),
(411,837,cs),
(384,837,o),
(356,847,o),
(335,868,cs),
(315,888,o),
(288,900,o),
(258,900,cs),
(198,900,o),
(150,852,o),
(150,792,cs),
(150,720,l),
(492,720,ls)
);
}
);
};
layerId = "76DA76B7-AE51-4169-AB0E-317D7E08960F";
shapes = (
{
ref = A;
},
{
pos = (375,180);
ref = tildecomb;
}
);
width = 750;
}
);
unicode = 195;
},
{
glyphname = AE;
lastChange = "2026-04-30 13:10:11 +0000";
layers = (
{
anchors = (
{
name = bottom;
pos = (555,0);
},
{
name = top;
pos = (555,720);
}
);
background = {
anchors = (
{
name = top;
pos = (555,720);
}
);
shapes = (
{
closed = 1;
nodes = (
(1095,240,l),
(1035,240,l),
(1035,480,l),
(1095,480,l),
(1095,720,l),
(565,720,l),
(565,596,l),
(511,677,o),
(419,730,o),
(315,730,cs),
(149,730,o),
(15,596,o),
(15,430,cs),
(15,0,l),
(1095,0,l)
);
}
);
};
layerId = "76DA76B7-AE51-4169-AB0E-317D7E08960F";
shapes = (
{
closed = 1;
nodes = (
(1095,240,l),
(1035,240,l),
(1035,480,l),
(1095,480,l),
(1095,720,l),
(565,720,l),
(565,596,l),
(511,677,o),
(419,730,o),
(315,730,cs),
(149,730,o),
(15,596,o),
(15,430,cs),
(15,0,l),
(1095,0,l)
);
}
);
width = 1110;
}
);
unicode = 198;
},
{
color = 11;
glyphname = B;
lastChange = "2026-04-30 13:10:06 +0000";
layers = (
{
background = {
shapes = (
{
closed = 1;
nodes = (
(651,0,o),
(735,84,o),
(735,187,cs),
(735,265,o),
(687,332,o),
(619,360,c),
(687,388,o),
(735,455,o),
(735,533,cs),
(735,636,o),
(651,720,o),
(548,720,cs),
(15,720,l),
(15,0,l),
(548,0,ls)
);
}
);
};
layerId = "76DA76B7-AE51-4169-AB0E-317D7E08960F";
shapes = (
{
closed = 1;
nodes = (
(651,0,o),
(735,84,o),
(735,187,cs),
(735,265,o),
(687,332,o),
(619,360,c),
(687,388,o),
(735,455,o),
(735,533,cs),
(735,636,o),
(651,720,o),
(548,720,cs),
(15,720,l),
(15,0,l),
(548,0,ls)
);
}
);
width = 750;
}
);
unicode = 66;
},
{
color = 11;
glyphname = C;
lastChange = "2026-04-30 13:10:06 +0000";
layers = (
{
anchors = (
{
name = bottom;
pos = (415,0);
},
{
name = top;
pos = (415,720);
}
);
background = {
anchors = (
{
name = bottom;
pos = (415,0);
},
{
name = top;
pos = (415,720);
}
);
shapes = (
{
closed = 1;
nodes = (
(735,720,l),
(375,720,ls),
(176,720,o),
(15,559,o),
(15,360,cs),
(15,161,o),
(176,0,o),
(375,0,cs),
(735,0,l)
);
}
);
};
layerId = "76DA76B7-AE51-4169-AB0E-317D7E08960F";
shapes = (
{
closed = 1;
nodes = (
(735,720,l),
(375,720,ls),
(176,720,o),
(15,559,o),
(15,360,cs),
(15,161,o),
(176,0,o),
(375,0,cs),
(735,0,l)
);
}
);
width = 750;
}
);
unicode = 67;
},
{
glyphname = Cacute;
lastChange = "2026-04-30 13:10:11 +0000";
layers = (
{
background = {
anchors = (
{
name = bottom;
pos = (415,0);
},
{
name = top;
pos = (415,900);
}
);
shapes = (
{
closed = 1;
nodes = (
(735,720,l),
(375,720,ls),
(176,720,o),
(15,559,o),
(15,360,cs),
(15,161,o),
(176,0,o),
(375,0,cs),
(735,0,l)
);
},
{
closed = 1;
nodes = (
(559,720,o),
(640,801,o),
(640,900,c),
(280,900,l),
(280,850,o),
(240,810,o),
(190,810,c),
(190,720,l),
(460,720,ls)
);
}
);
};
layerId = "76DA76B7-AE51-4169-AB0E-317D7E08960F";
shapes = (
{
ref = C;
},
{
pos = (415,180);
ref = acutecomb;
}
);
width = 750;
}
);
unicode = 262;
},
{
glyphname = Ccaron;
lastChange = "2026-04-30 13:09:31 +0000";
layers = (
{
background = {
anchors = (
{
name = bottom;
pos = (415,0);
},
{
name = top;
pos = (415,900);
}
);
shapes = (
{
closed = 1;
nodes = (
(735,720,l),
(375,720,ls),
(176,720,o),
(15,559,o),
(15,360,cs),
(15,161,o),
(176,0,o),
(375,0,cs),
(735,0,l)
);
},
{
closed = 1;
nodes = (
(595,770,o),
(635,810,o),
(685,810,c),
(685,900,l),
(505,900,ls),
(455,900,o),
(415,860,o),
(415,810,c),
(415,860,o),
(375,900,o),
(325,900,cs),
(145,900,l),
(145,810,l),
(195,810,o),
(235,770,o),
(235,720,c),
(595,720,l)
);
}
);
};
layerId = "76DA76B7-AE51-4169-AB0E-317D7E08960F";
shapes = (
{
ref = C;
},
{
pos = (415,180);
ref = caroncomb;
}
);
width = 750;
}
);
unicode = 268;
},
{
glyphname = Ccedilla;
lastChange = "2026-04-30 13:10:11 +0000";
layers = (
{
background = {
anchors = (
{
name = bottom;
pos = (415,-180);
},
{
name = top;
pos = (415,720);
}
);
shapes = (
{
closed = 1;
nodes = (
(735,720,l),
(375,720,ls),
(176,720,o),
(15,559,o),
(15,360,cs),
(15,161,o),
(176,0,o),
(375,0,cs),
(735,0,l)
);
},
{
closed = 1;
nodes = (
(540,-180,o),
(580,-140,o),
(580,-90,cs),
(580,-40,o),
(540,0,o),
(490,0,c),
(490,120,l),
(340,120,l),
(340,-30,l),
(250,-30,l),
(250,-180,l),
(490,-180,ls)
);
}
);
};
layerId = "76DA76B7-AE51-4169-AB0E-317D7E08960F";
shapes = (
{
ref = C;
},
{
pos = (415,0);
ref = cedillacomb;
}
);
width = 750;
}
);
unicode = 199;
},
{
glyphname = Cdotaccent;
lastChange = "2026-04-30 13:10:11 +0000";
layers = (
{
background = {
anchors = (
{
name = bottom;
pos = (415,0);
},
{
name = top;
pos = (415,900);
}
);
shapes = (
{
closed = 1;
nodes = (
(735,720,l),
(375,720,ls),
(176,720,o),
(15,559,o),
(15,360,cs),
(15,161,o),
(176,0,o),
(375,0,cs),
(735,0,l)
);
},
{
closed = 1;
nodes = (
(535,900,l),
(295,900,l),
(295,780,ls),
(295,747,o),
(322,720,o),
(355,720,cs),
(535,720,l)
);
}
);
};
layerId = "76DA76B7-AE51-4169-AB0E-317D7E08960F";
shapes = (
{
ref = C;
},
{
pos = (415,180);
ref = dotaccentcomb;
}
);
width = 750;
}
);
unicode = 266;
},
{
color = 11;
glyphname = D;
lastChange = "2026-04-30 13:10:06 +0000";
layers = (
{
anchors = (
{
name = center;
pos = (315,360);
},
{
name = top;
pos = (335,720);
}
);
background = {
anchors = (
{
name = center;
pos = (315,360);
},
{
name = top;
pos = (335,720);
}
);
shapes = (
{
closed = 1;
nodes = (
(574,0,o),
(735,161,o),
(735,360,cs),
(735,559,o),
(574,720,o),
(375,720,cs),
(15,720,l),
(15,0,l),
(375,0,ls)
);
}
);
};
layerId = "76DA76B7-AE51-4169-AB0E-317D7E08960F";
shapes = (
{
closed = 1;
nodes = (
(574,0,o),
(735,161,o),
(735,360,cs),
(735,559,o),
(574,720,o),
(375,720,cs),
(15,720,l),
(15,0,l),
(375,0,ls)
);
}
);
width = 750;
}
);
unicode = 68;
},
{
glyphname = Dcaron;
lastChange = "2026-04-30 13:10:11 +0000";
layers = (
{
background = {
anchors = (
{
name = center;
pos = (375,360);
},
{
name = top;
pos = (335,900);
}
);
shapes = (
{
closed = 1;
nodes = (
(574,0,o),
(735,161,o),
(735,360,cs),
(735,559,o),
(574,720,o),
(375,720,cs),
(15,720,l),
(15,0,l),
(375,0,ls)
);
},
{
closed = 1;
nodes = (
(515,770,o),
(555,810,o),
(605,810,c),
(605,900,l),
(425,900,ls),
(375,900,o),
(335,860,o),
(335,810,c),
(335,860,o),
(295,900,o),
(245,900,cs),
(65,900,l),
(65,810,l),
(115,810,o),
(155,770,o),
(155,720,c),
(515,720,l)
);
}
);
};
layerId = "76DA76B7-AE51-4169-AB0E-317D7E08960F";
shapes = (
{
ref = D;
},
{
pos = (335,180);
ref = caroncomb;
}
);
width = 750;
}
);
unicode = 270;
},
{
glyphname = Eth;
lastChange = "2026-04-30 13:17:57 +0000";
layers = (
{
anchors = (
{
name = bottom;
pos = (405,0);
},
{
name = top;
pos = (405,720);
}
);
background = {
anchors = (
{
name = center;
pos = (375,360);
},
{
name = top;
pos = (395,720);
}
);
shapes = (
{
closed = 1;
nodes = (
(634,0,o),
(795,161,o),
(795,360,cs),
(795,559,o),
(634,720,o),
(435,720,cs),
(75,720,l),
(75,0,l),
(435,0,ls)
);
},
{
closed = 1;
nodes = (
(735,450,l),
(15,450,l),
(15,270,l),
(735,270,l)
);
}
);
};
layerId = "76DA76B7-AE51-4169-AB0E-317D7E08960F";
shapes = (
{
alignment = -1;
pos = (60,0);
ref = D;
},
{
pos = (375,0);
ref = strokeshortcomb;
}
);
width = 810;
}
);
unicode = 208;
},
{
color = 11;
glyphname = E;
lastChange = "2026-04-30 13:12:20 +0000";
layers = (
{
anchors = (
{
name = bottom;
pos = (375,0);
},
{
name = ogonek;
pos = (479.104,0);
},
{
name = top;
pos = (375,720);
}
);
background = {
anchors = (
{
name = bottom;
pos = (375,0);
},
{
name = ogonek;
pos = (480,0);
},
{
name = top;
pos = (375,720);
}
);
shapes = (
{
closed = 1;
nodes = (
(735,240,l),
(675,240,l),
(675,480,l),
(735,480,l),
(735,720,l),
(15,720,l),
(15,0,l),
(735,0,l)
);
}
);
};
layerId = "76DA76B7-AE51-4169-AB0E-317D7E08960F";
shapes = (
{
closed = 1;
nodes = (
(735,240,l),
(675,240,l),
(675,480,l),
(735,480,l),
(735,720,l),
(15,720,l),
(15,0,l),
(735,0,l)
);
}
);
width = 750;
}
);
unicode = 69;
},
{
glyphname = Eacute;
lastChange = "2026-04-30 13:10:11 +0000";
layers = (
{
background = {
anchors = (
{
name = bottom;
pos = (375,0);
},
{
name = ogonek;
pos = (480,0);
},
{
name = top;
pos = (375,900);
}
);
shapes = (
{
closed = 1;
nodes = (
(735,240,l),
(675,240,l),
(675,480,l),
(735,480,l),
(735,720,l),
(15,720,l),
(15,0,l),
(735,0,l)
);
},
{
closed = 1;
nodes = (
(519,720,o),
(600,801,o),
(600,900,c),
(240,900,l),
(240,850,o),
(200,810,o),
(150,810,c),
(150,720,l),
(420,720,ls)
);
}
);
};
layerId = "76DA76B7-AE51-4169-AB0E-317D7E08960F";
shapes = (
{
ref = E;
},
{
pos = (375,180);
ref = acutecomb;
}
);
width = 750;
}
);
unicode = 201;
},
{
glyphname = Ecaron;
lastChange = "2026-04-30 13:10:11 +0000";
layers = (
{
background = {
anchors = (
{
name = bottom;
pos = (375,0);
},
{
name = ogonek;
pos = (480,0);
},
{
name = top;
pos = (375,900);
}
);
shapes = (
{
closed = 1;
nodes = (
(735,240,l),
(675,240,l),
(675,480,l),
(735,480,l),
(735,720,l),
(15,720,l),
(15,0,l),
(735,0,l)
);
},
{
closed = 1;
nodes = (
(555,770,o),
(595,810,o),
(645,810,c),
(645,900,l),
(465,900,ls),
(415,900,o),
(375,860,o),
(375,810,c),
(375,860,o),
(335,900,o),
(285,900,cs),
(105,900,l),
(105,810,l),
(155,810,o),
(195,770,o),
(195,720,c),
(555,720,l)
);
}
);
};
layerId = "76DA76B7-AE51-4169-AB0E-317D7E08960F";
shapes = (
{
ref = E;
},
{
pos = (375,180);
ref = caroncomb;
}
);
width = 750;
}
);
unicode = 282;
},
{
glyphname = Ecircumflex;
lastChange = "2026-04-30 13:10:11 +0000";
layers = (
{
background = {
anchors = (
{
name = bottom;
pos = (375,0);
},
{
name = ogonek;
pos = (480,0);
},
{
name = top;
pos = (375,900);
}
);
shapes = (
{
closed = 1;
nodes = (
(735,240,l),
(675,240,l),
(675,480,l),
(735,480,l),
(735,720,l),
(15,720,l),
(15,0,l),
(735,0,l)
);
},
{
closed = 1;
nodes = (
(335,720,o),
(375,760,o),
(375,810,c),
(375,760,o),
(415,720,o),
(465,720,cs),
(645,720,l),
(645,810,l),
(595,810,o),
(555,850,o),
(555,900,c),
(195,900,l),
(195,850,o),
(155,810,o),
(105,810,c),
(105,720,l),
(285,720,ls)
);
}
);
};
layerId = "76DA76B7-AE51-4169-AB0E-317D7E08960F";
shapes = (
{
ref = E;
},
{
pos = (375,180);
ref = circumflexcomb;
}
);
width = 750;
}
);
unicode = 202;
},
{
glyphname = Edieresis;
lastChange = "2026-04-30 13:10:11 +0000";
layers = (
{
background = {
anchors = (
{
name = bottom;
pos = (375,0);
},
{
name = ogonek;
pos = (480,0);
},
{
name = top;
pos = (375,900);
}
);
shapes = (
{
closed = 1;
nodes = (
(735,240,l),
(675,240,l),
(675,480,l),
(735,480,l),
(735,720,l),
(15,720,l),
(15,0,l),
(735,0,l)
);
},
{
closed = 1;
nodes = (
(360,900,l),
(130,900,l),
(130,780,ls),
(130,747,o),
(157,720,o),
(190,720,cs),
(360,720,l)
);
},
{
closed = 1;
nodes = (
(620,900,l),
(390,900,l),
(390,780,ls),
(390,747,o),
(417,720,o),
(450,720,cs),
(620,720,l)
);
}
);
};
layerId = "76DA76B7-AE51-4169-AB0E-317D7E08960F";
shapes = (
{
ref = E;
},
{
pos = (375,180);
ref = dieresiscomb;
}
);
width = 750;
}
);
unicode = 203;
},
{
glyphname = Edotaccent;
lastChange = "2026-04-30 13:10:11 +0000";
layers = (
{
background = {
anchors = (
{
name = bottom;
pos = (375,0);
},
{
name = ogonek;
pos = (480,0);
},
{
name = top;
pos = (375,900);
}
);
shapes = (
{
closed = 1;
nodes = (
(735,240,l),
(675,240,l),
(675,480,l),
(735,480,l),
(735,720,l),
(15,720,l),
(15,0,l),
(735,0,l)
);
},
{
closed = 1;
nodes = (
(495,900,l),
(255,900,l),
(255,780,ls),
(255,747,o),
(282,720,o),
(315,720,cs),
(495,720,l)
);
}
);
};
layerId = "76DA76B7-AE51-4169-AB0E-317D7E08960F";
shapes = (
{
ref = E;
},
{
pos = (375,180);
ref = dotaccentcomb;
}
);
width = 750;
}
);
unicode = 278;
},
{
glyphname = Egrave;
lastChange = "2026-04-30 13:10:11 +0000";
layers = (
{
background = {
anchors = (
{
name = bottom;
pos = (375,0);
},
{
name = ogonek;
pos = (480,0);
},
{
name = top;
pos = (375,900);
}
);
shapes = (
{
closed = 1;
nodes = (
(735,240,l),
(675,240,l),
(675,480,l),
(735,480,l),
(735,720,l),
(15,720,l),
(15,0,l),
(735,0,l)
);
},
{
closed = 1;
nodes = (
(600,810,l),
(550,810,o),
(510,850,o),
(510,900,c),
(150,900,l),
(150,801,o),
(231,720,o),
(330,720,cs),
(600,720,l)
);
}
);
};
layerId = "76DA76B7-AE51-4169-AB0E-317D7E08960F";
shapes = (
{
ref = E;
},
{
pos = (375,180);
ref = gravecomb;
}
);
width = 750;
}
);
unicode = 200;
},
{
glyphname = Emacron;
lastChange = "2026-04-30 13:10:11 +0000";
layers = (
{
background = {
anchors = (
{
name = bottom;
pos = (375,0);
},
{
name = ogonek;
pos = (480,0);
},
{
name = top;
pos = (375,900);
}
);
shapes = (
{
closed = 1;
nodes = (
(735,240,l),
(675,240,l),
(675,480,l),
(735,480,l),
(735,720,l),
(15,720,l),
(15,0,l),
(735,0,l)
);
},
{
closed = 1;
nodes = (
(645,900,l),
(105,900,l),
(105,780,ls),
(105,747,o),
(132,720,o),
(165,720,cs),
(645,720,l)
);
}
);
};
layerId = "76DA76B7-AE51-4169-AB0E-317D7E08960F";
shapes = (
{
ref = E;
},
{
pos = (375,180);
ref = macroncomb;
}
);
width = 750;
}
);
unicode = 274;
},
{
glyphname = Eogonek;
lastChange = "2026-04-30 13:13:29 +0000";
layers = (
{
anchors = (
{
name = top;
pos = (375,720);
}
);
background = {
anchors = (
{
name = bottom;
pos = (291,0);
},
{
name = ogonek;
pos = (480,0);
},
{
name = top;
pos = (296,700);
}
);
shapes = (
{
closed = 1;
nodes = (
(735,240,l),
(675,240,l),
(675,480,l),
(735,480,l),
(735,720,l),
(15,720,l),
(15,0,l),
(735,0,l)
);
},
{
closed = 1;
nodes = (
(735,-30,l),
(555,-30,l),
(555,120,l),
(405,120,l),
(405,-60,ls),
(405,-126,o),
(459,-180,o),
(525,-180,cs),
(735,-180,l)
);
}
);
};
layerId = "76DA76B7-AE51-4169-AB0E-317D7E08960F";
shapes = (
{
ref = E;
},
{
pos = (569.104,-1);
ref = ogonekcomb;
}
);
width = 750;
}
);
unicode = 280;
},
{
color = 11;
glyphname = F;
lastChange = "2026-04-30 13:10:06 +0000";
layers = (
{
background = {
shapes = (
{
closed = 1;
nodes = (
(615,240,l),
(675,240,l),
(675,480,l),
(735,480,l),
(735,720,l),
(15,720,l),
(15,0,l),
(615,0,l)
);
}
);
};
layerId = "76DA76B7-AE51-4169-AB0E-317D7E08960F";
shapes = (
{
closed = 1;
nodes = (
(615,240,l),
(675,240,l),
(675,480,l),
(735,480,l),
(735,720,l),
(15,720,l),
(15,0,l),
(615,0,l)
);
}
);
width = 750;
}
);
unicode = 70;
},
{
color = 11;
glyphname = G;
lastChange = "2026-04-30 13:10:06 +0000";
layers = (
{
anchors = (
{
name = bottom;
pos = (435,0);
},
{
name = top;
pos = (415,720);
}
);
background = {
anchors = (
{
name = bottom;
pos = (435,0);
},
{
name = top;
pos = (415,720);
}
);
shapes = (
{
closed = 1;
nodes = (
(735,360,l),
(675,360,l),
(675,720,l),
(365,720,ls),
(166,720,o),
(5,559,o),
(5,360,cs),
(5,161,o),
(166,0,o),
(365,0,cs),
(735,0,l)
);
}
);
};
layerId = "76DA76B7-AE51-4169-AB0E-317D7E08960F";
shapes = (
{
closed = 1;
nodes = (
(735,360,l),
(675,360,l),
(675,720,l),
(365,720,ls),
(166,720,o),
(5,559,o),
(5,360,cs),
(5,161,o),
(166,0,o),
(365,0,cs),
(735,0,l)
);
}
);
width = 750;
}
);
unicode = 71;
},
{
glyphname = Gbreve;
lastChange = "2026-04-30 13:10:11 +0000";
layers = (
{
background = {
anchors = (
{
name = bottom;
pos = (435,0);
},
{
name = top;
pos = (415,900);
}
);
shapes = (
{
closed = 1;
nodes = (
(735,360,l),
(675,360,l),
(675,720,l),
(365,720,ls),
(166,720,o),
(5,559,o),
(5,360,cs),
(5,161,o),
(166,0,o),
(365,0,cs),
(735,0,l)
);
},
{
closed = 1;
nodes = (
(460,720,ls),
(559,720,o),
(640,801,o),
(640,900,c),
(455,900,l),
(455,878,o),
(437,860,o),
(415,860,cs),
(393,860,o),
(375,878,o),
(375,900,c),
(190,900,l),
(190,801,o),
(271,720,o),
(370,720,cs)
);
}
);
};
layerId = "76DA76B7-AE51-4169-AB0E-317D7E08960F";
shapes = (
{
ref = G;
},
{
pos = (415,180);
ref = brevecomb;
}
);
width = 750;
}
);
unicode = 286;
},
{
glyphname = Gcommaaccent;
lastChange = "2026-04-30 13:16:51 +0000";
layers = (
{
background = {
anchors = (
{
name = bottom;
pos = (435,-180);
},
{
name = top;
pos = (415,720);
}
);
shapes = (
{
closed = 1;
nodes = (
(735,360,l),
(675,360,l),
(675,720,l),
(365,720,ls),
(166,720,o),
(5,559,o),
(5,360,cs),
(5,161,o),
(166,0,o),
(365,0,cs),
(735,0,l)
);
},
{
closed = 1;
nodes = (
(515,-270,o),
(555,-230,o),
(555,-180,cs),
(555,-90,ls),
(555,-40,o),
(515,0,o),
(465,0,cs),
(315,0,l),
(315,-180,l),
(465,-180,l),
(465,-270,l)
);
}
);
};
layerId = "76DA76B7-AE51-4169-AB0E-317D7E08960F";
shapes = (
{
ref = G;
},
{
pos = (435,0);
ref = commaaccentcomb;
}
);
width = 750;
}
);
unicode = 290;
},
{
glyphname = Gdotaccent;
lastChange = "2026-04-30 13:10:11 +0000";
layers = (
{
background = {
anchors = (
{
name = bottom;
pos = (435,0);
},
{
name = top;
pos = (415,900);
}
);
shapes = (
{
closed = 1;
nodes = (
(735,360,l),
(675,360,l),
(675,720,l),
(365,720,ls),
(166,720,o),
(5,559,o),
(5,360,cs),
(5,161,o),
(166,0,o),
(365,0,cs),
(735,0,l)
);
},
{
closed = 1;
nodes = (
(535,900,l),
(295,900,l),
(295,780,ls),
(295,747,o),
(322,720,o),
(355,720,cs),
(535,720,l)
);
}
);
};
layerId = "76DA76B7-AE51-4169-AB0E-317D7E08960F";
shapes = (
{
ref = G;
},
{
pos = (415,180);
ref = dotaccentcomb;
}
);
width = 750;
}
);
unicode = 288;
},
{
color = 11;
glyphname = H;
lastChange = "2026-04-30 13:10:06 +0000";
layers = (
{
anchors = (
{
name = bottom;
pos = (375,0);
},
{
name = center;
pos = (375,570);
},
{
name = top;
pos = (375,720);
}
);
background = {
anchors = (
{
name = bottom;
pos = (375,0);
},
{
name = center;
pos = (375,570);
},
{
name = top;
pos = (375,720);
}
);
shapes = (
{
closed = 1;
nodes = (
(317,0,o),
(375,58,o),
(375,130,c),
(375,58,o),
(433,0,o),
(505,0,cs),
(735,0,l),
(735,720,l),
(505,720,ls),
(433,720,o),
(375,662,o),
(375,590,c),
(375,662,o),
(317,720,o),
(245,720,cs),
(15,720,l),
(15,0,l),
(245,0,ls)
);
}
);
};
layerId = "76DA76B7-AE51-4169-AB0E-317D7E08960F";
shapes = (
{
closed = 1;
nodes = (
(317,0,o),
(375,58,o),
(375,130,c),
(375,58,o),
(433,0,o),
(505,0,cs),
(735,0,l),
(735,720,l),
(505,720,ls),
(433,720,o),
(375,662,o),
(375,590,c),
(375,662,o),
(317,720,o),
(245,720,cs),
(15,720,l),
(15,0,l),
(245,0,ls)
);
}
);
width = 750;
}
);
unicode = 72;
},
{
color = 11;
glyphname = I;
lastChange = "2026-04-30 13:10:06 +0000";
layers = (
{
anchors = (
{
name = ogonek;
pos = (375,0);
},
{
name = top;
pos = (375,720);
}
);
background = {
anchors = (
{
name = ogonek;
pos = (375,0);
},
{
name = top;
pos = (375,720);
}
);
shapes = (
{
closed = 1;
nodes = (
(735,240,l),
(675,240,l),
(675,480,l),
(735,480,l),
(735,720,l),
(15,720,l),
(15,480,l),
(75,480,l),
(75,240,l),
(15,240,l),
(15,0,l),
(735,0,l)
);
}
);
};
layerId = "76DA76B7-AE51-4169-AB0E-317D7E08960F";
shapes = (
{
closed = 1;
nodes = (
(735,240,l),
(675,240,l),
(675,480,l),
(735,480,l),
(735,720,l),
(15,720,l),
(15,480,l),
(75,480,l),
(75,240,l),
(15,240,l),
(15,0,l),
(735,0,l)
);
}
);
width = 750;
}
);
unicode = 73;
},
{
glyphname = Iacute;
lastChange = "2026-04-30 13:10:11 +0000";
layers = (
{
background = {
anchors = (
{
name = ogonek;
pos = (375,0);
},
{
name = top;
pos = (375,900);
}
);
shapes = (
{
closed = 1;
nodes = (
(735,240,l),
(675,240,l),
(675,480,l),
(735,480,l),
(735,720,l),
(15,720,l),
(15,480,l),
(75,480,l),
(75,240,l),
(15,240,l),
(15,0,l),
(735,0,l)
);
},
{
closed = 1;
nodes = (
(519,720,o),
(600,801,o),
(600,900,c),
(240,900,l),
(240,850,o),
(200,810,o),
(150,810,c),
(150,720,l),
(420,720,ls)
);
}
);
};
layerId = "76DA76B7-AE51-4169-AB0E-317D7E08960F";
shapes = (
{
ref = I;
},
{
pos = (375,180);
ref = acutecomb;
}
);
width = 750;
}
);
unicode = 205;
},
{
glyphname = Icircumflex;
lastChange = "2026-04-30 13:10:11 +0000";
layers = (
{
background = {
anchors = (
{
name = ogonek;
pos = (375,0);
},
{
name = top;
pos = (375,900);
}
);
shapes = (
{
closed = 1;
nodes = (
(735,240,l),
(675,240,l),
(675,480,l),
(735,480,l),
(735,720,l),
(15,720,l),
(15,480,l),
(75,480,l),
(75,240,l),
(15,240,l),
(15,0,l),
(735,0,l)
);
},
{
closed = 1;
nodes = (
(335,720,o),
(375,760,o),
(375,810,c),
(375,760,o),
(415,720,o),
(465,720,cs),
(645,720,l),
(645,810,l),
(595,810,o),
(555,850,o),
(555,900,c),
(195,900,l),
(195,850,o),
(155,810,o),
(105,810,c),
(105,720,l),
(285,720,ls)
);
}
);
};
layerId = "76DA76B7-AE51-4169-AB0E-317D7E08960F";
shapes = (
{
ref = I;
},
{
pos = (375,180);
ref = circumflexcomb;
}
);
width = 750;
}
);
unicode = 206;
},
{
glyphname = Idieresis;
lastChange = "2026-04-30 13:10:11 +0000";
layers = (
{
background = {
anchors = (
{
name = ogonek;
pos = (375,0);
},
{
name = top;
pos = (375,900);
}
);
shapes = (
{
closed = 1;
nodes = (
(735,240,l),
(675,240,l),
(675,480,l),
(735,480,l),
(735,720,l),
(15,720,l),
(15,480,l),
(75,480,l),
(75,240,l),
(15,240,l),
(15,0,l),
(735,0,l)
);
},
{
closed = 1;
nodes = (
(360,900,l),
(130,900,l),
(130,780,ls),
(130,747,o),
(157,720,o),
(190,720,cs),
(360,720,l)
);
},
{
closed = 1;
nodes = (
(620,900,l),
(390,900,l),
(390,780,ls),
(390,747,o),
(417,720,o),
(450,720,cs),
(620,720,l)
);
}
);
};
layerId = "76DA76B7-AE51-4169-AB0E-317D7E08960F";
shapes = (
{
ref = I;
},
{
pos = (375,180);
ref = dieresiscomb;
}
);
width = 750;
}
);
unicode = 207;
},
{
glyphname = Idotaccent;
lastChange = "2026-04-30 13:10:11 +0000";
layers = (
{
background = {
anchors = (
{
name = ogonek;
pos = (375,0);
},
{
name = top;
pos = (375,900);
}
);
shapes = (
{
closed = 1;
nodes = (
(735,240,l),
(675,240,l),
(675,480,l),
(735,480,l),
(735,720,l),
(15,720,l),
(15,480,l),
(75,480,l),
(75,240,l),
(15,240,l),
(15,0,l),
(735,0,l)
);
},
{
closed = 1;
nodes = (
(495,900,l),
(255,900,l),
(255,780,ls),
(255,747,o),
(282,720,o),
(315,720,cs),
(495,720,l)
);
}
);
};
layerId = "76DA76B7-AE51-4169-AB0E-317D7E08960F";
shapes = (
{
ref = I;
},
{
pos = (375,180);
ref = dotaccentcomb;
}
);
width = 750;
}
);
unicode = 304;
},
{
glyphname = Igrave;
lastChange = "2026-04-30 13:10:11 +0000";
layers = (
{
background = {
anchors = (
{
name = ogonek;
pos = (375,0);
},
{
name = top;
pos = (375,900);
}
);
shapes = (
{
closed = 1;
nodes = (
(735,240,l),
(675,240,l),
(675,480,l),
(735,480,l),
(735,720,l),
(15,720,l),
(15,480,l),
(75,480,l),
(75,240,l),
(15,240,l),
(15,0,l),
(735,0,l)
);
},
{
closed = 1;
nodes = (
(600,810,l),
(550,810,o),
(510,850,o),
(510,900,c),
(150,900,l),
(150,801,o),
(231,720,o),
(330,720,cs),
(600,720,l)
);
}
);
};
layerId = "76DA76B7-AE51-4169-AB0E-317D7E08960F";
shapes = (
{
ref = I;
},
{
pos = (375,180);
ref = gravecomb;
}
);
width = 750;
}
);
unicode = 204;
},
{
glyphname = Imacron;
lastChange = "2026-04-30 13:10:11 +0000";
layers = (
{
background = {
anchors = (
{
name = ogonek;
pos = (375,0);
},
{
name = top;
pos = (375,900);
}
);
shapes = (
{
closed = 1;
nodes = (
(735,240,l),
(675,240,l),
(675,480,l),
(735,480,l),
(735,720,l),
(15,720,l),
(15,480,l),
(75,480,l),
(75,240,l),
(15,240,l),
(15,0,l),
(735,0,l)
);
},
{
closed = 1;
nodes = (
(645,900,l),
(105,900,l),
(105,780,ls),
(105,747,o),
(132,720,o),
(165,720,cs),
(645,720,l)
);
}
);
};
layerId = "76DA76B7-AE51-4169-AB0E-317D7E08960F";
shapes = (
{
ref = I;
},
{
pos = (375,180);
ref = macroncomb;
}
);
width = 750;
}
);
unicode = 298;
},
{
glyphname = Iogonek;
lastChange = "2026-04-30 13:13:29 +0000";
layers = (
{
background = {
anchors = (
{
name = ogonek;
pos = (375,0);
},
{
name = top;
pos = (375,720);
}
);
shapes = (
{
closed = 1;
nodes = (
(735,240,l),
(675,240,l),
(675,480,l),
(735,480,l),
(735,720,l),
(15,720,l),
(15,480,l),
(75,480,l),
(75,240,l),
(15,240,l),
(15,0,l),
(735,0,l)
);
},
{
closed = 1;
nodes = (
(630,-30,l),
(450,-30,l),
(450,120,l),
(300,120,l),
(300,-60,ls),
(300,-126,o),
(354,-180,o),
(420,-180,cs),
(630,-180,l)
);
}
);
};
layerId = "76DA76B7-AE51-4169-AB0E-317D7E08960F";
shapes = (
{
ref = I;
},
{
pos = (465,-1);
ref = ogonekcomb;
}
);
width = 750;
}
);
unicode = 302;
},
{
color = 11;
glyphname = J;
lastChange = "2026-04-30 13:10:06 +0000";
layers = (
{
anchors = (
{
name = top;
pos = (405,720);
}
);
background = {
anchors = (
{
name = top;
pos = (405,720);
}
);
shapes = (
{
closed = 1;
nodes = (
(628,0,o),
(735,107,o),
(735,240,cs),
(735,720,l),
(75,720,l),
(75,240,l),
(15,240,l),
(15,0,l),
(495,0,ls)
);
}
);
};
layerId = "76DA76B7-AE51-4169-AB0E-317D7E08960F";
shapes = (
{
closed = 1;
nodes = (
(628,0,o),
(735,107,o),
(735,240,cs),
(735,720,l),
(75,720,l),
(75,240,l),
(15,240,l),
(15,0,l),
(495,0,ls)
);
}
);
width = 750;
}
);
unicode = 74;
},
{
color = 11;
glyphname = K;
lastChange = "2026-04-30 13:10:06 +0000";
layers = (
{
anchors = (
{
name = bottom;
pos = (375,0);
},
{
name = top;
pos = (375,720);
}
);
background = {
anchors = (
{
name = bottom;
pos = (375,0);
},
{
name = top;
pos = (375,720);
}
);
shapes = (
{
closed = 1;
nodes = (
(735,230,ls),
(735,302,o),
(677,360,o),
(605,360,c),
(677,360,o),
(735,418,o),
(735,490,cs),
(735,720,l),
(15,720,l),
(15,0,l),
(735,0,l)
);
}
);
};
layerId = "76DA76B7-AE51-4169-AB0E-317D7E08960F";
shapes = (
{
closed = 1;
nodes = (
(735,230,ls),
(735,302,o),
(677,360,o),
(605,360,c),
(677,360,o),
(735,418,o),
(735,490,cs),
(735,720,l),
(15,720,l),
(15,0,l),
(735,0,l)
);
}
);
width = 750;
}
);
unicode = 75;
},
{
glyphname = Kcommaaccent;
lastChange = "2026-04-30 13:16:51 +0000";
layers = (
{
background = {
anchors = (
{
name = bottom;
pos = (375,-180);
},
{
name = top;
pos = (375,720);
}
);
shapes = (
{
closed = 1;
nodes = (
(735,230,ls),
(735,302,o),
(677,360,o),
(605,360,c),
(677,360,o),
(735,418,o),
(735,490,cs),
(735,720,l),
(15,720,l),
(15,0,l),
(735,0,l)
);
},
{
closed = 1;
nodes = (
(455,-270,o),
(495,-230,o),
(495,-180,cs),
(495,-90,ls),
(495,-40,o),
(455,0,o),
(405,0,cs),
(255,0,l),
(255,-180,l),
(405,-180,l),
(405,-270,l)
);
}
);
};
layerId = "76DA76B7-AE51-4169-AB0E-317D7E08960F";
shapes = (
{
ref = K;
},
{
pos = (375,0);
ref = commaaccentcomb;
}
);
width = 750;
}
);
unicode = 310;
},
{
color = 11;
glyphname = L;
lastChange = "2026-04-30 13:11:20 +0000";
layers = (
{
anchors = (
{
name = bottom;
pos = (375,0);
},
{
name = center;
pos = (345,360);
},
{
name = top;
pos = (345,720);
},
{
name = topright;
pos = (675,720);
}
);
background = {
anchors = (
{
name = bottom;
pos = (375,0);
},
{
name = center;
pos = (345,360);
},
{
name = top;
pos = (345,720);
},
{
name = topright;
pos = (675,720);
}
);
shapes = (
{
closed = 1;
nodes = (
(735,240,l),
(675,240,l),
(675,720,l),
(15,720,l),
(15,0,l),
(735,0,l)
);
}
);
};
layerId = "76DA76B7-AE51-4169-AB0E-317D7E08960F";
shapes = (
{
closed = 1;
nodes = (
(735,240,l),
(675,240,l),
(675,720,l),
(15,720,l),
(15,0,l),
(735,0,l)
);
}
);
width = 750;
}
);
unicode = 76;
},
{
glyphname = Lacute;
lastChange = "2026-04-30 13:10:11 +0000";
layers = (
{
background = {
anchors = (
{
name = bottom;
pos = (375,0);
},
{
name = center;
pos = (345,360);
},
{
name = top;
pos = (345,900);
},
{
name = topright;
pos = (640,720);
}
);
shapes = (
{
closed = 1;
nodes = (
(735,240,l),
(675,240,l),
(675,720,l),
(15,720,l),
(15,0,l),
(735,0,l)
);
},
{
closed = 1;
nodes = (
(489,720,o),
(570,801,o),
(570,900,c),
(210,900,l),
(210,850,o),
(170,810,o),
(120,810,c),
(120,720,l),
(390,720,ls)
);
}
);
};
layerId = "76DA76B7-AE51-4169-AB0E-317D7E08960F";
shapes = (
{
ref = L;
},
{
pos = (345,180);
ref = acutecomb;
}
);
width = 750;
}
);
unicode = 313;
},
{
glyphname = Lcommaaccent;
lastChange = "2026-04-30 13:16:51 +0000";
layers = (
{
background = {
anchors = (
{
name = bottom;
pos = (375,-180);
},
{
name = center;
pos = (345,360);
},
{
name = top;
pos = (345,720);
},
{
name = topright;
pos = (640,720);
}
);
shapes = (
{
closed = 1;
nodes = (
(735,240,l),
(675,240,l),
(675,720,l),
(15,720,l),
(15,0,l),
(735,0,l)
);
},
{
closed = 1;
nodes = (
(455,-270,o),
(495,-230,o),
(495,-180,cs),
(495,-90,ls),
(495,-40,o),
(455,0,o),
(405,0,cs),
(255,0,l),
(255,-180,l),
(405,-180,l),
(405,-270,l)
);
}
);
};
layerId = "76DA76B7-AE51-4169-AB0E-317D7E08960F";
shapes = (
{
ref = L;
},
{
pos = (375,0);
ref = commaaccentcomb;
}
);
width = 750;
}
);
unicode = 315;
},
{
color = 11;
glyphname = M;
lastChange = "2026-04-30 13:10:06 +0000";
layers = (
{
background = {
shapes = (
{
closed = 1;
nodes = (
(735,720,l),
(505,720,ls),
(433,720,o),
(375,662,o),
(375,590,c),
(375,662,o),
(317,720,o),
(245,720,cs),
(15,720,l),
(15,0,l),
(735,0,l)
);
}
);
};
layerId = "76DA76B7-AE51-4169-AB0E-317D7E08960F";
shapes = (
{
closed = 1;
nodes = (
(735,720,l),
(505,720,ls),
(433,720,o),
(375,662,o),
(375,590,c),
(375,662,o),
(317,720,o),
(245,720,cs),
(15,720,l),
(15,0,l),
(735,0,l)
);
}
);
width = 750;
}
);
unicode = 77;
},
{
color = 11;
glyphname = N;
lastChange = "2026-04-30 13:10:06 +0000";
layers = (
{
anchors = (
{
name = bottom;
pos = (375,0);
},
{
name = top;
pos = (375,720);
}
);
background = {
anchors = (
{
name = bottom;
pos = (375,0);
},
{
name = top;
pos = (375,720);
}
);
shapes = (
{
closed = 1;
nodes = (
(375,140,ls),
(375,63,o),
(438,0,o),
(515,0,cs),
(735,0,l),
(735,720,l),
(375,720,l),
(375,580,ls),
(375,657,o),
(312,720,o),
(235,720,cs),
(15,720,l),
(15,0,l),
(375,0,l)
);
}
);
};
layerId = "76DA76B7-AE51-4169-AB0E-317D7E08960F";
shapes = (
{
closed = 1;
nodes = (
(375,140,ls),
(375,63,o),
(438,0,o),
(515,0,cs),
(735,0,l),
(735,720,l),
(375,720,l),
(375,580,ls),
(375,657,o),
(312,720,o),
(235,720,cs),
(15,720,l),
(15,0,l),
(375,0,l)
);
}
);
width = 750;
}
);
unicode = 78;
},
{
glyphname = Nacute;
lastChange = "2026-04-30 13:10:11 +0000";
layers = (
{
background = {
anchors = (
{
name = bottom;
pos = (375,0);
},
{
name = top;
pos = (375,900);
}
);
shapes = (
{
closed = 1;
nodes = (
(375,140,ls),
(375,63,o),
(438,0,o),
(515,0,cs),
(735,0,l),
(735,720,l),
(375,720,l),
(375,580,ls),
(375,657,o),
(312,720,o),
(235,720,cs),
(15,720,l),
(15,0,l),
(375,0,l)
);
},
{
closed = 1;
nodes = (
(519,720,o),
(600,801,o),
(600,900,c),
(240,900,l),
(240,850,o),
(200,810,o),
(150,810,c),
(150,720,l),
(420,720,ls)
);
}
);
};
layerId = "76DA76B7-AE51-4169-AB0E-317D7E08960F";
shapes = (
{
ref = N;
},
{
pos = (375,180);
ref = acutecomb;
}
);
width = 750;
}
);
unicode = 323;
},
{
glyphname = Ncaron;
lastChange = "2026-04-30 13:10:11 +0000";
layers = (
{
background = {
anchors = (
{
name = bottom;
pos = (375,0);
},
{
name = top;
pos = (375,900);
}
);
shapes = (
{
closed = 1;
nodes = (
(375,140,ls),
(375,63,o),
(438,0,o),
(515,0,cs),
(735,0,l),
(735,720,l),
(375,720,l),
(375,580,ls),
(375,657,o),
(312,720,o),
(235,720,cs),
(15,720,l),
(15,0,l),
(375,0,l)
);
},
{
closed = 1;
nodes = (
(555,770,o),
(595,810,o),
(645,810,c),
(645,900,l),
(465,900,ls),
(415,900,o),
(375,860,o),
(375,810,c),
(375,860,o),
(335,900,o),
(285,900,cs),
(105,900,l),
(105,810,l),
(155,810,o),
(195,770,o),
(195,720,c),
(555,720,l)
);
}
);
};
layerId = "76DA76B7-AE51-4169-AB0E-317D7E08960F";
shapes = (
{
ref = N;
},
{
pos = (375,180);
ref = caroncomb;
}
);
width = 750;
}
);
unicode = 327;
},
{
glyphname = Ncommaaccent;
lastChange = "2026-04-30 13:16:51 +0000";
layers = (
{
background = {
anchors = (
{
name = bottom;
pos = (375,-180);
},
{
name = top;
pos = (375,720);
}
);
shapes = (
{
closed = 1;
nodes = (
(375,140,ls),
(375,63,o),
(438,0,o),
(515,0,cs),
(735,0,l),
(735,720,l),
(375,720,l),
(375,580,ls),
(375,657,o),
(312,720,o),
(235,720,cs),
(15,720,l),
(15,0,l),
(375,0,l)
);
},
{
closed = 1;
nodes = (
(455,-270,o),
(495,-230,o),
(495,-180,cs),
(495,-90,ls),
(495,-40,o),
(455,0,o),
(405,0,cs),
(255,0,l),
(255,-180,l),
(405,-180,l),
(405,-270,l)
);
}
);
};
layerId = "76DA76B7-AE51-4169-AB0E-317D7E08960F";
shapes = (
{
ref = N;
},
{
pos = (375,0);
ref = commaaccentcomb;
}
);
width = 750;
}
);
unicode = 325;
},
{
glyphname = Ntilde;
lastChange = "2026-04-30 13:10:11 +0000";
layers = (
{
background = {
anchors = (
{
name = bottom;
pos = (375,0);
},
{
name = top;
pos = (375,900);
}
);
shapes = (
{
closed = 1;
nodes = (
(375,140,ls),
(375,63,o),
(438,0,o),
(515,0,cs),
(735,0,l),
(735,720,l),
(375,720,l),
(375,580,ls),
(375,657,o),
(312,720,o),
(235,720,cs),
(15,720,l),
(15,0,l),
(375,0,l)
);
},
{
closed = 1;
nodes = (
(552,720,o),
(600,768,o),
(600,828,cs),
(600,900,l),
(510,900,l),
(493,863,o),
(455,837,o),
(411,837,cs),
(384,837,o),
(356,847,o),
(335,868,cs),
(315,888,o),
(288,900,o),
(258,900,cs),
(198,900,o),
(150,852,o),
(150,792,cs),
(150,720,l),
(492,720,ls)
);
}
);
};
layerId = "76DA76B7-AE51-4169-AB0E-317D7E08960F";
shapes = (
{
ref = N;
},
{
pos = (375,180);
ref = tildecomb;
}
);
width = 750;
}
);
unicode = 209;
},
{
color = 11;
glyphname = O;
lastChange = "2026-04-30 13:10:06 +0000";
layers = (
{
anchors = (
{
name = bottom;
pos = (375,0);
},
{
name = center;
pos = (375,360);
},
{
name = top;
pos = (375,720);
}
);
background = {
anchors = (
{
name = bottom;
pos = (375,0);
},
{
name = center;
pos = (375,360);
},
{
name = top;
pos = (375,720);
}
);
shapes = (
{
closed = 1;
nodes = (
(579,-10,o),
(745,156,o),
(745,360,cs),
(745,564,o),
(579,730,o),
(375,730,cs),
(171,730,o),
(5,564,o),
(5,360,cs),
(5,156,o),
(171,-10,o),
(375,-10,cs)
);
}
);
};
layerId = "76DA76B7-AE51-4169-AB0E-317D7E08960F";
shapes = (
{
closed = 1;
nodes = (
(579,-10,o),
(745,156,o),
(745,360,cs),
(745,564,o),
(579,730,o),
(375,730,cs),
(171,730,o),
(5,564,o),
(5,360,cs),
(5,156,o),
(171,-10,o),
(375,-10,cs)
);
}
);
width = 750;
}
);
unicode = 79;
},
{
glyphname = Oacute;
lastChange = "2026-04-30 13:10:11 +0000";
layers = (
{
background = {
anchors = (
{
name = bottom;
pos = (375,0);
},
{
name = center;
pos = (375,360);
},
{
name = top;
pos = (375,900);
}
);
shapes = (
{
closed = 1;
nodes = (
(579,-10,o),
(745,156,o),
(745,360,cs),
(745,564,o),
(579,730,o),
(375,730,cs),
(171,730,o),
(5,564,o),
(5,360,cs),
(5,156,o),
(171,-10,o),
(375,-10,cs)
);
},
{
closed = 1;
nodes = (
(519,720,o),
(600,801,o),
(600,900,c),
(240,900,l),
(240,850,o),
(200,810,o),
(150,810,c),
(150,720,l),
(420,720,ls)
);
}
);
};
layerId = "76DA76B7-AE51-4169-AB0E-317D7E08960F";
shapes = (
{
ref = O;
},
{
pos = (375,180);
ref = acutecomb;
}
);
width = 750;
}
);
unicode = 211;
},
{
glyphname = Ocircumflex;
lastChange = "2026-04-30 13:10:11 +0000";
layers = (
{
background = {
anchors = (
{
name = bottom;
pos = (375,0);
},
{
name = center;
pos = (375,360);
},
{
name = top;
pos = (375,900);
}
);
shapes = (
{
closed = 1;
nodes = (
(579,-10,o),
(745,156,o),
(745,360,cs),
(745,564,o),
(579,730,o),
(375,730,cs),
(171,730,o),
(5,564,o),
(5,360,cs),
(5,156,o),
(171,-10,o),
(375,-10,cs)
);
},
{
closed = 1;
nodes = (
(335,720,o),
(375,760,o),
(375,810,c),
(375,760,o),
(415,720,o),
(465,720,cs),
(645,720,l),
(645,810,l),
(595,810,o),
(555,850,o),
(555,900,c),
(195,900,l),
(195,850,o),
(155,810,o),
(105,810,c),
(105,720,l),
(285,720,ls)
);
}
);
};
layerId = "76DA76B7-AE51-4169-AB0E-317D7E08960F";
shapes = (
{
ref = O;
},
{
pos = (375,180);
ref = circumflexcomb;
}
);
width = 750;
}
);
unicode = 212;
},
{
glyphname = Odieresis;
lastChange = "2026-04-30 13:10:11 +0000";
layers = (
{
background = {
anchors = (
{
name = bottom;
pos = (375,0);
},
{
name = center;
pos = (375,360);
},
{
name = top;
pos = (375,900);
}
);
shapes = (
{
closed = 1;
nodes = (
(579,-10,o),
(745,156,o),
(745,360,cs),
(745,564,o),
(579,730,o),
(375,730,cs),
(171,730,o),
(5,564,o),
(5,360,cs),
(5,156,o),
(171,-10,o),
(375,-10,cs)
);
},
{
closed = 1;
nodes = (
(360,900,l),
(130,900,l),
(130,780,ls),
(130,747,o),
(157,720,o),
(190,720,cs),
(360,720,l)
);
},
{
closed = 1;
nodes = (
(620,900,l),
(390,900,l),
(390,780,ls),
(390,747,o),
(417,720,o),
(450,720,cs),
(620,720,l)
);
}
);
};
layerId = "76DA76B7-AE51-4169-AB0E-317D7E08960F";
shapes = (
{
ref = O;
},
{
pos = (375,180);
ref = dieresiscomb;
}
);
width = 750;
}
);
unicode = 214;
},
{
glyphname = Ograve;
lastChange = "2026-04-30 13:10:11 +0000";
layers = (
{
background = {
anchors = (
{
name = bottom;
pos = (375,0);
},
{
name = center;
pos = (375,360);
},
{
name = top;
pos = (375,900);
}
);
shapes = (
{
closed = 1;
nodes = (
(579,-10,o),
(745,156,o),
(745,360,cs),
(745,564,o),
(579,730,o),
(375,730,cs),
(171,730,o),
(5,564,o),
(5,360,cs),
(5,156,o),
(171,-10,o),
(375,-10,cs)
);
},
{
closed = 1;
nodes = (
(600,810,l),
(550,810,o),
(510,850,o),
(510,900,c),
(150,900,l),
(150,801,o),
(231,720,o),
(330,720,cs),
(600,720,l)
);
}
);
};
layerId = "76DA76B7-AE51-4169-AB0E-317D7E08960F";
shapes = (
{
ref = O;
},
{
pos = (375,180);
ref = gravecomb;
}
);
width = 750;
}
);
unicode = 210;
},
{
glyphname = Ohungarumlaut;
lastChange = "2026-04-30 13:10:11 +0000";
layers = (
{
background = {
anchors = (
{
name = bottom;
pos = (375,0);
},
{
name = center;
pos = (375,360);
},
{
name = top;
pos = (375,900);
}
);
shapes = (
{
closed = 1;
nodes = (
(579,-10,o),
(745,156,o),
(745,360,cs),
(745,564,o),
(579,730,o),
(375,730,cs),
(171,730,o),
(5,564,o),
(5,360,cs),
(5,156,o),
(171,-10,o),
(375,-10,cs)
);
},
{
closed = 1;
nodes = (
(319,720,o),
(400,801,o),
(400,900,c),
(170,900,l),
(170,850,o),
(130,810,o),
(80,810,c),
(80,720,l),
(220,720,ls)
);
},
{
closed = 1;
nodes = (
(589,720,o),
(670,801,o),
(670,900,c),
(430,900,l),
(430,824,o),
(389,757,o),
(328,720,c),
(490,720,ls)
);
}
);
};
layerId = "76DA76B7-AE51-4169-AB0E-317D7E08960F";
shapes = (
{
ref = O;
},
{
pos = (375,180);
ref = hungarumlautcomb;
}
);
width = 750;
}
);
unicode = 336;
},
{
glyphname = Oslash;
lastChange = "2026-04-30 13:10:11 +0000";
layers = (
{
anchors = (
{
name = bottom;
pos = (375,0);
},
{
name = top;
pos = (375,720);
}
);
background = {
anchors = (
{
name = bottom;
pos = (375,0);
},
{
name = center;
pos = (375,360);
},
{
name = top;
pos = (375,720);
}
);
shapes = (
{
closed = 1;
nodes = (
(579,-10,o),
(745,156,o),
(745,360,cs),
(745,564,o),
(579,730,o),
(375,730,cs),
(171,730,o),
(5,564,o),
(5,360,cs),
(5,156,o),
(171,-10,o),
(375,-10,cs)
);
},
{
closed = 1;
nodes = (
(615,540,ls),
(681,540,o),
(735,594,o),
(735,660,cs),
(735,780,l),
(495,780,l),
(495,540,l)
);
},
{
closed = 1;
nodes = (
(255,-60,l),
(255,180,l),
(135,180,ls),
(69,180,o),
(15,126,o),
(15,60,cs),
(15,-60,l)
);
}
);
};
layerId = "76DA76B7-AE51-4169-AB0E-317D7E08960F";
shapes = (
{
ref = O;
},
{
pos = (375,0);
ref = slashlongcomb.O;
}
);
width = 750;
}
);
unicode = 216;
},
{
glyphname = Otilde;
lastChange = "2026-04-30 13:10:11 +0000";
layers = (
{
background = {
anchors = (
{
name = bottom;
pos = (375,0);
},
{
name = center;
pos = (375,360);
},
{
name = top;
pos = (375,900);
}
);
shapes = (
{
closed = 1;
nodes = (
(579,-10,o),
(745,156,o),
(745,360,cs),
(745,564,o),
(579,730,o),
(375,730,cs),
(171,730,o),
(5,564,o),
(5,360,cs),
(5,156,o),
(171,-10,o),
(375,-10,cs)
);
},
{
closed = 1;
nodes = (
(552,720,o),
(600,768,o),
(600,828,cs),
(600,900,l),
(510,900,l),
(493,863,o),
(455,837,o),
(411,837,cs),
(384,837,o),
(356,847,o),
(335,868,cs),
(315,888,o),
(288,900,o),
(258,900,cs),
(198,900,o),
(150,852,o),
(150,792,cs),
(150,720,l),
(492,720,ls)
);
}
);
};
layerId = "76DA76B7-AE51-4169-AB0E-317D7E08960F";
shapes = (
{
ref = O;
},
{
pos = (375,180);
ref = tildecomb;
}
);
width = 750;
}
);
unicode = 213;
},
{
glyphname = OE;
lastChange = "2026-04-30 13:10:11 +0000";
layers = (
{
anchors = (
{
name = bottom;
pos = (555,0);
},
{
name = top;
pos = (555,720);
}
);
background = {
anchors = (
{
name = top;
pos = (555,720);
}
);
shapes = (
{
closed = 1;
nodes = (
(565,720,l),
(565,678,l),
(509,711,o),
(444,730,o),
(375,730,cs),
(171,730,o),
(5,564,o),
(5,360,cs),
(5,156,o),
(171,-10,o),
(375,-10,cs),
(444,-10,o),
(509,9,o),
(565,42,c),
(565,0,l),
(1095,0,l),
(1095,240,l),
(1035,240,l),
(1035,480,l),
(1095,480,l),
(1095,720,l)
);
}
);
};
layerId = "76DA76B7-AE51-4169-AB0E-317D7E08960F";
shapes = (
{
closed = 1;
nodes = (
(565,720,l),
(565,678,l),
(509,711,o),
(444,730,o),
(375,730,cs),
(171,730,o),
(5,564,o),
(5,360,cs),
(5,156,o),
(171,-10,o),
(375,-10,cs),
(444,-10,o),
(509,9,o),
(565,42,c),
(565,0,l),
(1095,0,l),
(1095,240,l),
(1035,240,l),
(1035,480,l),
(1095,480,l),
(1095,720,l)
);
}
);
width = 1110;
}
);
unicode = 338;
},
{
color = 11;
glyphname = P;
lastChange = "2026-04-30 13:10:06 +0000";
layers = (
{
background = {
shapes = (
{
closed = 1;
nodes = (
(615,241,l),
(687,287,o),
(735,368,o),
(735,460,cs),
(735,604,o),
(619,720,o),
(475,720,cs),
(15,720,l),
(15,0,l),
(615,0,l)
);
}
);
};
layerId = "76DA76B7-AE51-4169-AB0E-317D7E08960F";
shapes = (
{
closed = 1;
nodes = (
(615,241,l),
(687,287,o),
(735,368,o),
(735,460,cs),
(735,604,o),
(619,720,o),
(475,720,cs),
(15,720,l),
(15,0,l),
(615,0,l)
);
}
);
width = 750;
}
);
unicode = 80;
},
{
glyphname = Thorn;
lastChange = "2026-04-30 13:10:11 +0000";
layers = (
{
anchors = (
{
name = bottom;
pos = (375,0);
},
{
name = top;
pos = (375,720);
}
);
background = {
shapes = (
{
closed = 1;
nodes = (
(735,452,o),
(687,533,o),
(615,579,c),
(615,720,l),
(15,720,l),
(15,0,l),
(615,0,l),
(615,141,l),
(687,187,o),
(735,268,o),
(735,360,cs)
);
}
);
};
layerId = "76DA76B7-AE51-4169-AB0E-317D7E08960F";
shapes = (
{
closed = 1;
nodes = (
(735,452,o),
(687,533,o),
(615,579,c),
(615,720,l),
(15,720,l),
(15,0,l),
(615,0,l),
(615,141,l),
(687,187,o),
(735,268,o),
(735,360,cs)
);
}
);
width = 750;
}
);
unicode = 222;
},
{
color = 11;
glyphname = Q;
lastChange = "2026-04-30 13:10:06 +0000";
layers = (
{
background = {
shapes = (
{
closed = 1;
nodes = (
(735,365,ls),
(735,567,o),
(572,730,o),
(370,730,cs),
(168,730,o),
(5,567,o),
(5,365,cs),
(5,163,o),
(168,0,o),
(370,0,cs),
(735,0,l)
);
}
);
};
layerId = "76DA76B7-AE51-4169-AB0E-317D7E08960F";
shapes = (
{
closed = 1;
nodes = (
(735,365,ls),
(735,567,o),
(572,730,o),
(370,730,cs),
(168,730,o),
(5,567,o),
(5,365,cs),
(5,163,o),
(168,0,o),
(370,0,cs),
(735,0,l)
);
}
);
width = 750;
}
);
unicode = 81;
},
{
color = 11;
glyphname = R;
lastChange = "2026-04-30 13:10:06 +0000";
layers = (
{
anchors = (
{
name = bottom;
pos = (375,0);
},
{
name = top;
pos = (345,720);
}
);
background = {
anchors = (
{
name = bottom;
pos = (375,0);
},
{
name = top;
pos = (345,720);
}
);
shapes = (
{
closed = 1;
nodes = (
(735,98,o),
(687,186,o),
(614,240,c),
(687,286,o),
(735,367,o),
(735,460,cs),
(735,604,o),
(619,720,o),
(475,720,cs),
(15,720,l),
(15,0,l),
(735,0,l)
);
}
);
};
layerId = "76DA76B7-AE51-4169-AB0E-317D7E08960F";
shapes = (
{
closed = 1;
nodes = (
(735,98,o),
(687,186,o),
(614,240,c),
(687,286,o),
(735,367,o),
(735,460,cs),
(735,604,o),
(619,720,o),
(475,720,cs),
(15,720,l),
(15,0,l),
(735,0,l)
);
}
);
width = 750;
}
);
unicode = 82;
},
{
glyphname = Racute;
lastChange = "2026-04-30 13:10:11 +0000";
layers = (
{
background = {
anchors = (
{
name = bottom;
pos = (375,0);
},
{
name = top;
pos = (345,900);
}
);
shapes = (
{
closed = 1;
nodes = (
(735,98,o),
(687,186,o),
(614,240,c),
(687,286,o),
(735,367,o),
(735,460,cs),
(735,604,o),
(619,720,o),
(475,720,cs),
(15,720,l),
(15,0,l),
(735,0,l)
);
},
{
closed = 1;
nodes = (
(489,720,o),
(570,801,o),
(570,900,c),
(210,900,l),
(210,850,o),
(170,810,o),
(120,810,c),
(120,720,l),
(390,720,ls)
);
}
);
};
layerId = "76DA76B7-AE51-4169-AB0E-317D7E08960F";
shapes = (
{
ref = R;
},
{
pos = (345,180);
ref = acutecomb;
}
);
width = 750;
}
);
unicode = 340;
},
{
glyphname = Rcaron;
lastChange = "2026-04-30 13:10:11 +0000";
layers = (
{
background = {
anchors = (
{
name = bottom;
pos = (375,0);
},
{
name = top;
pos = (345,900);
}
);
shapes = (
{
closed = 1;
nodes = (
(735,98,o),
(687,186,o),
(614,240,c),
(687,286,o),
(735,367,o),
(735,460,cs),
(735,604,o),
(619,720,o),
(475,720,cs),
(15,720,l),
(15,0,l),
(735,0,l)
);
},
{
closed = 1;
nodes = (
(525,770,o),
(565,810,o),
(615,810,c),
(615,900,l),
(435,900,ls),
(385,900,o),
(345,860,o),
(345,810,c),
(345,860,o),
(305,900,o),
(255,900,cs),
(75,900,l),
(75,810,l),
(125,810,o),
(165,770,o),
(165,720,c),
(525,720,l)
);
}
);
};
layerId = "76DA76B7-AE51-4169-AB0E-317D7E08960F";
shapes = (
{
ref = R;
},
{
pos = (345,180);
ref = caroncomb;
}
);
width = 750;
}
);
unicode = 344;
},
{
color = 11;
glyphname = S;
lastChange = "2026-04-30 13:10:06 +0000";
layers = (
{
anchors = (
{
name = bottom;
pos = (360,0);
},
{
name = top;
pos = (390,720);
}
);
background = {
anchors = (
{
name = bottom;
pos = (360,0);
},
{
name = top;
pos = (390,720);
}
);
shapes = (
{
closed = 1;
nodes = (
(661,0,o),
(745,84,o),
(745,187,cs),
(745,265,o),
(697,332,o),
(629,360,c),
(735,360,l),
(735,720,l),
(192,720,ls),
(89,720,o),
(5,636,o),
(5,533,cs),
(5,455,o),
(53,388,o),
(121,360,c),
(15,360,l),
(15,0,l),
(558,0,ls)
);
}
);
};
layerId = "76DA76B7-AE51-4169-AB0E-317D7E08960F";
shapes = (
{
closed = 1;
nodes = (
(661,0,o),
(745,84,o),
(745,187,cs),
(745,265,o),
(697,332,o),
(629,360,c),
(735,360,l),
(735,720,l),
(192,720,ls),
(89,720,o),
(5,636,o),
(5,533,cs),
(5,455,o),
(53,388,o),
(121,360,c),
(15,360,l),
(15,0,l),
(558,0,ls)
);
}
);
width = 750;
}
);
unicode = 83;
},
{
glyphname = Sacute;
lastChange = "2026-04-30 13:10:11 +0000";
layers = (
{
background = {
anchors = (
{
name = bottom;
pos = (360,0);
},
{
name = top;
pos = (390,900);
}
);
shapes = (
{
closed = 1;
nodes = (
(661,0,o),
(745,84,o),
(745,187,cs),
(745,265,o),
(697,332,o),
(629,360,c),
(735,360,l),
(735,720,l),
(192,720,ls),
(89,720,o),
(5,636,o),
(5,533,cs),
(5,455,o),
(53,388,o),
(121,360,c),
(15,360,l),
(15,0,l),
(558,0,ls)
);
},
{
closed = 1;
nodes = (
(534,720,o),
(615,801,o),
(615,900,c),
(255,900,l),
(255,850,o),
(215,810,o),
(165,810,c),
(165,720,l),
(435,720,ls)
);
}
);
};
layerId = "76DA76B7-AE51-4169-AB0E-317D7E08960F";
shapes = (
{
ref = S;
},
{
pos = (390,180);
ref = acutecomb;
}
);
width = 750;
}
);
unicode = 346;
},
{
glyphname = Scaron;
lastChange = "2026-04-30 13:10:11 +0000";
layers = (
{
background = {
anchors = (
{
name = bottom;
pos = (360,0);
},
{
name = top;
pos = (390,900);
}
);
shapes = (
{
closed = 1;
nodes = (
(661,0,o),
(745,84,o),
(745,187,cs),
(745,265,o),
(697,332,o),
(629,360,c),
(735,360,l),
(735,720,l),
(192,720,ls),
(89,720,o),
(5,636,o),
(5,533,cs),
(5,455,o),
(53,388,o),
(121,360,c),
(15,360,l),
(15,0,l),
(558,0,ls)
);
},
{
closed = 1;
nodes = (
(570,770,o),
(610,810,o),
(660,810,c),
(660,900,l),
(480,900,ls),
(430,900,o),
(390,860,o),
(390,810,c),
(390,860,o),
(350,900,o),
(300,900,cs),
(120,900,l),
(120,810,l),
(170,810,o),
(210,770,o),
(210,720,c),
(570,720,l)
);
}
);
};
layerId = "76DA76B7-AE51-4169-AB0E-317D7E08960F";
shapes = (
{
ref = S;
},
{
pos = (390,180);
ref = caroncomb;
}
);
width = 750;
}
);
unicode = 352;
},
{
glyphname = Scedilla;
lastChange = "2026-04-30 13:10:11 +0000";
layers = (
{
background = {
anchors = (
{
name = bottom;
pos = (360,-180);
},
{
name = top;
pos = (390,720);
}
);
shapes = (
{
closed = 1;
nodes = (
(661,0,o),
(745,84,o),
(745,187,cs),
(745,265,o),
(697,332,o),
(629,360,c),
(735,360,l),
(735,720,l),
(192,720,ls),
(89,720,o),
(5,636,o),
(5,533,cs),
(5,455,o),
(53,388,o),
(121,360,c),
(15,360,l),
(15,0,l),
(558,0,ls)
);
},
{
closed = 1;
nodes = (
(485,-180,o),
(525,-140,o),
(525,-90,cs),
(525,-40,o),
(485,0,o),
(435,0,c),
(435,120,l),
(285,120,l),
(285,-30,l),
(195,-30,l),
(195,-180,l),
(435,-180,ls)
);
}
);
};
layerId = "76DA76B7-AE51-4169-AB0E-317D7E08960F";
shapes = (
{
ref = S;
},
{
pos = (360,0);
ref = cedillacomb;
}
);
width = 750;
}
);
unicode = 350;
},
{
glyphname = Scommaaccent;
lastChange = "2026-04-30 13:10:11 +0000";
layers = (
{
background = {
anchors = (
{
name = bottom;
pos = (360,-180);
},
{
name = top;
pos = (390,720);
}
);
shapes = (
{
closed = 1;
nodes = (
(661,0,o),
(745,84,o),
(745,187,cs),
(745,265,o),
(697,332,o),
(629,360,c),
(735,360,l),
(735,720,l),
(192,720,ls),
(89,720,o),
(5,636,o),
(5,533,cs),
(5,455,o),
(53,388,o),
(121,360,c),
(15,360,l),
(15,0,l),
(558,0,ls)
);
},
{
closed = 1;
nodes = (
(440,-270,o),
(480,-230,o),
(480,-180,cs),
(480,-90,ls),
(480,-40,o),
(440,0,o),
(390,0,cs),
(240,0,l),
(240,-180,l),
(390,-180,l),
(390,-270,l)
);
}
);
};
layerId = "76DA76B7-AE51-4169-AB0E-317D7E08960F";
shapes = (
{
ref = S;
},
{
pos = (360,0);
ref = commaaccentcomb;
}
);
width = 750;
}
);
unicode = 536;
},
{
glyphname = Germandbls;
lastChange = "2026-04-30 13:10:11 +0000";
layers = (
{
anchors = (
{
name = bottom;
pos = (375,0);
},
{
name = top;
pos = (375,720);
}
);
background = {
shapes = (
{
closed = 1;
nodes = (
(475,0,ls),
(619,0,o),
(735,116,o),
(735,260,cs),
(735,353,o),
(687,434,o),
(614,480,c),
(687,534,o),
(735,622,o),
(735,720,c),
(255,720,ls),
(122,720,o),
(15,613,o),
(15,480,cs),
(15,0,l)
);
}
);
};
layerId = "76DA76B7-AE51-4169-AB0E-317D7E08960F";
shapes = (
{
closed = 1;
nodes = (
(475,0,ls),
(619,0,o),
(735,116,o),
(735,260,cs),
(735,353,o),
(687,434,o),
(614,480,c),
(687,534,o),
(735,622,o),
(735,720,c),
(255,720,ls),
(122,720,o),
(15,613,o),
(15,480,cs),
(15,0,l)
);
}
);
width = 750;
}
);
unicode = 7838;
},
{
color = 11;
glyphname = T;
lastChange = "2026-04-30 13:10:06 +0000";
layers = (
{
anchors = (
{
name = bottom;
pos = (375,0);
},
{
name = center;
pos = (375,240);
},
{
name = top;
pos = (375,720);
}
);
background = {
anchors = (
{
name = bottom;
pos = (375,0);
},
{
name = center;
pos = (375,240);
},
{
name = top;
pos = (375,720);
}
);
shapes = (
{
closed = 1;
nodes = (
(675,480,l),
(735,480,l),
(735,720,l),
(15,720,l),
(15,480,l),
(75,480,l),
(75,0,l),
(675,0,l)
);
}
);
};
layerId = "76DA76B7-AE51-4169-AB0E-317D7E08960F";
shapes = (
{
closed = 1;
nodes = (
(675,480,l),
(735,480,l),
(735,720,l),
(15,720,l),
(15,480,l),
(75,480,l),
(75,0,l),
(675,0,l)
);
}
);
width = 750;
}
);
unicode = 84;
},
{
glyphname = Tcaron;
lastChange = "2026-04-30 13:10:11 +0000";
layers = (
{
background = {
anchors = (
{
name = bottom;
pos = (375,0);
},
{
name = center;
pos = (375,360);
},
{
name = top;
pos = (375,900);
}
);
shapes = (
{
closed = 1;
nodes = (
(675,480,l),
(735,480,l),
(735,720,l),
(15,720,l),
(15,480,l),
(75,480,l),
(75,0,l),
(675,0,l)
);
},
{
closed = 1;
nodes = (
(555,770,o),
(595,810,o),
(645,810,c),
(645,900,l),
(465,900,ls),
(415,900,o),
(375,860,o),
(375,810,c),
(375,860,o),
(335,900,o),
(285,900,cs),
(105,900,l),
(105,810,l),
(155,810,o),
(195,770,o),
(195,720,c),
(555,720,l)
);
}
);
};
layerId = "76DA76B7-AE51-4169-AB0E-317D7E08960F";
shapes = (
{
ref = T;
},
{
pos = (375,180);
ref = caroncomb;
}
);
width = 750;
}
);
unicode = 356;
},
{
glyphname = Tcommaaccent;
lastChange = "2026-04-30 13:10:11 +0000";
layers = (
{
background = {
anchors = (
{
name = bottom;
pos = (375,-180);
},
{
name = center;
pos = (375,360);
},
{
name = top;
pos = (375,720);
}
);
shapes = (
{
closed = 1;
nodes = (
(675,480,l),
(735,480,l),
(735,720,l),
(15,720,l),
(15,480,l),
(75,480,l),
(75,0,l),
(675,0,l)
);
},
{
closed = 1;
nodes = (
(455,-270,o),
(495,-230,o),
(495,-180,cs),
(495,-90,ls),
(495,-40,o),
(455,0,o),
(405,0,cs),
(255,0,l),
(255,-180,l),
(405,-180,l),
(405,-270,l)
);
}
);
};
layerId = "76DA76B7-AE51-4169-AB0E-317D7E08960F";
shapes = (
{
ref = T;
},
{
pos = (375,0);
ref = commaaccentcomb;
}
);
width = 750;
}
);
unicode = 538;
},
{
color = 11;
glyphname = U;
lastChange = "2026-04-30 13:10:06 +0000";
layers = (
{
anchors = (
{
name = ogonek;
pos = (480,0);
},
{
name = top;
pos = (375,720);
}
);
background = {
anchors = (
{
name = ogonek;
pos = (480,0);
},
{
name = top;
pos = (375,720);
}
);
shapes = (
{
closed = 1;
nodes = (
(574,-10,o),
(735,151,o),
(735,350,cs),
(735,720,l),
(15,720,l),
(15,350,ls),
(15,151,o),
(176,-10,o),
(375,-10,cs)
);
}
);
};
layerId = "76DA76B7-AE51-4169-AB0E-317D7E08960F";
shapes = (
{
closed = 1;
nodes = (
(574,-10,o),
(735,151,o),
(735,350,cs),
(735,720,l),
(15,720,l),
(15,350,ls),
(15,151,o),
(176,-10,o),
(375,-10,cs)
);
}
);
width = 750;
}
);
unicode = 85;
},
{
glyphname = Uacute;
lastChange = "2026-04-30 13:10:11 +0000";
layers = (
{
background = {
anchors = (
{
name = ogonek;
pos = (480,0);
},
{
name = top;
pos = (375,900);
}
);
shapes = (
{
closed = 1;
nodes = (
(574,-10,o),
(735,151,o),
(735,350,cs),
(735,720,l),
(15,720,l),
(15,350,ls),
(15,151,o),
(176,-10,o),
(375,-10,cs)
);
},
{
closed = 1;
nodes = (
(519,720,o),
(600,801,o),
(600,900,c),
(240,900,l),
(240,850,o),
(200,810,o),
(150,810,c),
(150,720,l),
(420,720,ls)
);
}
);
};
layerId = "76DA76B7-AE51-4169-AB0E-317D7E08960F";
shapes = (
{
ref = U;
},
{
pos = (375,180);
ref = acutecomb;
}
);
width = 750;
}
);
unicode = 218;
},
{
glyphname = Ucircumflex;
lastChange = "2026-04-30 13:10:11 +0000";
layers = (
{
background = {
anchors = (
{
name = ogonek;
pos = (480,0);
},
{
name = top;
pos = (375,900);
}
);
shapes = (
{
closed = 1;
nodes = (
(574,-10,o),
(735,151,o),
(735,350,cs),
(735,720,l),
(15,720,l),
(15,350,ls),
(15,151,o),
(176,-10,o),
(375,-10,cs)
);
},
{
closed = 1;
nodes = (
(335,720,o),
(375,760,o),
(375,810,c),
(375,760,o),
(415,720,o),
(465,720,cs),
(645,720,l),
(645,810,l),
(595,810,o),
(555,850,o),
(555,900,c),
(195,900,l),
(195,850,o),
(155,810,o),
(105,810,c),
(105,720,l),
(285,720,ls)
);
}
);
};
layerId = "76DA76B7-AE51-4169-AB0E-317D7E08960F";
shapes = (
{
ref = U;
},
{
pos = (375,180);
ref = circumflexcomb;
}
);
width = 750;
}
);
unicode = 219;
},
{
glyphname = Udieresis;
lastChange = "2026-04-30 13:10:11 +0000";
layers = (
{
background = {
anchors = (
{
name = ogonek;
pos = (480,0);
},
{
name = top;
pos = (375,900);
}
);
shapes = (
{
closed = 1;
nodes = (
(574,-10,o),
(735,151,o),
(735,350,cs),
(735,720,l),
(15,720,l),
(15,350,ls),
(15,151,o),
(176,-10,o),
(375,-10,cs)
);
},
{
closed = 1;
nodes = (
(360,900,l),
(130,900,l),
(130,780,ls),
(130,747,o),
(157,720,o),
(190,720,cs),
(360,720,l)
);
},
{
closed = 1;
nodes = (
(620,900,l),
(390,900,l),
(390,780,ls),
(390,747,o),
(417,720,o),
(450,720,cs),
(620,720,l)
);
}
);
};
layerId = "76DA76B7-AE51-4169-AB0E-317D7E08960F";
shapes = (
{
ref = U;
},
{
pos = (375,180);
ref = dieresiscomb;
}
);
width = 750;
}
);
unicode = 220;
},
{
glyphname = Ugrave;
lastChange = "2026-04-30 13:10:11 +0000";
layers = (
{
background = {
anchors = (
{
name = ogonek;
pos = (480,0);
},
{
name = top;
pos = (375,900);
}
);
shapes = (
{
closed = 1;
nodes = (
(574,-10,o),
(735,151,o),
(735,350,cs),
(735,720,l),
(15,720,l),
(15,350,ls),
(15,151,o),
(176,-10,o),
(375,-10,cs)
);
},
{
closed = 1;
nodes = (
(600,810,l),
(550,810,o),
(510,850,o),
(510,900,c),
(150,900,l),
(150,801,o),
(231,720,o),
(330,720,cs),
(600,720,l)
);
}
);
};
layerId = "76DA76B7-AE51-4169-AB0E-317D7E08960F";
shapes = (
{
ref = U;
},
{
pos = (375,180);
ref = gravecomb;
}
);
width = 750;
}
);
unicode = 217;
},
{
glyphname = Uhungarumlaut;
lastChange = "2026-04-30 13:10:11 +0000";
layers = (
{
background = {
anchors = (
{
name = ogonek;
pos = (480,0);
},
{
name = top;
pos = (375,900);
}
);
shapes = (
{
closed = 1;
nodes = (
(574,-10,o),
(735,151,o),
(735,350,cs),
(735,720,l),
(15,720,l),
(15,350,ls),
(15,151,o),
(176,-10,o),
(375,-10,cs)
);
},
{
closed = 1;
nodes = (
(319,720,o),
(400,801,o),
(400,900,c),
(170,900,l),
(170,850,o),
(130,810,o),
(80,810,c),
(80,720,l),
(220,720,ls)
);
},
{
closed = 1;
nodes = (
(589,720,o),
(670,801,o),
(670,900,c),
(430,900,l),
(430,824,o),
(389,757,o),
(328,720,c),
(490,720,ls)
);
}
);
};
layerId = "76DA76B7-AE51-4169-AB0E-317D7E08960F";
shapes = (
{
ref = U;
},
{
pos = (375,180);
ref = hungarumlautcomb;
}
);
width = 750;
}
);
unicode = 368;
},
{
glyphname = Umacron;
lastChange = "2026-04-30 13:10:11 +0000";
layers = (
{
background = {
anchors = (
{
name = ogonek;
pos = (480,0);
},
{
name = top;
pos = (375,900);
}
);
shapes = (
{
closed = 1;
nodes = (
(574,-10,o),
(735,151,o),
(735,350,cs),
(735,720,l),
(15,720,l),
(15,350,ls),
(15,151,o),
(176,-10,o),
(375,-10,cs)
);
},
{
closed = 1;
nodes = (
(645,900,l),
(105,900,l),
(105,780,ls),
(105,747,o),
(132,720,o),
(165,720,cs),
(645,720,l)
);
}
);
};
layerId = "76DA76B7-AE51-4169-AB0E-317D7E08960F";
shapes = (
{
ref = U;
},
{
pos = (375,180);
ref = macroncomb;
}
);
width = 750;
}
);
unicode = 362;
},
{
glyphname = Uogonek;
lastChange = "2026-04-30 13:13:29 +0000";
layers = (
{
background = {
anchors = (
{
name = ogonek;
pos = (480,0);
},
{
name = top;
pos = (375,720);
}
);
shapes = (
{
closed = 1;
nodes = (
(574,-10,o),
(735,151,o),
(735,350,cs),
(735,720,l),
(15,720,l),
(15,350,ls),
(15,151,o),
(176,-10,o),
(375,-10,cs)
);
},
{
closed = 1;
nodes = (
(735,-30,l),
(555,-30,l),
(555,120,l),
(405,120,l),
(405,-60,ls),
(405,-126,o),
(459,-180,o),
(525,-180,cs),
(735,-180,l)
);
}
);
};
layerId = "76DA76B7-AE51-4169-AB0E-317D7E08960F";
shapes = (
{
ref = U;
},
{
pos = (570,-1);
ref = ogonekcomb;
}
);
width = 750;
}
);
unicode = 370;
},
{
glyphname = Uring;
lastChange = "2026-04-30 13:10:11 +0000";
layers = (
{
background = {
anchors = (
{
name = ogonek;
pos = (480,0);
},
{
name = top;
pos = (375,900);
}
);
shapes = (
{
closed = 1;
nodes = (
(574,-10,o),
(735,151,o),
(735,350,cs),
(735,720,l),
(15,720,l),
(15,350,ls),
(15,151,o),
(176,-10,o),
(375,-10,cs)
);
},
{
closed = 1;
nodes = (
(485,720,o),
(525,760,o),
(525,810,cs),
(525,860,o),
(485,900,o),
(435,900,cs),
(315,900,ls),
(265,900,o),
(225,860,o),
(225,810,cs),
(225,760,o),
(265,720,o),
(315,720,cs),
(435,720,ls)
);
}
);
};
layerId = "76DA76B7-AE51-4169-AB0E-317D7E08960F";
shapes = (
{
ref = U;
},
{
pos = (375,180);
ref = ringcomb;
}
);
width = 750;
}
);
unicode = 366;
},
{
color = 11;
glyphname = V;
lastChange = "2026-04-30 13:10:06 +0000";
layers = (
{
background = {
shapes = (
{
closed = 1;
nodes = (
(574,0,o),
(735,161,o),
(735,360,cs),
(735,720,l),
(15,720,l),
(15,0,l),
(375,0,ls)
);
}
);
};
layerId = "76DA76B7-AE51-4169-AB0E-317D7E08960F";
shapes = (
{
closed = 1;
nodes = (
(574,0,o),
(735,161,o),
(735,360,cs),
(735,720,l),
(15,720,l),
(15,0,l),
(375,0,ls)
);
}
);
width = 750;
}
);
unicode = 86;
},
{
color = 11;
glyphname = W;
lastChange = "2026-04-30 13:10:06 +0000";
layers = (
{
anchors = (
{
name = top;
pos = (375,720);
}
);
background = {
anchors = (
{
name = top;
pos = (375,720);
}
);
shapes = (
{
closed = 1;
nodes = (
(317,0,o),
(375,58,o),
(375,130,c),
(375,58,o),
(433,0,o),
(505,0,cs),
(735,0,l),
(735,720,l),
(15,720,l),
(15,0,l),
(245,0,ls)
);
}
);
};
layerId = "76DA76B7-AE51-4169-AB0E-317D7E08960F";
shapes = (
{
closed = 1;
nodes = (
(317,0,o),
(375,58,o),
(375,130,c),
(375,58,o),
(433,0,o),
(505,0,cs),
(735,0,l),
(735,720,l),
(15,720,l),
(15,0,l),
(245,0,ls)
);
}
);
width = 750;
}
);
unicode = 87;
},
{
glyphname = Wacute;
lastChange = "2026-04-30 13:10:11 +0000";
layers = (
{
background = {
anchors = (
{
name = top;
pos = (375,900);
}
);
shapes = (
{
closed = 1;
nodes = (
(317,0,o),
(375,58,o),
(375,130,c),
(375,58,o),
(433,0,o),
(505,0,cs),
(735,0,l),
(735,720,l),
(15,720,l),
(15,0,l),
(245,0,ls)
);
},
{
closed = 1;
nodes = (
(519,720,o),
(600,801,o),
(600,900,c),
(240,900,l),
(240,850,o),
(200,810,o),
(150,810,c),
(150,720,l),
(420,720,ls)
);
}
);
};
layerId = "76DA76B7-AE51-4169-AB0E-317D7E08960F";
shapes = (
{
ref = W;
},
{
pos = (375,180);
ref = acutecomb;
}
);
width = 750;
}
);
unicode = 7810;
},
{
glyphname = Wcircumflex;
lastChange = "2026-04-30 13:10:11 +0000";
layers = (
{
background = {
anchors = (
{
name = top;
pos = (375,900);
}
);
shapes = (
{
closed = 1;
nodes = (
(317,0,o),
(375,58,o),
(375,130,c),
(375,58,o),
(433,0,o),
(505,0,cs),
(735,0,l),
(735,720,l),
(15,720,l),
(15,0,l),
(245,0,ls)
);
},
{
closed = 1;
nodes = (
(335,720,o),
(375,760,o),
(375,810,c),
(375,760,o),
(415,720,o),
(465,720,cs),
(645,720,l),
(645,810,l),
(595,810,o),
(555,850,o),
(555,900,c),
(195,900,l),
(195,850,o),
(155,810,o),
(105,810,c),
(105,720,l),
(285,720,ls)
);
}
);
};
layerId = "76DA76B7-AE51-4169-AB0E-317D7E08960F";
shapes = (
{
ref = W;
},
{
pos = (375,180);
ref = circumflexcomb;
}
);
width = 750;
}
);
unicode = 372;
},
{
glyphname = Wdieresis;
lastChange = "2026-04-30 13:16:51 +0000";
layers = (
{
background = {
anchors = (
{
name = top;
pos = (375,900);
}
);
shapes = (
{
closed = 1;
nodes = (
(317,0,o),
(375,58,o),
(375,130,c),
(375,58,o),
(433,0,o),
(505,0,cs),
(735,0,l),
(735,720,l),
(15,720,l),
(15,0,l),
(245,0,ls)
);
},
{
closed = 1;
nodes = (
(360,900,l),
(130,900,l),
(130,780,ls),
(130,747,o),
(157,720,o),
(190,720,cs),
(360,720,l)
);
},
{
closed = 1;
nodes = (
(620,900,l),
(390,900,l),
(390,780,ls),
(390,747,o),
(417,720,o),
(450,720,cs),
(620,720,l)
);
}
);
};
layerId = "76DA76B7-AE51-4169-AB0E-317D7E08960F";
shapes = (
{
ref = W;
},
{
pos = (375,180);
ref = dieresiscomb;
}
);
width = 750;
}
);
unicode = 7812;
},
{
glyphname = Wgrave;
lastChange = "2026-04-30 13:10:11 +0000";
layers = (
{
background = {
anchors = (
{
name = top;
pos = (375,900);
}
);
shapes = (
{
closed = 1;
nodes = (
(317,0,o),
(375,58,o),
(375,130,c),
(375,58,o),
(433,0,o),
(505,0,cs),
(735,0,l),
(735,720,l),
(15,720,l),
(15,0,l),
(245,0,ls)
);
},
{
closed = 1;
nodes = (
(600,810,l),
(550,810,o),
(510,850,o),
(510,900,c),
(150,900,l),
(150,801,o),
(231,720,o),
(330,720,cs),
(600,720,l)
);
}
);
};
layerId = "76DA76B7-AE51-4169-AB0E-317D7E08960F";
shapes = (
{
ref = W;
},
{
pos = (375,180);
ref = gravecomb;
}
);
width = 750;
}
);
unicode = 7808;
},
{
color = 11;
glyphname = X;
lastChange = "2026-04-30 13:10:06 +0000";
layers = (
{
background = {
shapes = (
{
closed = 1;
nodes = (
(735,230,ls),
(735,302,o),
(677,360,o),
(605,360,c),
(677,360,o),
(735,418,o),
(735,490,cs),
(735,720,l),
(15,720,l),
(15,490,ls),
(15,418,o),
(73,360,o),
(145,360,c),
(73,360,o),
(15,302,o),
(15,230,cs),
(15,0,l),
(735,0,l)
);
}
);
};
layerId = "76DA76B7-AE51-4169-AB0E-317D7E08960F";
shapes = (
{
closed = 1;
nodes = (
(735,230,ls),
(735,302,o),
(677,360,o),
(605,360,c),
(677,360,o),
(735,418,o),
(735,490,cs),
(735,720,l),
(15,720,l),
(15,490,ls),
(15,418,o),
(73,360,o),
(145,360,c),
(73,360,o),
(15,302,o),
(15,230,cs),
(15,0,l),
(735,0,l)
);
}
);
width = 750;
}
);
unicode = 88;
},
{
color = 11;
glyphname = Y;
lastChange = "2026-04-30 13:10:06 +0000";
layers = (
{
anchors = (
{
name = top;
pos = (375,720);
}
);
background = {
anchors = (
{
name = top;
pos = (375,720);
}
);
shapes = (
{
closed = 1;
nodes = (
(660,240,l),
(701,240,o),
(735,274,o),
(735,315,cs),
(735,720,l),
(15,720,l),
(15,315,ls),
(15,274,o),
(49,240,o),
(90,240,c),
(90,0,l),
(660,0,l)
);
}
);
};
layerId = "76DA76B7-AE51-4169-AB0E-317D7E08960F";
shapes = (
{
closed = 1;
nodes = (
(660,240,l),
(701,240,o),
(735,274,o),
(735,315,cs),
(735,720,l),
(15,720,l),
(15,315,ls),
(15,274,o),
(49,240,o),
(90,240,c),
(90,0,l),
(660,0,l)
);
}
);
width = 750;
}
);
unicode = 89;
},
{
glyphname = Yacute;
lastChange = "2026-04-30 13:10:11 +0000";
layers = (
{
background = {
anchors = (
{
name = top;
pos = (375,900);
}
);
shapes = (
{
closed = 1;
nodes = (
(660,240,l),
(701,240,o),
(735,274,o),
(735,315,cs),
(735,720,l),
(15,720,l),
(15,315,ls),
(15,274,o),
(49,240,o),
(90,240,c),
(90,0,l),
(660,0,l)
);
},
{
closed = 1;
nodes = (
(519,720,o),
(600,801,o),
(600,900,c),
(240,900,l),
(240,850,o),
(200,810,o),
(150,810,c),
(150,720,l),
(420,720,ls)
);
}
);
};
layerId = "76DA76B7-AE51-4169-AB0E-317D7E08960F";
shapes = (
{
ref = Y;
},
{
pos = (375,180);
ref = acutecomb;
}
);
width = 750;
}
);
unicode = 221;
},
{
glyphname = Ycircumflex;
lastChange = "2026-04-30 13:10:11 +0000";
layers = (
{
background = {
anchors = (
{
name = top;
pos = (375,900);
}
);
shapes = (
{
closed = 1;
nodes = (
(660,240,l),
(701,240,o),
(735,274,o),
(735,315,cs),
(735,720,l),
(15,720,l),
(15,315,ls),
(15,274,o),
(49,240,o),
(90,240,c),
(90,0,l),
(660,0,l)
);
},
{
closed = 1;
nodes = (
(335,720,o),
(375,760,o),
(375,810,c),
(375,760,o),
(415,720,o),
(465,720,cs),
(645,720,l),
(645,810,l),
(595,810,o),
(555,850,o),
(555,900,c),
(195,900,l),
(195,850,o),
(155,810,o),
(105,810,c),
(105,720,l),
(285,720,ls)
);
}
);
};
layerId = "76DA76B7-AE51-4169-AB0E-317D7E08960F";
shapes = (
{
ref = Y;
},
{
pos = (375,180);
ref = circumflexcomb;
}
);
width = 750;
}
);
unicode = 374;
},
{
glyphname = Ydieresis;
lastChange = "2026-04-30 13:16:51 +0000";
layers = (
{
background = {
anchors = (
{
name = top;
pos = (375,900);
}
);
shapes = (
{
closed = 1;
nodes = (
(660,240,l),
(701,240,o),
(735,274,o),
(735,315,cs),
(735,720,l),
(15,720,l),
(15,315,ls),
(15,274,o),
(49,240,o),
(90,240,c),
(90,0,l),
(660,0,l)
);
},
{
closed = 1;
nodes = (
(360,900,l),
(130,900,l),
(130,780,ls),
(130,747,o),
(157,720,o),
(190,720,cs),
(360,720,l)
);
},
{
closed = 1;
nodes = (
(620,900,l),
(390,900,l),
(390,780,ls),
(390,747,o),
(417,720,o),
(450,720,cs),
(620,720,l)
);
}
);
};
layerId = "76DA76B7-AE51-4169-AB0E-317D7E08960F";
shapes = (
{
ref = Y;
},
{
pos = (375,180);
ref = dieresiscomb;
}
);
width = 750;
}
);
unicode = 376;
},
{
glyphname = Ygrave;
lastChange = "2026-04-30 13:10:11 +0000";
layers = (
{
background = {
anchors = (
{
name = top;
pos = (375,900);
}
);
shapes = (
{
closed = 1;
nodes = (
(660,240,l),
(701,240,o),
(735,274,o),
(735,315,cs),
(735,720,l),
(15,720,l),
(15,315,ls),
(15,274,o),
(49,240,o),
(90,240,c),
(90,0,l),
(660,0,l)
);
},
{
closed = 1;
nodes = (
(600,810,l),
(550,810,o),
(510,850,o),
(510,900,c),
(150,900,l),
(150,801,o),
(231,720,o),
(330,720,cs),
(600,720,l)
);
}
);
};
layerId = "76DA76B7-AE51-4169-AB0E-317D7E08960F";
shapes = (
{
ref = Y;
},
{
pos = (375,180);
ref = gravecomb;
}
);
width = 750;
}
);
unicode = 7922;
},
{
color = 11;
glyphname = Z;
lastChange = "2026-04-30 13:10:06 +0000";
layers = (
{
anchors = (
{
name = top;
pos = (375,720);
}
);
background = {
anchors = (
{
name = top;
pos = (375,720);
}
);
shapes = (
{
closed = 1;
nodes = (
(735,360,l),
(595,360,ls),
(672,360,o),
(735,423,o),
(735,500,cs),
(735,720,l),
(15,720,l),
(15,360,l),
(155,360,ls),
(78,360,o),
(15,297,o),
(15,220,cs),
(15,0,l),
(735,0,l)
);
}
);
};
layerId = "76DA76B7-AE51-4169-AB0E-317D7E08960F";
shapes = (
{
closed = 1;
nodes = (
(735,360,l),
(595,360,ls),
(672,360,o),
(735,423,o),
(735,500,cs),
(735,720,l),
(15,720,l),
(15,360,l),
(155,360,ls),
(78,360,o),
(15,297,o),
(15,220,cs),
(15,0,l),
(735,0,l)
);
}
);
width = 750;
}
);
unicode = 90;
},
{
glyphname = Zacute;
lastChange = "2026-04-30 13:10:11 +0000";
layers = (
{
background = {
anchors = (
{
name = top;
pos = (375,900);
}
);
shapes = (
{
closed = 1;
nodes = (
(735,360,l),
(595,360,ls),
(672,360,o),
(735,423,o),
(735,500,cs),
(735,720,l),
(15,720,l),
(15,360,l),
(155,360,ls),
(78,360,o),
(15,297,o),
(15,220,cs),
(15,0,l),
(735,0,l)
);
},
{
closed = 1;
nodes = (
(519,720,o),
(600,801,o),
(600,900,c),
(240,900,l),
(240,850,o),
(200,810,o),
(150,810,c),
(150,720,l),
(420,720,ls)
);
}
);
};
layerId = "76DA76B7-AE51-4169-AB0E-317D7E08960F";
shapes = (
{
ref = Z;
},
{
pos = (375,180);
ref = acutecomb;
}
);
width = 750;
}
);
unicode = 377;
},
{
glyphname = Zcaron;
lastChange = "2026-04-30 13:10:11 +0000";
layers = (
{
background = {
anchors = (
{
name = top;
pos = (375,900);
}
);
shapes = (
{
closed = 1;
nodes = (
(735,360,l),
(595,360,ls),
(672,360,o),
(735,423,o),
(735,500,cs),
(735,720,l),
(15,720,l),
(15,360,l),
(155,360,ls),
(78,360,o),
(15,297,o),
(15,220,cs),
(15,0,l),
(735,0,l)
);
},
{
closed = 1;
nodes = (
(555,770,o),
(595,810,o),
(645,810,c),
(645,900,l),
(465,900,ls),
(415,900,o),
(375,860,o),
(375,810,c),
(375,860,o),
(335,900,o),
(285,900,cs),
(105,900,l),
(105,810,l),
(155,810,o),
(195,770,o),
(195,720,c),
(555,720,l)
);
}
);
};
layerId = "76DA76B7-AE51-4169-AB0E-317D7E08960F";
shapes = (
{
ref = Z;
},
{
pos = (375,180);
ref = caroncomb;
}
);
width = 750;
}
);
unicode = 381;
},
{
glyphname = Zdotaccent;
lastChange = "2026-04-30 13:10:11 +0000";
layers = (
{
background = {
anchors = (
{
name = top;
pos = (375,900);
}
);
shapes = (
{
closed = 1;
nodes = (
(735,360,l),
(595,360,ls),
(672,360,o),
(735,423,o),
(735,500,cs),
(735,720,l),
(15,720,l),
(15,360,l),
(155,360,ls),
(78,360,o),
(15,297,o),
(15,220,cs),
(15,0,l),
(735,0,l)
);
},
{
closed = 1;
nodes = (
(495,900,l),
(255,900,l),
(255,780,ls),
(255,747,o),
(282,720,o),
(315,720,cs),
(495,720,l)
);
}
);
};
layerId = "76DA76B7-AE51-4169-AB0E-317D7E08960F";
shapes = (
{
ref = Z;
},
{
pos = (375,180);
ref = dotaccentcomb;
}
);
width = 750;
}
);
unicode = 379;
},
{
color = 11;
glyphname = a;
lastChange = "2026-04-30 13:10:06 +0000";
layers = (
{
anchors = (
{
name = ogonek;
pos = (480,0);
},
{
name = top;
pos = (405,540);
}
);
background = {
anchors = (
{
name = ogonek;
pos = (480,0);
},
{
name = top;
pos = (405,540);
}
);
shapes = (
{
closed = 1;
nodes = (
(735,270,ls),
(735,419,o),
(614,540,o),
(465,540,cs),
(135,540,l),
(135,360,l),
(65,333,o),
(15,265,o),
(15,186,cs),
(15,83,o),
(98,0,o),
(201,0,cs),
(735,0,l)
);
}
);
};
layerId = "76DA76B7-AE51-4169-AB0E-317D7E08960F";
shapes = (
{
closed = 1;
nodes = (
(735,270,ls),
(735,419,o),
(614,540,o),
(465,540,cs),
(135,540,l),
(135,360,l),
(65,333,o),
(15,265,o),
(15,186,cs),
(15,83,o),
(98,0,o),
(201,0,cs),
(735,0,l)
);
}
);
width = 750;
}
);
unicode = 97;
},
{
glyphname = aacute;
lastChange = "2026-04-30 13:10:11 +0000";
layers = (
{
background = {
anchors = (
{
name = ogonek;
pos = (480,0);
},
{
name = top;
pos = (405,720);
}
);
shapes = (
{
closed = 1;
nodes = (
(735,270,ls),
(735,419,o),
(614,540,o),
(465,540,cs),
(135,540,l),
(135,360,l),
(65,333,o),
(15,265,o),
(15,186,cs),
(15,83,o),
(98,0,o),
(201,0,cs),
(735,0,l)
);
},
{
closed = 1;
nodes = (
(549,540,o),
(630,621,o),
(630,720,c),
(270,720,l),
(270,670,o),
(230,630,o),
(180,630,c),
(180,540,l),
(450,540,ls)
);
}
);
};
layerId = "76DA76B7-AE51-4169-AB0E-317D7E08960F";
shapes = (
{
ref = a;
},
{
pos = (405,0);
ref = acutecomb;
}
);
width = 750;
}
);
unicode = 225;
},
{
glyphname = abreve;
lastChange = "2026-04-30 13:10:11 +0000";
layers = (
{
background = {
anchors = (
{
name = ogonek;
pos = (480,0);
},
{
name = top;
pos = (405,720);
}
);
shapes = (
{
closed = 1;
nodes = (
(735,270,ls),
(735,419,o),
(614,540,o),
(465,540,cs),
(135,540,l),
(135,360,l),
(65,333,o),
(15,265,o),
(15,186,cs),
(15,83,o),
(98,0,o),
(201,0,cs),
(735,0,l)
);
},
{
closed = 1;
nodes = (
(450,540,ls),
(549,540,o),
(630,621,o),
(630,720,c),
(445,720,l),
(445,698,o),
(427,680,o),
(405,680,cs),
(383,680,o),
(365,698,o),
(365,720,c),
(180,720,l),
(180,621,o),
(261,540,o),
(360,540,cs)
);
}
);
};
layerId = "76DA76B7-AE51-4169-AB0E-317D7E08960F";
shapes = (
{
ref = a;
},
{
pos = (405,0);
ref = brevecomb;
}
);
width = 750;
}
);
unicode = 259;
},
{
glyphname = acircumflex;
lastChange = "2026-04-30 13:10:11 +0000";
layers = (
{
background = {
anchors = (
{
name = ogonek;
pos = (480,0);
},
{
name = top;
pos = (405,720);
}
);
shapes = (
{
closed = 1;
nodes = (
(735,270,ls),
(735,419,o),
(614,540,o),
(465,540,cs),
(135,540,l),
(135,360,l),
(65,333,o),
(15,265,o),
(15,186,cs),
(15,83,o),
(98,0,o),
(201,0,cs),
(735,0,l)
);
},
{
closed = 1;
nodes = (
(365,540,o),
(405,580,o),
(405,630,c),
(405,580,o),
(445,540,o),
(495,540,cs),
(675,540,l),
(675,630,l),
(625,630,o),
(585,670,o),
(585,720,c),
(225,720,l),
(225,670,o),
(185,630,o),
(135,630,c),
(135,540,l),
(315,540,ls)
);
}
);
};
layerId = "76DA76B7-AE51-4169-AB0E-317D7E08960F";
shapes = (
{
ref = a;
},
{
pos = (405,0);
ref = circumflexcomb;
}
);
width = 750;
}
);
unicode = 226;
},
{
glyphname = adieresis;
lastChange = "2026-04-30 13:10:11 +0000";
layers = (
{
background = {
anchors = (
{
name = ogonek;
pos = (480,0);
},
{
name = top;
pos = (405,720);
}
);
shapes = (
{
closed = 1;
nodes = (
(735,270,ls),
(735,419,o),
(614,540,o),
(465,540,cs),
(135,540,l),
(135,360,l),
(65,333,o),
(15,265,o),
(15,186,cs),
(15,83,o),
(98,0,o),
(201,0,cs),
(735,0,l)
);
},
{
closed = 1;
nodes = (
(390,720,l),
(160,720,l),
(160,600,ls),
(160,567,o),
(187,540,o),
(220,540,cs),
(390,540,l)
);
},
{
closed = 1;
nodes = (
(650,720,l),
(420,720,l),
(420,600,ls),
(420,567,o),
(447,540,o),
(480,540,cs),
(650,540,l)
);
}
);
};
layerId = "76DA76B7-AE51-4169-AB0E-317D7E08960F";
shapes = (
{
ref = a;
},
{
pos = (405,0);
ref = dieresiscomb;
}
);
width = 750;
}
);
unicode = 228;
},
{
glyphname = agrave;
lastChange = "2026-04-30 13:10:11 +0000";
layers = (
{
background = {
anchors = (
{
name = ogonek;
pos = (480,0);
},
{
name = top;
pos = (405,720);
}
);
shapes = (
{
closed = 1;
nodes = (
(735,270,ls),
(735,419,o),
(614,540,o),
(465,540,cs),
(135,540,l),
(135,360,l),
(65,333,o),
(15,265,o),
(15,186,cs),
(15,83,o),
(98,0,o),
(201,0,cs),
(735,0,l)
);
},
{
closed = 1;
nodes = (
(630,630,l),
(580,630,o),
(540,670,o),
(540,720,c),
(180,720,l),
(180,621,o),
(261,540,o),
(360,540,cs),
(630,540,l)
);
}
);
};
layerId = "76DA76B7-AE51-4169-AB0E-317D7E08960F";
shapes = (
{
ref = a;
},
{
pos = (405,0);
ref = gravecomb;
}
);
width = 750;
}
);
unicode = 224;
},
{
glyphname = amacron;
lastChange = "2026-04-30 13:10:11 +0000";
layers = (
{
background = {
anchors = (
{
name = ogonek;
pos = (480,0);
},
{
name = top;
pos = (405,720);
}
);
shapes = (
{
closed = 1;
nodes = (
(735,270,ls),
(735,419,o),
(614,540,o),
(465,540,cs),
(135,540,l),
(135,360,l),
(65,333,o),
(15,265,o),
(15,186,cs),
(15,83,o),
(98,0,o),
(201,0,cs),
(735,0,l)
);
},
{
closed = 1;
nodes = (
(675,720,l),
(135,720,l),
(135,600,ls),
(135,567,o),
(162,540,o),
(195,540,cs),
(675,540,l)
);
}
);
};
layerId = "76DA76B7-AE51-4169-AB0E-317D7E08960F";
shapes = (
{
ref = a;
},
{
pos = (405,0);
ref = macroncomb;
}
);
width = 750;
}
);
unicode = 257;
},
{
glyphname = aogonek;
lastChange = "2026-04-30 13:13:29 +0000";
layers = (
{
anchors = (
{
name = top;
pos = (375,540);
}
);
background = {
anchors = (
{
name = ogonek;
pos = (480,0);
},
{
name = top;
pos = (405,540);
}
);
shapes = (
{
closed = 1;
nodes = (
(735,270,ls),
(735,419,o),
(614,540,o),
(465,540,cs),
(135,540,l),
(135,360,l),
(65,333,o),
(15,265,o),
(15,186,cs),
(15,83,o),
(98,0,o),
(201,0,cs),
(735,0,l)
);
},
{
closed = 1;
nodes = (
(735,-30,l),
(555,-30,l),
(555,120,l),
(405,120,l),
(405,-60,ls),
(405,-126,o),
(459,-180,o),
(525,-180,cs),
(735,-180,l)
);
}
);
};
layerId = "76DA76B7-AE51-4169-AB0E-317D7E08960F";
shapes = (
{
ref = a;
},
{
pos = (570,-1);
ref = ogonekcomb;
}
);
width = 750;
}
);
unicode = 261;
},
{
glyphname = aring;
lastChange = "2026-04-30 13:10:11 +0000";
layers = (
{
background = {
anchors = (
{
name = ogonek;
pos = (480,0);
},
{
name = top;
pos = (405,720);
}
);
shapes = (
{
closed = 1;
nodes = (
(735,270,ls),
(735,419,o),
(614,540,o),
(465,540,cs),
(135,540,l),
(135,360,l),
(65,333,o),
(15,265,o),
(15,186,cs),
(15,83,o),
(98,0,o),
(201,0,cs),
(735,0,l)
);
},
{
closed = 1;
nodes = (
(515,540,o),
(555,580,o),
(555,630,cs),
(555,680,o),
(515,720,o),
(465,720,cs),
(345,720,ls),
(295,720,o),
(255,680,o),
(255,630,cs),
(255,580,o),
(295,540,o),
(345,540,cs),
(465,540,ls)
);
}
);
};
layerId = "76DA76B7-AE51-4169-AB0E-317D7E08960F";
shapes = (
{
ref = a;
},
{
pos = (405,0);
ref = ringcomb;
}
);
width = 750;
}
);
unicode = 229;
},
{
glyphname = atilde;
lastChange = "2026-04-30 13:10:11 +0000";
layers = (
{
background = {
anchors = (
{
name = ogonek;
pos = (480,0);
},
{
name = top;
pos = (405,720);
}
);
shapes = (
{
closed = 1;
nodes = (
(735,270,ls),
(735,419,o),
(614,540,o),
(465,540,cs),
(135,540,l),
(135,360,l),
(65,333,o),
(15,265,o),
(15,186,cs),
(15,83,o),
(98,0,o),
(201,0,cs),
(735,0,l)
);
},
{
closed = 1;
nodes = (
(582,540,o),
(630,588,o),
(630,648,cs),
(630,720,l),
(540,720,l),
(523,683,o),
(485,657,o),
(441,657,cs),
(414,657,o),
(386,667,o),
(365,688,cs),
(345,708,o),
(318,720,o),
(288,720,cs),
(228,720,o),
(180,672,o),
(180,612,cs),
(180,540,l),
(522,540,ls)
);
}
);
};
layerId = "76DA76B7-AE51-4169-AB0E-317D7E08960F";
shapes = (
{
ref = a;
},
{
pos = (405,0);
ref = tildecomb;
}
);
width = 750;
}
);
unicode = 227;
},
{
glyphname = ae;
lastChange = "2026-04-30 13:10:11 +0000";
layers = (
{
anchors = (
{
name = bottom;
pos = (555,0);
},
{
name = top;
pos = (555,540);
}
);
background = {
anchors = (
{
name = top;
pos = (555,540);
}
);
shapes = (
{
closed = 1;
nodes = (
(1095,480,o),
(1035,540,o),
(960,540,cs),
(765,540,ls),
(680,540,o),
(604,501,o),
(555,440,c),
(506,501,o),
(430,540,o),
(345,540,cs),
(135,540,l),
(135,360,l),
(65,333,o),
(15,265,o),
(15,186,cs),
(15,83,o),
(98,0,o),
(201,0,cs),
(615,0,l),
(615,45,l),
(658,17,o),
(709,0,o),
(765,0,cs),
(1095,0,l),
(1095,270,l),
(960,270,ls),
(1035,270,o),
(1095,330,o),
(1095,405,cs)
);
}
);
};
layerId = "76DA76B7-AE51-4169-AB0E-317D7E08960F";
shapes = (
{
closed = 1;
nodes = (
(1095,480,o),
(1035,540,o),
(960,540,cs),
(765,540,ls),
(680,540,o),
(604,501,o),
(555,440,c),
(506,501,o),
(430,540,o),
(345,540,cs),
(135,540,l),
(135,360,l),
(65,333,o),
(15,265,o),
(15,186,cs),
(15,83,o),
(98,0,o),
(201,0,cs),
(615,0,l),
(615,45,l),
(658,17,o),
(709,0,o),
(765,0,cs),
(1095,0,l),
(1095,270,l),
(960,270,ls),
(1035,270,o),
(1095,330,o),
(1095,405,cs)
);
}
);
width = 1110;
}
);
unicode = 230;
},
{
color = 11;
glyphname = b;
lastChange = "2026-04-30 13:10:06 +0000";
layers = (
{
background = {
shapes = (
{
closed = 1;
nodes = (
(610,0,o),
(735,125,o),
(735,279,cs),
(735,398,o),
(660,500,o),
(555,540,c),
(555,720,l),
(15,720,l),
(15,0,l),
(456,0,ls)
);
}
);
};
layerId = "76DA76B7-AE51-4169-AB0E-317D7E08960F";
shapes = (
{
closed = 1;
nodes = (
(610,0,o),
(735,125,o),
(735,279,cs),
(735,398,o),
(660,500,o),
(555,540,c),
(555,720,l),
(15,720,l),
(15,0,l),
(456,0,ls)
);
}
);
width = 750;
}
);
unicode = 98;
},
{
color = 11;
glyphname = c;
lastChange = "2026-04-30 13:10:06 +0000";
layers = (
{
anchors = (
{
name = bottom;
pos = (415,0);
},
{
name = top;
pos = (415,540);
}
);
background = {
anchors = (
{
name = bottom;
pos = (415,0);
},
{
name = top;
pos = (415,540);
}
);
shapes = (
{
closed = 1;
nodes = (
(735,540,l),
(285,540,ls),
(136,540,o),
(15,419,o),
(15,270,cs),
(15,121,o),
(136,0,o),
(285,0,cs),
(735,0,l)
);
}
);
};
layerId = "76DA76B7-AE51-4169-AB0E-317D7E08960F";
shapes = (
{
closed = 1;
nodes = (
(735,540,l),
(285,540,ls),
(136,540,o),
(15,419,o),
(15,270,cs),
(15,121,o),
(136,0,o),
(285,0,cs),
(735,0,l)
);
}
);
width = 750;
}
);
unicode = 99;
},
{
glyphname = cacute;
lastChange = "2026-04-30 13:10:11 +0000";
layers = (
{
background = {
anchors = (
{
name = bottom;
pos = (415,0);
},
{
name = top;
pos = (415,720);
}
);
shapes = (
{
closed = 1;
nodes = (
(735,540,l),
(285,540,ls),
(136,540,o),
(15,419,o),
(15,270,cs),
(15,121,o),
(136,0,o),
(285,0,cs),
(735,0,l)
);
},
{
closed = 1;
nodes = (
(559,540,o),
(640,621,o),
(640,720,c),
(280,720,l),
(280,670,o),
(240,630,o),
(190,630,c),
(190,540,l),
(460,540,ls)
);
}
);
};
layerId = "76DA76B7-AE51-4169-AB0E-317D7E08960F";
shapes = (
{
ref = c;
},
{
pos = (415,0);
ref = acutecomb;
}
);
width = 750;
}
);
unicode = 263;
},
{
glyphname = ccaron;
lastChange = "2026-04-30 13:10:11 +0000";
layers = (
{
background = {
anchors = (
{
name = bottom;
pos = (415,0);
},
{
name = top;
pos = (415,720);
}
);
shapes = (
{
closed = 1;
nodes = (
(735,540,l),
(285,540,ls),
(136,540,o),
(15,419,o),
(15,270,cs),
(15,121,o),
(136,0,o),
(285,0,cs),
(735,0,l)
);
},
{
closed = 1;
nodes = (
(595,590,o),
(635,630,o),
(685,630,c),
(685,720,l),
(505,720,ls),
(455,720,o),
(415,680,o),
(415,630,c),
(415,680,o),
(375,720,o),
(325,720,cs),
(145,720,l),
(145,630,l),
(195,630,o),
(235,590,o),
(235,540,c),
(595,540,l)
);
}
);
};
layerId = "76DA76B7-AE51-4169-AB0E-317D7E08960F";
shapes = (
{
ref = c;
},
{
pos = (415,0);
ref = caroncomb;
}
);
width = 750;
}
);
unicode = 269;
},
{
glyphname = ccedilla;
lastChange = "2026-04-30 13:10:11 +0000";
layers = (
{
background = {
anchors = (
{
name = bottom;
pos = (415,-180);
},
{
name = top;
pos = (415,540);
}
);
shapes = (
{
closed = 1;
nodes = (
(735,540,l),
(285,540,ls),
(136,540,o),
(15,419,o),
(15,270,cs),
(15,121,o),
(136,0,o),
(285,0,cs),
(735,0,l)
);
},
{
closed = 1;
nodes = (
(540,-180,o),
(580,-140,o),
(580,-90,cs),
(580,-40,o),
(540,0,o),
(490,0,c),
(490,120,l),
(340,120,l),
(340,-30,l),
(250,-30,l),
(250,-180,l),
(490,-180,ls)
);
}
);
};
layerId = "76DA76B7-AE51-4169-AB0E-317D7E08960F";
shapes = (
{
ref = c;
},
{
pos = (415,0);
ref = cedillacomb;
}
);
width = 750;
}
);
unicode = 231;
},
{
glyphname = cdotaccent;
lastChange = "2026-04-30 13:10:11 +0000";
layers = (
{
background = {
anchors = (
{
name = bottom;
pos = (415,0);
},
{
name = top;
pos = (415,720);
}
);
shapes = (
{
closed = 1;
nodes = (
(735,540,l),
(285,540,ls),
(136,540,o),
(15,419,o),
(15,270,cs),
(15,121,o),
(136,0,o),
(285,0,cs),
(735,0,l)
);
},
{
closed = 1;
nodes = (
(535,720,l),
(295,720,l),
(295,600,ls),
(295,567,o),
(322,540,o),
(355,540,cs),
(535,540,l)
);
}
);
};
layerId = "76DA76B7-AE51-4169-AB0E-317D7E08960F";
shapes = (
{
ref = c;
},
{
pos = (415,0);
ref = dotaccentcomb;
}
);
width = 750;
}
);
unicode = 267;
},
{
color = 11;
glyphname = d;
lastChange = "2026-04-30 13:10:06 +0000";
layers = (
{
anchors = (
{
name = center;
pos = (405,570);
},
{
name = topright;
pos = (735,720);
}
);
background = {
anchors = (
{
name = center;
pos = (405,570);
},
{
name = topright;
pos = (735,720);
}
);
shapes = (
{
closed = 1;
nodes = (
(735,720,l),
(195,720,l),
(195,540,l),
(90,500,o),
(15,398,o),
(15,279,cs),
(15,125,o),
(140,0,o),
(294,0,cs),
(735,0,l)
);
}
);
};
layerId = "76DA76B7-AE51-4169-AB0E-317D7E08960F";
shapes = (
{
closed = 1;
nodes = (
(735,720,l),
(195,720,l),
(195,540,l),
(90,500,o),
(15,398,o),
(15,279,cs),
(15,125,o),
(140,0,o),
(294,0,cs),
(735,0,l)
);
}
);
width = 750;
}
);
unicode = 100;
},
{
glyphname = eth;
lastChange = "2026-04-30 13:10:11 +0000";
layers = (
{
anchors = (
{
name = bottom;
pos = (375,0);
},
{
name = top;
pos = (375,900);
}
);
background = {
shapes = (
{
closed = 1;
nodes = (
(583,-10,o),
(735,142,o),
(735,330,cs),
(735,390,ls),
(735,444,o),
(722,495,o),
(700,540,c),
(735,540,l),
(735,720,l),
(585,720,ls),
(558,720,o),
(533,708,o),
(517,689,c),
(462,715,o),
(400,730,o),
(335,730,c),
(335,680,l),
(75,680,l),
(75,500,l),
(135,500,l),
(63,449,o),
(15,365,o),
(15,270,cs),
(15,115,o),
(140,-10,o),
(295,-10,cs),
(395,-10,ls)
);
}
);
};
layerId = "76DA76B7-AE51-4169-AB0E-317D7E08960F";
shapes = (
{
closed = 1;
nodes = (
(583,-10,o),
(735,142,o),
(735,330,cs),
(735,390,ls),
(735,444,o),
(722,495,o),
(700,540,c),
(735,540,l),
(735,720,l),
(585,720,ls),
(558,720,o),
(533,708,o),
(517,689,c),
(462,715,o),
(400,730,o),
(335,730,c),
(335,680,l),
(75,680,l),
(75,500,l),
(135,500,l),
(63,449,o),
(15,365,o),
(15,270,cs),
(15,115,o),
(140,-10,o),
(295,-10,cs),
(395,-10,ls)
);
}
);
width = 750;
}
);
unicode = 240;
},
{
color = 11;
glyphname = e;
lastChange = "2026-04-30 13:10:06 +0000";
layers = (
{
anchors = (
{
name = bottom;
pos = (395,0);
},
{
name = ogonek;
pos = (480,0);
},
{
name = top;
pos = (395,540);
}
);
background = {
anchors = (
{
name = bottom;
pos = (395,0);
},
{
name = ogonek;
pos = (480,0);
},
{
name = top;
pos = (395,540);
}
);
shapes = (
{
closed = 1;
nodes = (
(735,270,l),
(600,270,ls),
(675,270,o),
(735,330,o),
(735,405,cs),
(735,480,o),
(675,540,o),
(600,540,cs),
(285,540,ls),
(136,540,o),
(15,419,o),
(15,270,cs),
(15,121,o),
(136,0,o),
(285,0,cs),
(735,0,l)
);
}
);
};
layerId = "76DA76B7-AE51-4169-AB0E-317D7E08960F";
shapes = (
{
closed = 1;
nodes = (
(735,270,l),
(600,270,ls),
(675,270,o),
(735,330,o),
(735,405,cs),
(735,480,o),
(675,540,o),
(600,540,cs),
(285,540,ls),
(136,540,o),
(15,419,o),
(15,270,cs),
(15,121,o),
(136,0,o),
(285,0,cs),
(735,0,l)
);
}
);
width = 750;
}
);
unicode = 101;
},
{
glyphname = eacute;
lastChange = "2026-04-30 13:10:11 +0000";
layers = (
{
background = {
anchors = (
{
name = bottom;
pos = (395,0);
},
{
name = ogonek;
pos = (480,0);
},
{
name = top;
pos = (395,720);
}
);
shapes = (
{
closed = 1;
nodes = (
(735,270,l),
(600,270,ls),
(675,270,o),
(735,330,o),
(735,405,cs),
(735,480,o),
(675,540,o),
(600,540,cs),
(285,540,ls),
(136,540,o),
(15,419,o),
(15,270,cs),
(15,121,o),
(136,0,o),
(285,0,cs),
(735,0,l)
);
},
{
closed = 1;
nodes = (
(539,540,o),
(620,621,o),
(620,720,c),
(260,720,l),
(260,670,o),
(220,630,o),
(170,630,c),
(170,540,l),
(440,540,ls)
);
}
);
};
layerId = "76DA76B7-AE51-4169-AB0E-317D7E08960F";
shapes = (
{
ref = e;
},
{
pos = (395,0);
ref = acutecomb;
}
);
width = 750;
}
);
unicode = 233;
},
{
glyphname = ecaron;
lastChange = "2026-04-30 13:10:11 +0000";
layers = (
{
background = {
anchors = (
{
name = bottom;
pos = (395,0);
},
{
name = ogonek;
pos = (480,0);
},
{
name = top;
pos = (395,720);
}
);
shapes = (
{
closed = 1;
nodes = (
(735,270,l),
(600,270,ls),
(675,270,o),
(735,330,o),
(735,405,cs),
(735,480,o),
(675,540,o),
(600,540,cs),
(285,540,ls),
(136,540,o),
(15,419,o),
(15,270,cs),
(15,121,o),
(136,0,o),
(285,0,cs),
(735,0,l)
);
},
{
closed = 1;
nodes = (
(575,590,o),
(615,630,o),
(665,630,c),
(665,720,l),
(485,720,ls),
(435,720,o),
(395,680,o),
(395,630,c),
(395,680,o),
(355,720,o),
(305,720,cs),
(125,720,l),
(125,630,l),
(175,630,o),
(215,590,o),
(215,540,c),
(575,540,l)
);
}
);
};
layerId = "76DA76B7-AE51-4169-AB0E-317D7E08960F";
shapes = (
{
ref = e;
},
{
pos = (395,0);
ref = caroncomb;
}
);
width = 750;
}
);
unicode = 283;
},
{
glyphname = ecircumflex;
lastChange = "2026-04-30 13:10:11 +0000";
layers = (
{
background = {
anchors = (
{
name = bottom;
pos = (395,0);
},
{
name = ogonek;
pos = (480,0);
},
{
name = top;
pos = (395,720);
}
);
shapes = (
{
closed = 1;
nodes = (
(735,270,l),
(600,270,ls),
(675,270,o),
(735,330,o),
(735,405,cs),
(735,480,o),
(675,540,o),
(600,540,cs),
(285,540,ls),
(136,540,o),
(15,419,o),
(15,270,cs),
(15,121,o),
(136,0,o),
(285,0,cs),
(735,0,l)
);
},
{
closed = 1;
nodes = (
(355,540,o),
(395,580,o),
(395,630,c),
(395,580,o),
(435,540,o),
(485,540,cs),
(665,540,l),
(665,630,l),
(615,630,o),
(575,670,o),
(575,720,c),
(215,720,l),
(215,670,o),
(175,630,o),
(125,630,c),
(125,540,l),
(305,540,ls)
);
}
);
};
layerId = "76DA76B7-AE51-4169-AB0E-317D7E08960F";
shapes = (
{
ref = e;
},
{
pos = (395,0);
ref = circumflexcomb;
}
);
width = 750;
}
);
unicode = 234;
},
{
glyphname = edieresis;
lastChange = "2026-04-30 13:10:11 +0000";
layers = (
{
background = {
anchors = (
{
name = bottom;
pos = (395,0);
},
{
name = ogonek;
pos = (480,0);
},
{
name = top;
pos = (395,720);
}
);
shapes = (
{
closed = 1;
nodes = (
(735,270,l),
(600,270,ls),
(675,270,o),
(735,330,o),
(735,405,cs),
(735,480,o),
(675,540,o),
(600,540,cs),
(285,540,ls),
(136,540,o),
(15,419,o),
(15,270,cs),
(15,121,o),
(136,0,o),
(285,0,cs),
(735,0,l)
);
},
{
closed = 1;
nodes = (
(380,720,l),
(150,720,l),
(150,600,ls),
(150,567,o),
(177,540,o),
(210,540,cs),
(380,540,l)
);
},
{
closed = 1;
nodes = (
(640,720,l),
(410,720,l),
(410,600,ls),
(410,567,o),
(437,540,o),
(470,540,cs),
(640,540,l)
);
}
);
};
layerId = "76DA76B7-AE51-4169-AB0E-317D7E08960F";
shapes = (
{
ref = e;
},
{
pos = (395,0);
ref = dieresiscomb;
}
);
width = 750;
}
);
unicode = 235;
},
{
glyphname = edotaccent;
lastChange = "2026-04-30 13:10:11 +0000";
layers = (
{
background = {
anchors = (
{
name = bottom;
pos = (395,0);
},
{
name = ogonek;
pos = (480,0);
},
{
name = top;
pos = (395,720);
}
);
shapes = (
{
closed = 1;
nodes = (
(735,270,l),
(600,270,ls),
(675,270,o),
(735,330,o),
(735,405,cs),
(735,480,o),
(675,540,o),
(600,540,cs),
(285,540,ls),
(136,540,o),
(15,419,o),
(15,270,cs),
(15,121,o),
(136,0,o),
(285,0,cs),
(735,0,l)
);
},
{
closed = 1;
nodes = (
(515,720,l),
(275,720,l),
(275,600,ls),
(275,567,o),
(302,540,o),
(335,540,cs),
(515,540,l)
);
}
);
};
layerId = "76DA76B7-AE51-4169-AB0E-317D7E08960F";
shapes = (
{
ref = e;
},
{
pos = (395,0);
ref = dotaccentcomb;
}
);
width = 750;
}
);
unicode = 279;
},
{
glyphname = egrave;
lastChange = "2026-04-30 13:10:11 +0000";
layers = (
{
background = {
anchors = (
{
name = bottom;
pos = (395,0);
},
{
name = ogonek;
pos = (480,0);
},
{
name = top;
pos = (395,720);
}
);
shapes = (
{
closed = 1;
nodes = (
(735,270,l),
(600,270,ls),
(675,270,o),
(735,330,o),
(735,405,cs),
(735,480,o),
(675,540,o),
(600,540,cs),
(285,540,ls),
(136,540,o),
(15,419,o),
(15,270,cs),
(15,121,o),
(136,0,o),
(285,0,cs),
(735,0,l)
);
},
{
closed = 1;
nodes = (
(620,630,l),
(570,630,o),
(530,670,o),
(530,720,c),
(170,720,l),
(170,621,o),
(251,540,o),
(350,540,cs),
(620,540,l)
);
}
);
};
layerId = "76DA76B7-AE51-4169-AB0E-317D7E08960F";
shapes = (
{
ref = e;
},
{
pos = (395,0);
ref = gravecomb;
}
);
width = 750;
}
);
unicode = 232;
},
{
glyphname = emacron;
lastChange = "2026-04-30 13:10:11 +0000";
layers = (
{
background = {
anchors = (
{
name = bottom;
pos = (395,0);
},
{
name = ogonek;
pos = (480,0);
},
{
name = top;
pos = (395,720);
}
);
shapes = (
{
closed = 1;
nodes = (
(735,270,l),
(600,270,ls),
(675,270,o),
(735,330,o),
(735,405,cs),
(735,480,o),
(675,540,o),
(600,540,cs),
(285,540,ls),
(136,540,o),
(15,419,o),
(15,270,cs),
(15,121,o),
(136,0,o),
(285,0,cs),
(735,0,l)
);
},
{
closed = 1;
nodes = (
(665,720,l),
(125,720,l),
(125,600,ls),
(125,567,o),
(152,540,o),
(185,540,cs),
(665,540,l)
);
}
);
};
layerId = "76DA76B7-AE51-4169-AB0E-317D7E08960F";
shapes = (
{
ref = e;
},
{
pos = (395,0);
ref = macroncomb;
}
);
width = 750;
}
);
unicode = 275;
},
{
glyphname = eogonek;
lastChange = "2026-04-30 13:13:29 +0000";
layers = (
{
anchors = (
{
name = top;
pos = (375,540);
}
);
background = {
anchors = (
{
name = bottom;
pos = (395,0);
},
{
name = ogonek;
pos = (480,0);
},
{
name = top;
pos = (395,540);
}
);
shapes = (
{
closed = 1;
nodes = (
(735,270,l),
(600,270,ls),
(675,270,o),
(735,330,o),
(735,405,cs),
(735,480,o),
(675,540,o),
(600,540,cs),
(285,540,ls),
(136,540,o),
(15,419,o),
(15,270,cs),
(15,121,o),
(136,0,o),
(285,0,cs),
(735,0,l)
);
},
{
closed = 1;
nodes = (
(735,-30,l),
(555,-30,l),
(555,120,l),
(405,120,l),
(405,-60,ls),
(405,-126,o),
(459,-180,o),
(525,-180,cs),
(735,-180,l)
);
}
);
};
layerId = "76DA76B7-AE51-4169-AB0E-317D7E08960F";
shapes = (
{
ref = e;
},
{
pos = (570,-1);
ref = ogonekcomb;
}
);
width = 750;
}
);
unicode = 281;
},
{
color = 11;
glyphname = f;
lastChange = "2026-04-30 13:10:06 +0000";
layers = (
{
background = {
shapes = (
{
closed = 1;
nodes = (
(645,360,l),
(735,360,l),
(735,720,l),
(285,720,ls),
(186,720,o),
(105,639,o),
(105,540,c),
(15,540,l),
(15,360,l),
(105,360,l),
(105,0,l),
(645,0,l)
);
}
);
};
layerId = "76DA76B7-AE51-4169-AB0E-317D7E08960F";
shapes = (
{
closed = 1;
nodes = (
(645,360,l),
(735,360,l),
(735,720,l),
(285,720,ls),
(186,720,o),
(105,639,o),
(105,540,c),
(15,540,l),
(15,360,l),
(105,360,l),
(105,0,l),
(645,0,l)
);
}
);
width = 750;
}
);
unicode = 102;
},
{
color = 11;
glyphname = g;
lastChange = "2026-04-30 13:10:06 +0000";
layers = (
{
anchors = (
{
name = top;
pos = (405,540);
}
);
background = {
anchors = (
{
name = top;
pos = (405,540);
}
);
shapes = (
{
closed = 1;
nodes = (
(654,-180,o),
(735,-99,o),
(735,0,cs),
(735,540,l),
(285,540,ls),
(136,540,o),
(15,419,o),
(15,270,cs),
(15,121,o),
(136,0,o),
(285,0,cs),
(15,0,l),
(15,-180,l),
(555,-180,ls)
);
}
);
};
layerId = "76DA76B7-AE51-4169-AB0E-317D7E08960F";
shapes = (
{
closed = 1;
nodes = (
(654,-180,o),
(735,-99,o),
(735,0,cs),
(735,540,l),
(285,540,ls),
(136,540,o),
(15,419,o),
(15,270,cs),
(15,121,o),
(136,0,o),
(285,0,cs),
(15,0,l),
(15,-180,l),
(555,-180,ls)
);
}
);
width = 750;
}
);
unicode = 103;
},
{
glyphname = gbreve;
lastChange = "2026-04-30 13:10:11 +0000";
layers = (
{
background = {
anchors = (
{
name = top;
pos = (405,720);
}
);
shapes = (
{
closed = 1;
nodes = (
(654,-180,o),
(735,-99,o),
(735,0,cs),
(735,540,l),
(285,540,ls),
(136,540,o),
(15,419,o),
(15,270,cs),
(15,121,o),
(136,0,o),
(285,0,cs),
(15,0,l),
(15,-180,l),
(555,-180,ls)
);
},
{
closed = 1;
nodes = (
(450,540,ls),
(549,540,o),
(630,621,o),
(630,720,c),
(445,720,l),
(445,698,o),
(427,680,o),
(405,680,cs),
(383,680,o),
(365,698,o),
(365,720,c),
(180,720,l),
(180,621,o),
(261,540,o),
(360,540,cs)
);
}
);
};
layerId = "76DA76B7-AE51-4169-AB0E-317D7E08960F";
shapes = (
{
ref = g;
},
{
pos = (405,0);
ref = brevecomb;
}
);
width = 750;
}
);
unicode = 287;
},
{
glyphname = gcommaaccent;
lastChange = "2026-04-30 13:16:51 +0000";
layers = (
{
background = {
anchors = (
{
name = top;
pos = (405,720);
}
);
shapes = (
{
closed = 1;
nodes = (
(654,-180,o),
(735,-99,o),
(735,0,cs),
(735,540,l),
(285,540,ls),
(136,540,o),
(15,419,o),
(15,270,cs),
(15,121,o),
(136,0,o),
(285,0,cs),
(15,0,l),
(15,-180,l),
(555,-180,ls)
);
},
{
closed = 1;
nodes = (
(525,720,l),
(375,720,l),
(375,810,l),
(325,810,o),
(285,770,o),
(285,720,cs),
(285,630,ls),
(285,580,o),
(325,540,o),
(375,540,cs),
(525,540,l)
);
}
);
};
layerId = "76DA76B7-AE51-4169-AB0E-317D7E08960F";
shapes = (
{
ref = g;
},
{
pos = (405,0);
ref = commaturnedabovecomb;
}
);
width = 750;
}
);
unicode = 291;
},
{
glyphname = gdotaccent;
lastChange = "2026-04-30 13:10:11 +0000";
layers = (
{
background = {
anchors = (
{
name = top;
pos = (405,720);
}
);
shapes = (
{
closed = 1;
nodes = (
(654,-180,o),
(735,-99,o),
(735,0,cs),
(735,540,l),
(285,540,ls),
(136,540,o),
(15,419,o),
(15,270,cs),
(15,121,o),
(136,0,o),
(285,0,cs),
(15,0,l),
(15,-180,l),
(555,-180,ls)
);
},
{
closed = 1;
nodes = (
(525,720,l),
(285,720,l),
(285,600,ls),
(285,567,o),
(312,540,o),
(345,540,cs),
(525,540,l)
);
}
);
};
layerId = "76DA76B7-AE51-4169-AB0E-317D7E08960F";
shapes = (
{
ref = g;
},
{
pos = (405,0);
ref = dotaccentcomb;
}
);
width = 750;
}
);
unicode = 289;
},
{
color = 11;
glyphname = h;
lastChange = "2026-04-30 13:10:06 +0000";
layers = (
{
anchors = (
{
name = center;
pos = (345,570);
},
{
name = top;
pos = (375,720);
}
);
background = {
anchors = (
{
name = center;
pos = (345,570);
},
{
name = top;
pos = (375,720);
}
);
shapes = (
{
closed = 1;
nodes = (
(735,279,ls),
(735,398,o),
(660,500,o),
(555,540,c),
(555,720,l),
(15,720,l),
(15,0,l),
(735,0,l)
);
}
);
};
layerId = "76DA76B7-AE51-4169-AB0E-317D7E08960F";
shapes = (
{
closed = 1;
nodes = (
(735,279,ls),
(735,398,o),
(660,500,o),
(555,540,c),
(555,720,l),
(15,720,l),
(15,0,l),
(735,0,l)
);
}
);
width = 750;
}
);
unicode = 104;
},
{
color = 11;
glyphname = i;
lastChange = "2026-04-30 13:10:06 +0000";
layers = (
{
anchors = (
{
name = _ogonek;
pos = (375,0);
}
);
background = {
anchors = (
{
name = _ogonek;
pos = (375,0);
}
);
shapes = (
{
closed = 1;
nodes = (
(645,477,o),
(582,540,o),
(505,540,cs),
(525,540,ls),
(591,540,o),
(645,594,o),
(645,660,cs),
(645,720,l),
(105,720,l),
(105,660,ls),
(105,594,o),
(159,540,o),
(225,540,cs),
(15,540,l),
(15,360,l),
(105,360,l),
(105,180,l),
(15,180,l),
(15,0,l),
(735,0,l),
(735,180,l),
(645,180,l),
(645,400,ls)
);
}
);
};
layerId = "76DA76B7-AE51-4169-AB0E-317D7E08960F";
shapes = (
{
closed = 1;
nodes = (
(645,477,o),
(582,540,o),
(505,540,cs),
(525,540,ls),
(591,540,o),
(645,594,o),
(645,660,cs),
(645,720,l),
(105,720,l),
(105,660,ls),
(105,594,o),
(159,540,o),
(225,540,cs),
(15,540,l),
(15,360,l),
(105,360,l),
(105,180,l),
(15,180,l),
(15,0,l),
(735,0,l),
(735,180,l),
(645,180,l),
(645,400,ls)
);
}
);
width = 750;
}
);
unicode = 105;
},
{
glyphname = idotless;
lastChange = "2026-04-30 13:16:51 +0000";
layers = (
{
anchors = (
{
name = bottom;
pos = (375,0);
},
{
name = ogonek;
pos = (735,0);
},
{
name = top;
pos = (375,540);
}
);
background = {
anchors = (
{
name = bottom;
pos = (365,0);
},
{
name = ogonek;
pos = (375,0);
},
{
name = top;
pos = (375,540);
}
);
shapes = (
{
closed = 1;
nodes = (
(735,180,l),
(645,180,l),
(645,400,ls),
(645,477,o),
(582,540,o),
(505,540,cs),
(15,540,l),
(15,360,l),
(105,360,l),
(105,180,l),
(15,180,l),
(15,0,l),
(735,0,l)
);
}
);
};
layerId = "76DA76B7-AE51-4169-AB0E-317D7E08960F";
shapes = (
{
closed = 1;
nodes = (
(735,180,l),
(645,180,l),
(645,400,ls),
(645,477,o),
(582,540,o),
(505,540,cs),
(15,540,l),
(15,360,l),
(105,360,l),
(105,180,l),
(15,180,l),
(15,0,l),
(735,0,l)
);
}
);
width = 750;
}
);
unicode = 305;
},
{
glyphname = iacute;
lastChange = "2026-04-30 13:10:11 +0000";
layers = (
{
background = {
anchors = (
{
name = bottom;
pos = (365,0);
},
{
name = ogonek;
pos = (375,0);
},
{
name = top;
pos = (375,720);
}
);
shapes = (
{
closed = 1;
nodes = (
(735,180,l),
(645,180,l),
(645,400,ls),
(645,477,o),
(582,540,o),
(505,540,cs),
(15,540,l),
(15,360,l),
(105,360,l),
(105,180,l),
(15,180,l),
(15,0,l),
(735,0,l)
);
},
{
closed = 1;
nodes = (
(519,540,o),
(600,621,o),
(600,720,c),
(240,720,l),
(240,670,o),
(200,630,o),
(150,630,c),
(150,540,l),
(420,540,ls)
);
}
);
};
layerId = "76DA76B7-AE51-4169-AB0E-317D7E08960F";
shapes = (
{
ref = idotless;
},
{
pos = (375,0);
ref = acutecomb;
}
);
width = 750;
}
);
unicode = 237;
},
{
glyphname = icircumflex;
lastChange = "2026-04-30 13:10:11 +0000";
layers = (
{
background = {
anchors = (
{
name = bottom;
pos = (365,0);
},
{
name = ogonek;
pos = (375,0);
},
{
name = top;
pos = (375,720);
}
);
shapes = (
{
closed = 1;
nodes = (
(735,180,l),
(645,180,l),
(645,400,ls),
(645,477,o),
(582,540,o),
(505,540,cs),
(15,540,l),
(15,360,l),
(105,360,l),
(105,180,l),
(15,180,l),
(15,0,l),
(735,0,l)
);
},
{
closed = 1;
nodes = (
(335,540,o),
(375,580,o),
(375,630,c),
(375,580,o),
(415,540,o),
(465,540,cs),
(645,540,l),
(645,630,l),
(595,630,o),
(555,670,o),
(555,720,c),
(195,720,l),
(195,670,o),
(155,630,o),
(105,630,c),
(105,540,l),
(285,540,ls)
);
}
);
};
layerId = "76DA76B7-AE51-4169-AB0E-317D7E08960F";
shapes = (
{
ref = idotless;
},
{
pos = (375,0);
ref = circumflexcomb;
}
);
width = 750;
}
);
unicode = 238;
},
{
glyphname = idieresis;
lastChange = "2026-04-30 13:10:11 +0000";
layers = (
{
background = {
anchors = (
{
name = bottom;
pos = (365,0);
},
{
name = ogonek;
pos = (375,0);
},
{
name = top;
pos = (375,720);
}
);
shapes = (
{
closed = 1;
nodes = (
(735,180,l),
(645,180,l),
(645,400,ls),
(645,477,o),
(582,540,o),
(505,540,cs),
(15,540,l),
(15,360,l),
(105,360,l),
(105,180,l),
(15,180,l),
(15,0,l),
(735,0,l)
);
},
{
closed = 1;
nodes = (
(360,720,l),
(130,720,l),
(130,600,ls),
(130,567,o),
(157,540,o),
(190,540,cs),
(360,540,l)
);
},
{
closed = 1;
nodes = (
(620,720,l),
(390,720,l),
(390,600,ls),
(390,567,o),
(417,540,o),
(450,540,cs),
(620,540,l)
);
}
);
};
layerId = "76DA76B7-AE51-4169-AB0E-317D7E08960F";
shapes = (
{
ref = idotless;
},
{
pos = (375,0);
ref = dieresiscomb;
}
);
width = 750;
}
);
unicode = 239;
},
{
glyphname = igrave;
lastChange = "2026-04-30 13:10:11 +0000";
layers = (
{
background = {
anchors = (
{
name = bottom;
pos = (365,0);
},
{
name = ogonek;
pos = (375,0);
},
{
name = top;
pos = (375,720);
}
);
shapes = (
{
closed = 1;
nodes = (
(735,180,l),
(645,180,l),
(645,400,ls),
(645,477,o),
(582,540,o),
(505,540,cs),
(15,540,l),
(15,360,l),
(105,360,l),
(105,180,l),
(15,180,l),
(15,0,l),
(735,0,l)
);
},
{
closed = 1;
nodes = (
(600,630,l),
(550,630,o),
(510,670,o),
(510,720,c),
(150,720,l),
(150,621,o),
(231,540,o),
(330,540,cs),
(600,540,l)
);
}
);
};
layerId = "76DA76B7-AE51-4169-AB0E-317D7E08960F";
shapes = (
{
ref = idotless;
},
{
pos = (375,0);
ref = gravecomb;
}
);
width = 750;
}
);
unicode = 236;
},
{
glyphname = iogonek;
lastChange = "2026-04-30 13:13:40 +0000";
layers = (
{
background = {
anchors = (
{
name = _ogonek;
pos = (375,0);
},
{
name = bottom;
pos = (365,0);
},
{
name = ogonek;
pos = (375,0);
},
{
name = top;
pos = (375,540);
}
);
shapes = (
{
closed = 1;
nodes = (
(735,180,l),
(645,180,l),
(645,400,ls),
(645,477,o),
(582,540,o),
(505,540,cs),
(15,540,l),
(15,360,l),
(105,360,l),
(105,180,l),
(15,180,l),
(15,0,l),
(735,0,l)
);
},
{
closed = 1;
nodes = (
(630,-30,l),
(450,-30,l),
(450,120,l),
(300,120,l),
(300,-60,ls),
(300,-126,o),
(354,-180,o),
(420,-180,cs),
(630,-180,l)
);
},
{
closed = 1;
nodes = (
(525,540,ls),
(591,540,o),
(645,594,o),
(645,660,cs),
(645,720,l),
(105,720,l),
(105,660,ls),
(105,594,o),
(159,540,o),
(225,540,cs)
);
}
);
};
layerId = "76DA76B7-AE51-4169-AB0E-317D7E08960F";
shapes = (
{
ref = idotless;
},
{
alignment = -1;
pos = (466.153,-1);
ref = ogonekcomb;
},
{
alignment = -1;
pos = (89.392,0);
ref = idot;
}
);
width = 750;
}
);
metricRight = i;
unicode = 303;
},
{
color = 11;
glyphname = j;
lastChange = "2026-04-30 13:10:06 +0000";
layers = (
{
layerId = "76DA76B7-AE51-4169-AB0E-317D7E08960F";
shapes = (
{
closed = 1;
nodes = (
(195,720,l),
(195,660,ls),
(195,594,o),
(249,540,o),
(315,540,cs),
(105,540,l),
(105,360,l),
(195,360,l),
(195,0,l),
(15,0,l),
(15,-180,l),
(555,-180,ls),
(654,-180,o),
(735,-99,o),
(735,0,cs),
(735,400,ls),
(735,477,o),
(672,540,o),
(595,540,cs),
(615,540,ls),
(681,540,o),
(735,594,o),
(735,660,cs),
(735,720,l)
);
}
);
width = 750;
}
);
unicode = 106;
},
{
glyphname = jdotless;
lastChange = "2026-04-30 13:16:51 +0000";
layers = (
{
anchors = (
{
name = bottom;
pos = (375,-270);
},
{
name = top;
pos = (375,540);
}
);
background = {
anchors = (
{
name = bottom;
pos = (375,-270);
},
{
name = top;
pos = (465,540);
}
);
shapes = (
{
closed = 1;
nodes = (
(555,-180,ls),
(654,-180,o),
(735,-99,o),
(735,0,cs),
(735,400,ls),
(735,477,o),
(672,540,o),
(595,540,cs),
(105,540,l),
(105,360,l),
(195,360,l),
(195,0,l),
(15,0,l),
(15,-180,l)
);
}
);
};
layerId = "76DA76B7-AE51-4169-AB0E-317D7E08960F";
shapes = (
{
closed = 1;
nodes = (
(555,-180,ls),
(654,-180,o),
(735,-99,o),
(735,0,cs),
(735,400,ls),
(735,477,o),
(672,540,o),
(595,540,cs),
(105,540,l),
(105,360,l),
(195,360,l),
(195,0,l),
(15,0,l),
(15,-180,l)
);
}
);
width = 750;
}
);
unicode = 567;
},
{
color = 11;
glyphname = k;
lastChange = "2026-04-30 13:10:06 +0000";
layers = (
{
anchors = (
{
name = bottom;
pos = (375,0);
}
);
background = {
anchors = (
{
name = bottom;
pos = (375,0);
}
);
shapes = (
{
closed = 1;
nodes = (
(735,140,ls),
(735,212,o),
(677,270,o),
(605,270,c),
(677,270,o),
(735,328,o),
(735,400,cs),
(735,540,l),
(555,540,l),
(555,720,l),
(15,720,l),
(15,0,l),
(735,0,l)
);
}
);
};
layerId = "76DA76B7-AE51-4169-AB0E-317D7E08960F";
shapes = (
{
closed = 1;
nodes = (
(735,140,ls),
(735,212,o),
(677,270,o),
(605,270,c),
(677,270,o),
(735,328,o),
(735,400,cs),
(735,540,l),
(555,540,l),
(555,720,l),
(15,720,l),
(15,0,l),
(735,0,l)
);
}
);
width = 750;
}
);
unicode = 107;
},
{
glyphname = kcommaaccent;
lastChange = "2026-04-30 13:16:51 +0000";
layers = (
{
background = {
anchors = (
{
name = bottom;
pos = (375,-180);
}
);
shapes = (
{
closed = 1;
nodes = (
(735,140,ls),
(735,212,o),
(677,270,o),
(605,270,c),
(677,270,o),
(735,328,o),
(735,400,cs),
(735,540,l),
(555,540,l),
(555,720,l),
(15,720,l),
(15,0,l),
(735,0,l)
);
},
{
closed = 1;
nodes = (
(455,-270,o),
(495,-230,o),
(495,-180,cs),
(495,-90,ls),
(495,-40,o),
(455,0,o),
(405,0,cs),
(255,0,l),
(255,-180,l),
(405,-180,l),
(405,-270,l)
);
}
);
};
layerId = "76DA76B7-AE51-4169-AB0E-317D7E08960F";
shapes = (
{
ref = k;
},
{
pos = (375,0);
ref = commaaccentcomb;
}
);
width = 750;
}
);
unicode = 311;
},
{
color = 11;
glyphname = l;
lastChange = "2026-04-30 13:10:06 +0000";
layers = (
{
anchors = (
{
name = bottom;
pos = (375,0);
},
{
name = center;
pos = (375,390);
},
{
name = top;
pos = (375,720);
},
{
name = topright;
pos = (645,720);
}
);
background = {
anchors = (
{
name = bottom;
pos = (375,0);
},
{
name = center;
pos = (375,390);
},
{
name = top;
pos = (375,720);
},
{
name = topright;
pos = (645,720);
}
);
shapes = (
{
closed = 1;
nodes = (
(735,180,l),
(645,180,l),
(645,580,ls),
(645,657,o),
(582,720,o),
(505,720,cs),
(15,720,l),
(15,540,l),
(105,540,l),
(105,180,l),
(15,180,l),
(15,0,l),
(735,0,l)
);
}
);
};
layerId = "76DA76B7-AE51-4169-AB0E-317D7E08960F";
shapes = (
{
closed = 1;
nodes = (
(735,180,l),
(645,180,l),
(645,580,ls),
(645,657,o),
(582,720,o),
(505,720,cs),
(15,720,l),
(15,540,l),
(105,540,l),
(105,180,l),
(15,180,l),
(15,0,l),
(735,0,l)
);
}
);
width = 750;
}
);
unicode = 108;
},
{
glyphname = lacute;
lastChange = "2026-04-30 13:10:11 +0000";
layers = (
{
background = {
anchors = (
{
name = bottom;
pos = (375,0);
},
{
name = center;
pos = (375,390);
},
{
name = top;
pos = (375,900);
},
{
name = topright;
pos = (375,360);
}
);
shapes = (
{
closed = 1;
nodes = (
(735,180,l),
(645,180,l),
(645,580,ls),
(645,657,o),
(582,720,o),
(505,720,cs),
(15,720,l),
(15,540,l),
(105,540,l),
(105,180,l),
(15,180,l),
(15,0,l),
(735,0,l)
);
},
{
closed = 1;
nodes = (
(519,720,o),
(600,801,o),
(600,900,c),
(240,900,l),
(240,850,o),
(200,810,o),
(150,810,c),
(150,720,l),
(420,720,ls)
);
}
);
};
layerId = "76DA76B7-AE51-4169-AB0E-317D7E08960F";
shapes = (
{
ref = l;
},
{
pos = (375,180);
ref = acutecomb;
}
);
width = 750;
}
);
unicode = 314;
},
{
glyphname = lcommaaccent;
lastChange = "2026-04-30 13:16:51 +0000";
layers = (
{
background = {
anchors = (
{
name = bottom;
pos = (375,-180);
},
{
name = center;
pos = (375,390);
},
{
name = top;
pos = (375,720);
},
{
name = topright;
pos = (375,360);
}
);
shapes = (
{
closed = 1;
nodes = (
(735,180,l),
(645,180,l),
(645,580,ls),
(645,657,o),
(582,720,o),
(505,720,cs),
(15,720,l),
(15,540,l),
(105,540,l),
(105,180,l),
(15,180,l),
(15,0,l),
(735,0,l)
);
},
{
closed = 1;
nodes = (
(455,-270,o),
(495,-230,o),
(495,-180,cs),
(495,-90,ls),
(495,-40,o),
(455,0,o),
(405,0,cs),
(255,0,l),
(255,-180,l),
(405,-180,l),
(405,-270,l)
);
}
);
};
layerId = "76DA76B7-AE51-4169-AB0E-317D7E08960F";
shapes = (
{
ref = l;
},
{
pos = (375,0);
ref = commaaccentcomb;
}
);
width = 750;
}
);
unicode = 316;
},
{
color = 11;
glyphname = m;
lastChange = "2026-04-30 13:10:06 +0000";
layers = (
{
background = {
shapes = (
{
closed = 1;
nodes = (
(735,390,ls),
(735,473,o),
(668,540,o),
(585,540,cs),
(375,540,l),
(375,390,ls),
(375,473,o),
(308,540,o),
(225,540,cs),
(15,540,l),
(15,0,l),
(735,0,l)
);
}
);
};
layerId = "76DA76B7-AE51-4169-AB0E-317D7E08960F";
shapes = (
{
closed = 1;
nodes = (
(735,390,ls),
(735,473,o),
(668,540,o),
(585,540,cs),
(375,540,l),
(375,390,ls),
(375,473,o),
(308,540,o),
(225,540,cs),
(15,540,l),
(15,0,l),
(735,0,l)
);
}
);
width = 750;
}
);
unicode = 109;
},
{
color = 11;
glyphname = n;
lastChange = "2026-04-30 13:10:06 +0000";
layers = (
{
anchors = (
{
name = bottom;
pos = (375,0);
},
{
name = top;
pos = (355,540);
}
);
background = {
anchors = (
{
name = bottom;
pos = (375,0);
},
{
name = top;
pos = (355,540);
}
);
shapes = (
{
closed = 1;
nodes = (
(735,270,ls),
(735,419,o),
(614,540,o),
(465,540,cs),
(15,540,l),
(15,0,l),
(735,0,l)
);
}
);
};
layerId = "76DA76B7-AE51-4169-AB0E-317D7E08960F";
shapes = (
{
closed = 1;
nodes = (
(735,270,ls),
(735,419,o),
(614,540,o),
(465,540,cs),
(15,540,l),
(15,0,l),
(735,0,l)
);
}
);
width = 750;
}
);
unicode = 110;
},
{
glyphname = nacute;
lastChange = "2026-04-30 13:10:11 +0000";
layers = (
{
background = {
anchors = (
{
name = bottom;
pos = (375,0);
},
{
name = top;
pos = (355,720);
}
);
shapes = (
{
closed = 1;
nodes = (
(735,270,ls),
(735,419,o),
(614,540,o),
(465,540,cs),
(15,540,l),
(15,0,l),
(735,0,l)
);
},
{
closed = 1;
nodes = (
(499,540,o),
(580,621,o),
(580,720,c),
(220,720,l),
(220,670,o),
(180,630,o),
(130,630,c),
(130,540,l),
(400,540,ls)
);
}
);
};
layerId = "76DA76B7-AE51-4169-AB0E-317D7E08960F";
shapes = (
{
ref = n;
},
{
pos = (355,0);
ref = acutecomb;
}
);
width = 750;
}
);
unicode = 324;
},
{
glyphname = ncaron;
lastChange = "2026-04-30 13:10:11 +0000";
layers = (
{
background = {
anchors = (
{
name = bottom;
pos = (375,0);
},
{
name = top;
pos = (355,720);
}
);
shapes = (
{
closed = 1;
nodes = (
(735,270,ls),
(735,419,o),
(614,540,o),
(465,540,cs),
(15,540,l),
(15,0,l),
(735,0,l)
);
},
{
closed = 1;
nodes = (
(535,590,o),
(575,630,o),
(625,630,c),
(625,720,l),
(445,720,ls),
(395,720,o),
(355,680,o),
(355,630,c),
(355,680,o),
(315,720,o),
(265,720,cs),
(85,720,l),
(85,630,l),
(135,630,o),
(175,590,o),
(175,540,c),
(535,540,l)
);
}
);
};
layerId = "76DA76B7-AE51-4169-AB0E-317D7E08960F";
shapes = (
{
ref = n;
},
{
pos = (355,0);
ref = caroncomb;
}
);
width = 750;
}
);
unicode = 328;
},
{
glyphname = ncommaaccent;
lastChange = "2026-04-30 13:16:51 +0000";
layers = (
{
background = {
anchors = (
{
name = bottom;
pos = (375,-180);
},
{
name = top;
pos = (355,540);
}
);
shapes = (
{
closed = 1;
nodes = (
(735,270,ls),
(735,419,o),
(614,540,o),
(465,540,cs),
(15,540,l),
(15,0,l),
(735,0,l)
);
},
{
closed = 1;
nodes = (
(455,-270,o),
(495,-230,o),
(495,-180,cs),
(495,-90,ls),
(495,-40,o),
(455,0,o),
(405,0,cs),
(255,0,l),
(255,-180,l),
(405,-180,l),
(405,-270,l)
);
}
);
};
layerId = "76DA76B7-AE51-4169-AB0E-317D7E08960F";
shapes = (
{
ref = n;
},
{
pos = (375,0);
ref = commaaccentcomb;
}
);
width = 750;
}
);
unicode = 326;
},
{
glyphname = ntilde;
lastChange = "2026-04-30 13:10:11 +0000";
layers = (
{
background = {
anchors = (
{
name = bottom;
pos = (375,0);
},
{
name = top;
pos = (355,720);
}
);
shapes = (
{
closed = 1;
nodes = (
(735,270,ls),
(735,419,o),
(614,540,o),
(465,540,cs),
(15,540,l),
(15,0,l),
(735,0,l)
);
},
{
closed = 1;
nodes = (
(532,540,o),
(580,588,o),
(580,648,cs),
(580,720,l),
(490,720,l),
(473,683,o),
(435,657,o),
(391,657,cs),
(364,657,o),
(336,667,o),
(315,688,cs),
(295,708,o),
(268,720,o),
(238,720,cs),
(178,720,o),
(130,672,o),
(130,612,cs),
(130,540,l),
(472,540,ls)
);
}
);
};
layerId = "76DA76B7-AE51-4169-AB0E-317D7E08960F";
shapes = (
{
ref = n;
},
{
pos = (355,0);
ref = tildecomb;
}
);
width = 750;
}
);
unicode = 241;
},
{
color = 11;
glyphname = o;
lastChange = "2026-04-30 13:10:06 +0000";
layers = (
{
anchors = (
{
name = center;
pos = (375,270);
},
{
name = top;
pos = (375,540);
}
);
background = {
anchors = (
{
name = center;
pos = (375,270);
},
{
name = top;
pos = (375,540);
}
);
shapes = (
{
closed = 1;
nodes = (
(620,-10,o),
(745,115,o),
(745,270,cs),
(745,425,o),
(620,550,o),
(465,550,cs),
(285,550,ls),
(130,550,o),
(5,425,o),
(5,270,cs),
(5,115,o),
(130,-10,o),
(285,-10,cs),
(465,-10,ls)
);
}
);
};
layerId = "76DA76B7-AE51-4169-AB0E-317D7E08960F";
shapes = (
{
closed = 1;
nodes = (
(620,-10,o),
(745,115,o),
(745,270,cs),
(745,425,o),
(620,550,o),
(465,550,cs),
(285,550,ls),
(130,550,o),
(5,425,o),
(5,270,cs),
(5,115,o),
(130,-10,o),
(285,-10,cs),
(465,-10,ls)
);
}
);
width = 750;
}
);
unicode = 111;
},
{
glyphname = oacute;
lastChange = "2026-04-30 13:10:11 +0000";
layers = (
{
background = {
anchors = (
{
name = center;
pos = (375,270);
},
{
name = top;
pos = (375,720);
}
);
shapes = (
{
closed = 1;
nodes = (
(620,-10,o),
(745,115,o),
(745,270,cs),
(745,425,o),
(620,550,o),
(465,550,cs),
(285,550,ls),
(130,550,o),
(5,425,o),
(5,270,cs),
(5,115,o),
(130,-10,o),
(285,-10,cs),
(465,-10,ls)
);
},
{
closed = 1;
nodes = (
(519,540,o),
(600,621,o),
(600,720,c),
(240,720,l),
(240,670,o),
(200,630,o),
(150,630,c),
(150,540,l),
(420,540,ls)
);
}
);
};
layerId = "76DA76B7-AE51-4169-AB0E-317D7E08960F";
shapes = (
{
ref = o;
},
{
pos = (375,0);
ref = acutecomb;
}
);
width = 750;
}
);
unicode = 243;
},
{
glyphname = ocircumflex;
lastChange = "2026-04-30 13:10:11 +0000";
layers = (
{
background = {
anchors = (
{
name = center;
pos = (375,270);
},
{
name = top;
pos = (375,720);
}
);
shapes = (
{
closed = 1;
nodes = (
(620,-10,o),
(745,115,o),
(745,270,cs),
(745,425,o),
(620,550,o),
(465,550,cs),
(285,550,ls),
(130,550,o),
(5,425,o),
(5,270,cs),
(5,115,o),
(130,-10,o),
(285,-10,cs),
(465,-10,ls)
);
},
{
closed = 1;
nodes = (
(335,540,o),
(375,580,o),
(375,630,c),
(375,580,o),
(415,540,o),
(465,540,cs),
(645,540,l),
(645,630,l),
(595,630,o),
(555,670,o),
(555,720,c),
(195,720,l),
(195,670,o),
(155,630,o),
(105,630,c),
(105,540,l),
(285,540,ls)
);
}
);
};
layerId = "76DA76B7-AE51-4169-AB0E-317D7E08960F";
shapes = (
{
ref = o;
},
{
pos = (375,0);
ref = circumflexcomb;
}
);
width = 750;
}
);
unicode = 244;
},
{
glyphname = odieresis;
lastChange = "2026-04-30 13:10:11 +0000";
layers = (
{
background = {
anchors = (
{
name = center;
pos = (375,270);
},
{
name = top;
pos = (375,720);
}
);
shapes = (
{
closed = 1;
nodes = (
(620,-10,o),
(745,115,o),
(745,270,cs),
(745,425,o),
(620,550,o),
(465,550,cs),
(285,550,ls),
(130,550,o),
(5,425,o),
(5,270,cs),
(5,115,o),
(130,-10,o),
(285,-10,cs),
(465,-10,ls)
);
},
{
closed = 1;
nodes = (
(360,720,l),
(130,720,l),
(130,600,ls),
(130,567,o),
(157,540,o),
(190,540,cs),
(360,540,l)
);
},
{
closed = 1;
nodes = (
(620,720,l),
(390,720,l),
(390,600,ls),
(390,567,o),
(417,540,o),
(450,540,cs),
(620,540,l)
);
}
);
};
layerId = "76DA76B7-AE51-4169-AB0E-317D7E08960F";
shapes = (
{
ref = o;
},
{
pos = (375,0);
ref = dieresiscomb;
}
);
width = 750;
}
);
unicode = 246;
},
{
glyphname = ograve;
lastChange = "2026-04-30 13:10:11 +0000";
layers = (
{
background = {
anchors = (
{
name = center;
pos = (375,270);
},
{
name = top;
pos = (375,720);
}
);
shapes = (
{
closed = 1;
nodes = (
(620,-10,o),
(745,115,o),
(745,270,cs),
(745,425,o),
(620,550,o),
(465,550,cs),
(285,550,ls),
(130,550,o),
(5,425,o),
(5,270,cs),
(5,115,o),
(130,-10,o),
(285,-10,cs),
(465,-10,ls)
);
},
{
closed = 1;
nodes = (
(600,630,l),
(550,630,o),
(510,670,o),
(510,720,c),
(150,720,l),
(150,621,o),
(231,540,o),
(330,540,cs),
(600,540,l)
);
}
);
};
layerId = "76DA76B7-AE51-4169-AB0E-317D7E08960F";
shapes = (
{
ref = o;
},
{
pos = (375,0);
ref = gravecomb;
}
);
width = 750;
}
);
unicode = 242;
},
{
glyphname = ohungarumlaut;
lastChange = "2026-04-30 13:10:11 +0000";
layers = (
{
background = {
anchors = (
{
name = center;
pos = (375,270);
},
{
name = top;
pos = (375,720);
}
);
shapes = (
{
closed = 1;
nodes = (
(620,-10,o),
(745,115,o),
(745,270,cs),
(745,425,o),
(620,550,o),
(465,550,cs),
(285,550,ls),
(130,550,o),
(5,425,o),
(5,270,cs),
(5,115,o),
(130,-10,o),
(285,-10,cs),
(465,-10,ls)
);
},
{
closed = 1;
nodes = (
(319,540,o),
(400,621,o),
(400,720,c),
(170,720,l),
(170,670,o),
(130,630,o),
(80,630,c),
(80,540,l),
(220,540,ls)
);
},
{
closed = 1;
nodes = (
(589,540,o),
(670,621,o),
(670,720,c),
(430,720,l),
(430,644,o),
(389,577,o),
(328,540,c),
(490,540,ls)
);
}
);
};
layerId = "76DA76B7-AE51-4169-AB0E-317D7E08960F";
shapes = (
{
ref = o;
},
{
pos = (375,0);
ref = hungarumlautcomb;
}
);
width = 750;
}
);
unicode = 337;
},
{
glyphname = oslash;
lastChange = "2026-04-30 13:10:11 +0000";
layers = (
{
anchors = (
{
name = top;
pos = (375,540);
}
);
background = {
anchors = (
{
name = center;
pos = (375,270);
},
{
name = top;
pos = (375,540);
}
);
shapes = (
{
closed = 1;
nodes = (
(620,-10,o),
(745,115,o),
(745,270,cs),
(745,425,o),
(620,550,o),
(465,550,cs),
(285,550,ls),
(130,550,o),
(5,425,o),
(5,270,cs),
(5,115,o),
(130,-10,o),
(285,-10,cs),
(465,-10,ls)
);
},
{
closed = 1;
nodes = (
(615,360,ls),
(681,360,o),
(735,414,o),
(735,480,cs),
(735,600,l),
(495,600,l),
(495,360,l)
);
},
{
closed = 1;
nodes = (
(255,-60,l),
(255,180,l),
(135,180,ls),
(69,180,o),
(15,126,o),
(15,60,cs),
(15,-60,l)
);
}
);
};
layerId = "76DA76B7-AE51-4169-AB0E-317D7E08960F";
shapes = (
{
ref = o;
},
{
pos = (375,0);
ref = slashshortcomb.o;
}
);
width = 750;
}
);
unicode = 248;
},
{
glyphname = otilde;
lastChange = "2026-04-30 13:10:11 +0000";
layers = (
{
background = {
anchors = (
{
name = center;
pos = (375,270);
},
{
name = top;
pos = (375,720);
}
);
shapes = (
{
closed = 1;
nodes = (
(620,-10,o),
(745,115,o),
(745,270,cs),
(745,425,o),
(620,550,o),
(465,550,cs),
(285,550,ls),
(130,550,o),
(5,425,o),
(5,270,cs),
(5,115,o),
(130,-10,o),
(285,-10,cs),
(465,-10,ls)
);
},
{
closed = 1;
nodes = (
(552,540,o),
(600,588,o),
(600,648,cs),
(600,720,l),
(510,720,l),
(493,683,o),
(455,657,o),
(411,657,cs),
(384,657,o),
(356,667,o),
(335,688,cs),
(315,708,o),
(288,720,o),
(258,720,cs),
(198,720,o),
(150,672,o),
(150,612,cs),
(150,540,l),
(492,540,ls)
);
}
);
};
layerId = "76DA76B7-AE51-4169-AB0E-317D7E08960F";
shapes = (
{
ref = o;
},
{
pos = (375,0);
ref = tildecomb;
}
);
width = 750;
}
);
unicode = 245;
},
{
glyphname = oe;
lastChange = "2026-04-30 13:10:11 +0000";
layers = (
{
anchors = (
{
name = bottom;
pos = (555,0);
},
{
name = top;
pos = (555,540);
}
);
background = {
anchors = (
{
name = top;
pos = (555,540);
}
);
shapes = (
{
closed = 1;
nodes = (
(1095,480,o),
(1035,540,o),
(960,540,cs),
(765,540,ls),
(687,540,o),
(616,507,o),
(567,453,c),
(515,513,o),
(440,550,o),
(355,550,cs),
(285,550,ls),
(130,550,o),
(5,425,o),
(5,270,cs),
(5,115,o),
(130,-10,o),
(285,-10,cs),
(355,-10,ls),
(440,-10,o),
(515,27,o),
(567,87,c),
(616,33,o),
(687,0,o),
(765,0,cs),
(1095,0,l),
(1095,270,l),
(960,270,ls),
(1035,270,o),
(1095,330,o),
(1095,405,cs)
);
}
);
};
layerId = "76DA76B7-AE51-4169-AB0E-317D7E08960F";
shapes = (
{
closed = 1;
nodes = (
(1095,480,o),
(1035,540,o),
(960,540,cs),
(765,540,ls),
(687,540,o),
(616,507,o),
(567,453,c),
(515,513,o),
(440,550,o),
(355,550,cs),
(285,550,ls),
(130,550,o),
(5,425,o),
(5,270,cs),
(5,115,o),
(130,-10,o),
(285,-10,cs),
(355,-10,ls),
(440,-10,o),
(515,27,o),
(567,87,c),
(616,33,o),
(687,0,o),
(765,0,cs),
(1095,0,l),
(1095,270,l),
(960,270,ls),
(1035,270,o),
(1095,330,o),
(1095,405,cs)
);
}
);
width = 1110;
}
);
unicode = 339;
},
{
color = 11;
glyphname = p;
lastChange = "2026-04-30 13:10:06 +0000";
layers = (
{
background = {
shapes = (
{
closed = 1;
nodes = (
(555,0,l),
(660,40,o),
(735,142,o),
(735,261,cs),
(735,415,o),
(610,540,o),
(456,540,cs),
(15,540,l),
(15,-180,l),
(555,-180,l)
);
}
);
};
layerId = "76DA76B7-AE51-4169-AB0E-317D7E08960F";
shapes = (
{
closed = 1;
nodes = (
(555,0,l),
(660,40,o),
(735,142,o),
(735,261,cs),
(735,415,o),
(610,540,o),
(456,540,cs),
(15,540,l),
(15,-180,l),
(555,-180,l)
);
}
);
width = 750;
}
);
unicode = 112;
},
{
glyphname = thorn;
lastChange = "2026-04-30 13:10:11 +0000";
layers = (
{
anchors = (
{
name = bottom;
pos = (375,0);
},
{
name = top;
pos = (375,900);
}
);
background = {
shapes = (
{
closed = 1;
nodes = (
(735,392,o),
(661,496,o),
(555,540,c),
(555,720,l),
(15,720,l),
(15,-180,l),
(555,-180,l),
(555,0,l),
(661,44,o),
(735,148,o),
(735,270,cs)
);
}
);
};
layerId = "76DA76B7-AE51-4169-AB0E-317D7E08960F";
shapes = (
{
closed = 1;
nodes = (
(735,392,o),
(661,496,o),
(555,540,c),
(555,720,l),
(15,720,l),
(15,-180,l),
(555,-180,l),
(555,0,l),
(661,44,o),
(735,148,o),
(735,270,cs)
);
}
);
width = 750;
}
);
unicode = 254;
},
{
color = 11;
glyphname = q;
lastChange = "2026-04-30 13:10:06 +0000";
layers = (
{
background = {
shapes = (
{
closed = 1;
nodes = (
(735,540,l),
(294,540,ls),
(140,540,o),
(15,415,o),
(15,261,cs),
(15,142,o),
(90,40,o),
(195,0,c),
(195,-180,l),
(735,-180,l)
);
}
);
};
layerId = "76DA76B7-AE51-4169-AB0E-317D7E08960F";
shapes = (
{
closed = 1;
nodes = (
(735,540,l),
(294,540,ls),
(140,540,o),
(15,415,o),
(15,261,cs),
(15,142,o),
(90,40,o),
(195,0,c),
(195,-180,l),
(735,-180,l)
);
}
);
width = 750;
}
);
unicode = 113;
},
{
color = 11;
glyphname = r;
lastChange = "2026-04-30 13:10:06 +0000";
layers = (
{
anchors = (
{
name = bottom;
pos = (285,0);
},
{
name = top;
pos = (375,540);
}
);
background = {
anchors = (
{
name = bottom;
pos = (285,0);
},
{
name = top;
pos = (375,540);
}
);
shapes = (
{
closed = 1;
nodes = (
(555,360,l),
(735,360,l),
(735,540,l),
(195,540,ls),
(96,540,o),
(15,459,o),
(15,360,cs),
(15,0,l),
(555,0,l)
);
}
);
};
layerId = "76DA76B7-AE51-4169-AB0E-317D7E08960F";
shapes = (
{
closed = 1;
nodes = (
(555,360,l),
(735,360,l),
(735,540,l),
(195,540,ls),
(96,540,o),
(15,459,o),
(15,360,cs),
(15,0,l),
(555,0,l)
);
}
);
width = 750;
}
);
unicode = 114;
},
{
glyphname = racute;
lastChange = "2026-04-30 13:10:11 +0000";
layers = (
{
background = {
anchors = (
{
name = bottom;
pos = (285,0);
},
{
name = top;
pos = (375,720);
}
);
shapes = (
{
closed = 1;
nodes = (
(555,360,l),
(735,360,l),
(735,540,l),
(195,540,ls),
(96,540,o),
(15,459,o),
(15,360,cs),
(15,0,l),
(555,0,l)
);
},
{
closed = 1;
nodes = (
(519,540,o),
(600,621,o),
(600,720,c),
(240,720,l),
(240,670,o),
(200,630,o),
(150,630,c),
(150,540,l),
(420,540,ls)
);
}
);
};
layerId = "76DA76B7-AE51-4169-AB0E-317D7E08960F";
shapes = (
{
ref = r;
},
{
pos = (375,0);
ref = acutecomb;
}
);
width = 750;
}
);
unicode = 341;
},
{
glyphname = rcaron;
lastChange = "2026-04-30 13:10:11 +0000";
layers = (
{
background = {
anchors = (
{
name = bottom;
pos = (285,0);
},
{
name = top;
pos = (375,720);
}
);
shapes = (
{
closed = 1;
nodes = (
(555,360,l),
(735,360,l),
(735,540,l),
(195,540,ls),
(96,540,o),
(15,459,o),
(15,360,cs),
(15,0,l),
(555,0,l)
);
},
{
closed = 1;
nodes = (
(555,590,o),
(595,630,o),
(645,630,c),
(645,720,l),
(465,720,ls),
(415,720,o),
(375,680,o),
(375,630,c),
(375,680,o),
(335,720,o),
(285,720,cs),
(105,720,l),
(105,630,l),
(155,630,o),
(195,590,o),
(195,540,c),
(555,540,l)
);
}
);
};
layerId = "76DA76B7-AE51-4169-AB0E-317D7E08960F";
shapes = (
{
ref = r;
},
{
pos = (375,0);
ref = caroncomb;
}
);
width = 750;
}
);
unicode = 345;
},
{
color = 11;
glyphname = s;
lastChange = "2026-04-30 13:10:06 +0000";
layers = (
{
anchors = (
{
name = bottom;
pos = (365,0);
},
{
name = top;
pos = (385,540);
}
);
background = {
anchors = (
{
name = bottom;
pos = (365,0);
},
{
name = top;
pos = (385,540);
}
);
shapes = (
{
closed = 1;
nodes = (
(680,0,o),
(740,60,o),
(740,135,cs),
(740,210,o),
(680,270,o),
(605,270,cs),
(735,270,l),
(735,540,l),
(145,540,ls),
(70,540,o),
(10,480,o),
(10,405,cs),
(10,330,o),
(70,270,o),
(145,270,cs),
(15,270,l),
(15,0,l),
(605,0,ls)
);
}
);
};
layerId = "76DA76B7-AE51-4169-AB0E-317D7E08960F";
shapes = (
{
closed = 1;
nodes = (
(680,0,o),
(740,60,o),
(740,135,cs),
(740,210,o),
(680,270,o),
(605,270,cs),
(735,270,l),
(735,540,l),
(145,540,ls),
(70,540,o),
(10,480,o),
(10,405,cs),
(10,330,o),
(70,270,o),
(145,270,cs),
(15,270,l),
(15,0,l),
(605,0,ls)
);
}
);
width = 750;
}
);
unicode = 115;
},
{
glyphname = sacute;
lastChange = "2026-04-30 13:10:11 +0000";
layers = (
{
background = {
anchors = (
{
name = bottom;
pos = (365,0);
},
{
name = top;
pos = (385,720);
}
);
shapes = (
{
closed = 1;
nodes = (
(680,0,o),
(740,60,o),
(740,135,cs),
(740,210,o),
(680,270,o),
(605,270,cs),
(735,270,l),
(735,540,l),
(145,540,ls),
(70,540,o),
(10,480,o),
(10,405,cs),
(10,330,o),
(70,270,o),
(145,270,cs),
(15,270,l),
(15,0,l),
(605,0,ls)
);
},
{
closed = 1;
nodes = (
(529,540,o),
(610,621,o),
(610,720,c),
(250,720,l),
(250,670,o),
(210,630,o),
(160,630,c),
(160,540,l),
(430,540,ls)
);
}
);
};
layerId = "76DA76B7-AE51-4169-AB0E-317D7E08960F";
shapes = (
{
ref = s;
},
{
pos = (385,0);
ref = acutecomb;
}
);
width = 750;
}
);
unicode = 347;
},
{
glyphname = scaron;
lastChange = "2026-04-30 13:10:11 +0000";
layers = (
{
background = {
anchors = (
{
name = bottom;
pos = (365,0);
},
{
name = top;
pos = (385,720);
}
);
shapes = (
{
closed = 1;
nodes = (
(680,0,o),
(740,60,o),
(740,135,cs),
(740,210,o),
(680,270,o),
(605,270,cs),
(735,270,l),
(735,540,l),
(145,540,ls),
(70,540,o),
(10,480,o),
(10,405,cs),
(10,330,o),
(70,270,o),
(145,270,cs),
(15,270,l),
(15,0,l),
(605,0,ls)
);
},
{
closed = 1;
nodes = (
(565,590,o),
(605,630,o),
(655,630,c),
(655,720,l),
(475,720,ls),
(425,720,o),
(385,680,o),
(385,630,c),
(385,680,o),
(345,720,o),
(295,720,cs),
(115,720,l),
(115,630,l),
(165,630,o),
(205,590,o),
(205,540,c),
(565,540,l)
);
}
);
};
layerId = "76DA76B7-AE51-4169-AB0E-317D7E08960F";
shapes = (
{
ref = s;
},
{
pos = (385,0);
ref = caroncomb;
}
);
width = 750;
}
);
unicode = 353;
},
{
glyphname = scedilla;
lastChange = "2026-04-30 13:10:11 +0000";
layers = (
{
background = {
anchors = (
{
name = bottom;
pos = (194,0);
},
{
name = top;
pos = (185,460);
}
);
shapes = (
{
closed = 1;
nodes = (
(680,0,o),
(740,60,o),
(740,135,cs),
(740,210,o),
(680,270,o),
(605,270,cs),
(735,270,l),
(735,540,l),
(145,540,ls),
(70,540,o),
(10,480,o),
(10,405,cs),
(10,330,o),
(70,270,o),
(145,270,cs),
(15,270,l),
(15,0,l),
(605,0,ls)
);
},
{
closed = 1;
nodes = (
(490,-180,o),
(530,-140,o),
(530,-90,cs),
(530,-40,o),
(490,0,o),
(440,0,c),
(440,120,l),
(290,120,l),
(290,-30,l),
(200,-30,l),
(200,-180,l),
(440,-180,ls)
);
}
);
};
layerId = "76DA76B7-AE51-4169-AB0E-317D7E08960F";
shapes = (
{
ref = s;
},
{
pos = (365,0);
ref = cedillacomb;
}
);
width = 750;
}
);
unicode = 351;
},
{
glyphname = scommaaccent;
lastChange = "2026-04-30 13:10:11 +0000";
layers = (
{
background = {
anchors = (
{
name = bottom;
pos = (365,-180);
},
{
name = top;
pos = (385,540);
}
);
shapes = (
{
closed = 1;
nodes = (
(680,0,o),
(740,60,o),
(740,135,cs),
(740,210,o),
(680,270,o),
(605,270,cs),
(735,270,l),
(735,540,l),
(145,540,ls),
(70,540,o),
(10,480,o),
(10,405,cs),
(10,330,o),
(70,270,o),
(145,270,cs),
(15,270,l),
(15,0,l),
(605,0,ls)
);
},
{
closed = 1;
nodes = (
(445,-270,o),
(485,-230,o),
(485,-180,cs),
(485,-90,ls),
(485,-40,o),
(445,0,o),
(395,0,cs),
(245,0,l),
(245,-180,l),
(395,-180,l),
(395,-270,l)
);
}
);
};
layerId = "76DA76B7-AE51-4169-AB0E-317D7E08960F";
shapes = (
{
ref = s;
},
{
pos = (365,0);
ref = commaaccentcomb;
}
);
width = 750;
}
);
unicode = 537;
},
{
glyphname = germandbls;
lastChange = "2026-04-30 13:10:11 +0000";
layers = (
{
anchors = (
{
name = bottom;
pos = (375,0);
},
{
name = top;
pos = (375,900);
}
);
background = {
shapes = (
{
closed = 1;
nodes = (
(465,0,ls),
(614,0,o),
(735,121,o),
(735,270,cs),
(735,419,o),
(614,540,o),
(465,540,c),
(515,540,o),
(555,580,o),
(555,630,cs),
(555,680,o),
(515,720,o),
(465,720,cs),
(195,720,ls),
(96,720,o),
(15,639,o),
(15,540,cs),
(15,0,l)
);
}
);
};
layerId = "76DA76B7-AE51-4169-AB0E-317D7E08960F";
shapes = (
{
closed = 1;
nodes = (
(465,0,ls),
(614,0,o),
(735,121,o),
(735,270,cs),
(735,419,o),
(614,540,o),
(465,540,c),
(515,540,o),
(555,580,o),
(555,630,cs),
(555,680,o),
(515,720,o),
(465,720,cs),
(195,720,ls),
(96,720,o),
(15,639,o),
(15,540,cs),
(15,0,l)
);
}
);
width = 750;
}
);
unicode = 223;
},
{
color = 11;
glyphname = t;
lastChange = "2026-04-30 13:10:06 +0000";
layers = (
{
anchors = (
{
name = bottom;
pos = (415,0);
},
{
name = center;
pos = (375,200);
},
{
name = topright;
pos = (735,720);
}
);
background = {
anchors = (
{
name = bottom;
pos = (415,0);
},
{
name = center;
pos = (375,200);
},
{
name = topright;
pos = (735,720);
}
);
shapes = (
{
closed = 1;
nodes = (
(645,540,l),
(645,630,l),
(105,630,l),
(105,540,l),
(15,540,l),
(15,360,l),
(105,360,l),
(105,180,ls),
(105,81,o),
(186,0,o),
(285,0,cs),
(735,0,l),
(735,180,l),
(645,180,l),
(645,360,l),
(735,360,l),
(735,540,l)
);
}
);
};
layerId = "76DA76B7-AE51-4169-AB0E-317D7E08960F";
shapes = (
{
closed = 1;
nodes = (
(645,540,l),
(645,630,l),
(105,630,l),
(105,540,l),
(15,540,l),
(15,360,l),
(105,360,l),
(105,180,ls),
(105,81,o),
(186,0,o),
(285,0,cs),
(735,0,l),
(735,180,l),
(645,180,l),
(645,360,l),
(735,360,l),
(735,540,l)
);
}
);
width = 750;
}
);
unicode = 116;
},
{
glyphname = tcommaaccent;
lastChange = "2026-04-30 13:10:11 +0000";
layers = (
{
background = {
anchors = (
{
name = bottom;
pos = (415,-180);
},
{
name = center;
pos = (375,360);
},
{
name = topright;
pos = (375,540);
}
);
shapes = (
{
closed = 1;
nodes = (
(645,540,l),
(645,630,l),
(105,630,l),
(105,540,l),
(15,540,l),
(15,360,l),
(105,360,l),
(105,180,ls),
(105,81,o),
(186,0,o),
(285,0,cs),
(735,0,l),
(735,180,l),
(645,180,l),
(645,360,l),
(735,360,l),
(735,540,l)
);
},
{
closed = 1;
nodes = (
(495,-270,o),
(535,-230,o),
(535,-180,cs),
(535,-90,ls),
(535,-40,o),
(495,0,o),
(445,0,cs),
(295,0,l),
(295,-180,l),
(445,-180,l),
(445,-270,l)
);
}
);
};
layerId = "76DA76B7-AE51-4169-AB0E-317D7E08960F";
shapes = (
{
ref = t;
},
{
pos = (415,0);
ref = commaaccentcomb;
}
);
width = 750;
}
);
unicode = 539;
},
{
color = 11;
glyphname = u;
lastChange = "2026-04-30 13:10:06 +0000";
layers = (
{
anchors = (
{
name = ogonek;
pos = (480,0);
},
{
name = top;
pos = (375,540);
}
);
background = {
anchors = (
{
name = ogonek;
pos = (480,0);
},
{
name = top;
pos = (375,540);
}
);
shapes = (
{
closed = 1;
nodes = (
(735,540,l),
(15,540,l),
(15,270,ls),
(15,121,o),
(136,0,o),
(285,0,cs),
(735,0,l)
);
}
);
};
layerId = "76DA76B7-AE51-4169-AB0E-317D7E08960F";
shapes = (
{
closed = 1;
nodes = (
(735,540,l),
(15,540,l),
(15,270,ls),
(15,121,o),
(136,0,o),
(285,0,cs),
(735,0,l)
);
}
);
width = 750;
}
);
unicode = 117;
},
{
glyphname = uacute;
lastChange = "2026-04-30 13:10:11 +0000";
layers = (
{
background = {
anchors = (
{
name = ogonek;
pos = (480,0);
},
{
name = top;
pos = (375,720);
}
);
shapes = (
{
closed = 1;
nodes = (
(735,540,l),
(15,540,l),
(15,270,ls),
(15,121,o),
(136,0,o),
(285,0,cs),
(735,0,l)
);
},
{
closed = 1;
nodes = (
(519,540,o),
(600,621,o),
(600,720,c),
(240,720,l),
(240,670,o),
(200,630,o),
(150,630,c),
(150,540,l),
(420,540,ls)
);
}
);
};
layerId = "76DA76B7-AE51-4169-AB0E-317D7E08960F";
shapes = (
{
ref = u;
},
{
pos = (375,0);
ref = acutecomb;
}
);
width = 750;
}
);
unicode = 250;
},
{
glyphname = ucircumflex;
lastChange = "2026-04-30 13:10:11 +0000";
layers = (
{
background = {
anchors = (
{
name = ogonek;
pos = (480,0);
},
{
name = top;
pos = (375,720);
}
);
shapes = (
{
closed = 1;
nodes = (
(735,540,l),
(15,540,l),
(15,270,ls),
(15,121,o),
(136,0,o),
(285,0,cs),
(735,0,l)
);
},
{
closed = 1;
nodes = (
(335,540,o),
(375,580,o),
(375,630,c),
(375,580,o),
(415,540,o),
(465,540,cs),
(645,540,l),
(645,630,l),
(595,630,o),
(555,670,o),
(555,720,c),
(195,720,l),
(195,670,o),
(155,630,o),
(105,630,c),
(105,540,l),
(285,540,ls)
);
}
);
};
layerId = "76DA76B7-AE51-4169-AB0E-317D7E08960F";
shapes = (
{
ref = u;
},
{
pos = (375,0);
ref = circumflexcomb;
}
);
width = 750;
}
);
unicode = 251;
},
{
glyphname = udieresis;
lastChange = "2026-04-30 13:10:11 +0000";
layers = (
{
background = {
anchors = (
{
name = ogonek;
pos = (480,0);
},
{
name = top;
pos = (375,720);
}
);
shapes = (
{
closed = 1;
nodes = (
(735,540,l),
(15,540,l),
(15,270,ls),
(15,121,o),
(136,0,o),
(285,0,cs),
(735,0,l)
);
},
{
closed = 1;
nodes = (
(360,720,l),
(130,720,l),
(130,600,ls),
(130,567,o),
(157,540,o),
(190,540,cs),
(360,540,l)
);
},
{
closed = 1;
nodes = (
(620,720,l),
(390,720,l),
(390,600,ls),
(390,567,o),
(417,540,o),
(450,540,cs),
(620,540,l)
);
}
);
};
layerId = "76DA76B7-AE51-4169-AB0E-317D7E08960F";
shapes = (
{
ref = u;
},
{
pos = (375,0);
ref = dieresiscomb;
}
);
width = 750;
}
);
unicode = 252;
},
{
glyphname = ugrave;
lastChange = "2026-04-30 13:10:11 +0000";
layers = (
{
background = {
anchors = (
{
name = ogonek;
pos = (480,0);
},
{
name = top;
pos = (375,720);
}
);
shapes = (
{
closed = 1;
nodes = (
(735,540,l),
(15,540,l),
(15,270,ls),
(15,121,o),
(136,0,o),
(285,0,cs),
(735,0,l)
);
},
{
closed = 1;
nodes = (
(600,630,l),
(550,630,o),
(510,670,o),
(510,720,c),
(150,720,l),
(150,621,o),
(231,540,o),
(330,540,cs),
(600,540,l)
);
}
);
};
layerId = "76DA76B7-AE51-4169-AB0E-317D7E08960F";
shapes = (
{
ref = u;
},
{
pos = (375,0);
ref = gravecomb;
}
);
width = 750;
}
);
unicode = 249;
},
{
glyphname = uhungarumlaut;
lastChange = "2026-04-30 13:10:11 +0000";
layers = (
{
background = {
anchors = (
{
name = ogonek;
pos = (480,0);
},
{
name = top;
pos = (375,720);
}
);
shapes = (
{
closed = 1;
nodes = (
(735,540,l),
(15,540,l),
(15,270,ls),
(15,121,o),
(136,0,o),
(285,0,cs),
(735,0,l)
);
},
{
closed = 1;
nodes = (
(319,540,o),
(400,621,o),
(400,720,c),
(170,720,l),
(170,670,o),
(130,630,o),
(80,630,c),
(80,540,l),
(220,540,ls)
);
},
{
closed = 1;
nodes = (
(589,540,o),
(670,621,o),
(670,720,c),
(430,720,l),
(430,644,o),
(389,577,o),
(328,540,c),
(490,540,ls)
);
}
);
};
layerId = "76DA76B7-AE51-4169-AB0E-317D7E08960F";
shapes = (
{
ref = u;
},
{
pos = (375,0);
ref = hungarumlautcomb;
}
);
width = 750;
}
);
unicode = 369;
},
{
glyphname = umacron;
lastChange = "2026-04-30 13:10:11 +0000";
layers = (
{
background = {
anchors = (
{
name = ogonek;
pos = (480,0);
},
{
name = top;
pos = (375,720);
}
);
shapes = (
{
closed = 1;
nodes = (
(735,540,l),
(15,540,l),
(15,270,ls),
(15,121,o),
(136,0,o),
(285,0,cs),
(735,0,l)
);
},
{
closed = 1;
nodes = (
(645,720,l),
(105,720,l),
(105,600,ls),
(105,567,o),
(132,540,o),
(165,540,cs),
(645,540,l)
);
}
);
};
layerId = "76DA76B7-AE51-4169-AB0E-317D7E08960F";
shapes = (
{
ref = u;
},
{
pos = (375,0);
ref = macroncomb;
}
);
width = 750;
}
);
unicode = 363;
},
{
glyphname = uogonek;
lastChange = "2026-04-30 13:13:29 +0000";
layers = (
{
background = {
anchors = (
{
name = ogonek;
pos = (480,0);
},
{
name = top;
pos = (375,540);
}
);
shapes = (
{
closed = 1;
nodes = (
(735,540,l),
(15,540,l),
(15,270,ls),
(15,121,o),
(136,0,o),
(285,0,cs),
(735,0,l)
);
},
{
closed = 1;
nodes = (
(735,-30,l),
(555,-30,l),
(555,120,l),
(405,120,l),
(405,-60,ls),
(405,-126,o),
(459,-180,o),
(525,-180,cs),
(735,-180,l)
);
}
);
};
layerId = "76DA76B7-AE51-4169-AB0E-317D7E08960F";
shapes = (
{
ref = u;
},
{
pos = (570,-1);
ref = ogonekcomb;
}
);
width = 750;
}
);
unicode = 371;
},
{
glyphname = uring;
lastChange = "2026-04-30 13:10:11 +0000";
layers = (
{
background = {
anchors = (
{
name = ogonek;
pos = (480,0);
},
{
name = top;
pos = (375,720);
}
);
shapes = (
{
closed = 1;
nodes = (
(735,540,l),
(15,540,l),
(15,270,ls),
(15,121,o),
(136,0,o),
(285,0,cs),
(735,0,l)
);
},
{
closed = 1;
nodes = (
(485,540,o),
(525,580,o),
(525,630,cs),
(525,680,o),
(485,720,o),
(435,720,cs),
(315,720,ls),
(265,720,o),
(225,680,o),
(225,630,cs),
(225,580,o),
(265,540,o),
(315,540,cs),
(435,540,ls)
);
}
);
};
layerId = "76DA76B7-AE51-4169-AB0E-317D7E08960F";
shapes = (
{
ref = u;
},
{
pos = (375,0);
ref = ringcomb;
}
);
width = 750;
}
);
unicode = 367;
},
{
color = 11;
glyphname = v;
lastChange = "2026-04-30 13:10:06 +0000";
layers = (
{
background = {
shapes = (
{
closed = 1;
nodes = (
(574,0,o),
(735,161,o),
(735,360,cs),
(735,540,l),
(15,540,l),
(15,0,l),
(375,0,ls)
);
}
);
};
layerId = "76DA76B7-AE51-4169-AB0E-317D7E08960F";
shapes = (
{
closed = 1;
nodes = (
(574,0,o),
(735,161,o),
(735,360,cs),
(735,540,l),
(15,540,l),
(15,0,l),
(375,0,ls)
);
}
);
width = 750;
}
);
unicode = 118;
},
{
color = 11;
glyphname = w;
lastChange = "2026-04-30 13:10:06 +0000";
layers = (
{
anchors = (
{
name = top;
pos = (375,540);
}
);
background = {
anchors = (
{
name = top;
pos = (375,540);
}
);
shapes = (
{
closed = 1;
nodes = (
(317,0,o),
(375,58,o),
(375,130,c),
(375,58,o),
(433,0,o),
(505,0,cs),
(735,0,l),
(735,540,l),
(15,540,l),
(15,0,l),
(245,0,ls)
);
}
);
};
layerId = "76DA76B7-AE51-4169-AB0E-317D7E08960F";
shapes = (
{
closed = 1;
nodes = (
(317,0,o),
(375,58,o),
(375,130,c),
(375,58,o),
(433,0,o),
(505,0,cs),
(735,0,l),
(735,540,l),
(15,540,l),
(15,0,l),
(245,0,ls)
);
}
);
width = 750;
}
);
unicode = 119;
},
{
glyphname = wacute;
lastChange = "2026-04-30 13:10:11 +0000";
layers = (
{
background = {
anchors = (
{
name = top;
pos = (375,720);
}
);
shapes = (
{
closed = 1;
nodes = (
(317,0,o),
(375,58,o),
(375,130,c),
(375,58,o),
(433,0,o),
(505,0,cs),
(735,0,l),
(735,540,l),
(15,540,l),
(15,0,l),
(245,0,ls)
);
},
{
closed = 1;
nodes = (
(519,540,o),
(600,621,o),
(600,720,c),
(240,720,l),
(240,670,o),
(200,630,o),
(150,630,c),
(150,540,l),
(420,540,ls)
);
}
);
};
layerId = "76DA76B7-AE51-4169-AB0E-317D7E08960F";
shapes = (
{
ref = w;
},
{
pos = (375,0);
ref = acutecomb;
}
);
width = 750;
}
);
unicode = 7811;
},
{
glyphname = wcircumflex;
lastChange = "2026-04-30 13:10:11 +0000";
layers = (
{
background = {
anchors = (
{
name = top;
pos = (375,720);
}
);
shapes = (
{
closed = 1;
nodes = (
(317,0,o),
(375,58,o),
(375,130,c),
(375,58,o),
(433,0,o),
(505,0,cs),
(735,0,l),
(735,540,l),
(15,540,l),
(15,0,l),
(245,0,ls)
);
},
{
closed = 1;
nodes = (
(335,540,o),
(375,580,o),
(375,630,c),
(375,580,o),
(415,540,o),
(465,540,cs),
(645,540,l),
(645,630,l),
(595,630,o),
(555,670,o),
(555,720,c),
(195,720,l),
(195,670,o),
(155,630,o),
(105,630,c),
(105,540,l),
(285,540,ls)
);
}
);
};
layerId = "76DA76B7-AE51-4169-AB0E-317D7E08960F";
shapes = (
{
ref = w;
},
{
pos = (375,0);
ref = circumflexcomb;
}
);
width = 750;
}
);
unicode = 373;
},
{
glyphname = wdieresis;
lastChange = "2026-04-30 13:16:51 +0000";
layers = (
{
background = {
anchors = (
{
name = top;
pos = (375,720);
}
);
shapes = (
{
closed = 1;
nodes = (
(317,0,o),
(375,58,o),
(375,130,c),
(375,58,o),
(433,0,o),
(505,0,cs),
(735,0,l),
(735,540,l),
(15,540,l),
(15,0,l),
(245,0,ls)
);
},
{
closed = 1;
nodes = (
(360,720,l),
(130,720,l),
(130,600,ls),
(130,567,o),
(157,540,o),
(190,540,cs),
(360,540,l)
);
},
{
closed = 1;
nodes = (
(620,720,l),
(390,720,l),
(390,600,ls),
(390,567,o),
(417,540,o),
(450,540,cs),
(620,540,l)
);
}
);
};
layerId = "76DA76B7-AE51-4169-AB0E-317D7E08960F";
shapes = (
{
ref = w;
},
{
pos = (375,0);
ref = dieresiscomb;
}
);
width = 750;
}
);
unicode = 7813;
},
{
glyphname = wgrave;
lastChange = "2026-04-30 13:10:11 +0000";
layers = (
{
background = {
anchors = (
{
name = top;
pos = (375,720);
}
);
shapes = (
{
closed = 1;
nodes = (
(317,0,o),
(375,58,o),
(375,130,c),
(375,58,o),
(433,0,o),
(505,0,cs),
(735,0,l),
(735,540,l),
(15,540,l),
(15,0,l),
(245,0,ls)
);
},
{
closed = 1;
nodes = (
(600,630,l),
(550,630,o),
(510,670,o),
(510,720,c),
(150,720,l),
(150,621,o),
(231,540,o),
(330,540,cs),
(600,540,l)
);
}
);
};
layerId = "76DA76B7-AE51-4169-AB0E-317D7E08960F";
shapes = (
{
ref = w;
},
{
pos = (375,0);
ref = gravecomb;
}
);
width = 750;
}
);
unicode = 7809;
},
{
color = 11;
glyphname = x;
lastChange = "2026-04-30 13:10:06 +0000";
layers = (
{
background = {
shapes = (
{
closed = 1;
nodes = (
(735,140,ls),
(735,212,o),
(677,270,o),
(605,270,c),
(677,270,o),
(735,328,o),
(735,400,cs),
(735,540,l),
(15,540,l),
(15,400,ls),
(15,328,o),
(73,270,o),
(145,270,c),
(73,270,o),
(15,212,o),
(15,140,cs),
(15,0,l),
(735,0,l)
);
}
);
};
layerId = "76DA76B7-AE51-4169-AB0E-317D7E08960F";
shapes = (
{
closed = 1;
nodes = (
(735,140,ls),
(735,212,o),
(677,270,o),
(605,270,c),
(677,270,o),
(735,328,o),
(735,400,cs),
(735,540,l),
(15,540,l),
(15,400,ls),
(15,328,o),
(73,270,o),
(145,270,c),
(73,270,o),
(15,212,o),
(15,140,cs),
(15,0,l),
(735,0,l)
);
}
);
width = 750;
}
);
unicode = 120;
},
{
color = 11;
glyphname = y;
lastChange = "2026-04-30 13:10:06 +0000";
layers = (
{
anchors = (
{
name = top;
pos = (375,540);
}
);
background = {
anchors = (
{
name = top;
pos = (375,540);
}
);
shapes = (
{
closed = 1;
nodes = (
(654,-180,o),
(735,-99,o),
(735,0,cs),
(735,540,l),
(15,540,l),
(15,270,ls),
(15,121,o),
(136,0,o),
(285,0,cs),
(15,0,l),
(15,-180,l),
(555,-180,ls)
);
}
);
};
layerId = "76DA76B7-AE51-4169-AB0E-317D7E08960F";
shapes = (
{
closed = 1;
nodes = (
(654,-180,o),
(735,-99,o),
(735,0,cs),
(735,540,l),
(15,540,l),
(15,270,ls),
(15,121,o),
(136,0,o),
(285,0,cs),
(15,0,l),
(15,-180,l),
(555,-180,ls)
);
}
);
width = 750;
}
);
unicode = 121;
},
{
glyphname = yacute;
lastChange = "2026-04-30 13:10:11 +0000";
layers = (
{
background = {
anchors = (
{
name = top;
pos = (375,720);
}
);
shapes = (
{
closed = 1;
nodes = (
(654,-180,o),
(735,-99,o),
(735,0,cs),
(735,540,l),
(15,540,l),
(15,270,ls),
(15,121,o),
(136,0,o),
(285,0,cs),
(15,0,l),
(15,-180,l),
(555,-180,ls)
);
},
{
closed = 1;
nodes = (
(519,540,o),
(600,621,o),
(600,720,c),
(240,720,l),
(240,670,o),
(200,630,o),
(150,630,c),
(150,540,l),
(420,540,ls)
);
}
);
};
layerId = "76DA76B7-AE51-4169-AB0E-317D7E08960F";
shapes = (
{
ref = y;
},
{
pos = (375,0);
ref = acutecomb;
}
);
width = 750;
}
);
unicode = 253;
},
{
glyphname = ycircumflex;
lastChange = "2026-04-30 13:10:11 +0000";
layers = (
{
background = {
anchors = (
{
name = top;
pos = (375,720);
}
);
shapes = (
{
closed = 1;
nodes = (
(654,-180,o),
(735,-99,o),
(735,0,cs),
(735,540,l),
(15,540,l),
(15,270,ls),
(15,121,o),
(136,0,o),
(285,0,cs),
(15,0,l),
(15,-180,l),
(555,-180,ls)
);
},
{
closed = 1;
nodes = (
(335,540,o),
(375,580,o),
(375,630,c),
(375,580,o),
(415,540,o),
(465,540,cs),
(645,540,l),
(645,630,l),
(595,630,o),
(555,670,o),
(555,720,c),
(195,720,l),
(195,670,o),
(155,630,o),
(105,630,c),
(105,540,l),
(285,540,ls)
);
}
);
};
layerId = "76DA76B7-AE51-4169-AB0E-317D7E08960F";
shapes = (
{
ref = y;
},
{
pos = (375,0);
ref = circumflexcomb;
}
);
width = 750;
}
);
unicode = 375;
},
{
glyphname = ydieresis;
lastChange = "2026-04-30 13:10:11 +0000";
layers = (
{
background = {
anchors = (
{
name = top;
pos = (375,720);
}
);
shapes = (
{
closed = 1;
nodes = (
(654,-180,o),
(735,-99,o),
(735,0,cs),
(735,540,l),
(15,540,l),
(15,270,ls),
(15,121,o),
(136,0,o),
(285,0,cs),
(15,0,l),
(15,-180,l),
(555,-180,ls)
);
},
{
closed = 1;
nodes = (
(360,720,l),
(130,720,l),
(130,600,ls),
(130,567,o),
(157,540,o),
(190,540,cs),
(360,540,l)
);
},
{
closed = 1;
nodes = (
(620,720,l),
(390,720,l),
(390,600,ls),
(390,567,o),
(417,540,o),
(450,540,cs),
(620,540,l)
);
}
);
};
layerId = "76DA76B7-AE51-4169-AB0E-317D7E08960F";
shapes = (
{
ref = y;
},
{
pos = (375,0);
ref = dieresiscomb;
}
);
width = 750;
}
);
unicode = 255;
},
{
glyphname = ygrave;
lastChange = "2026-04-30 13:10:11 +0000";
layers = (
{
background = {
anchors = (
{
name = top;
pos = (375,720);
}
);
shapes = (
{
closed = 1;
nodes = (
(654,-180,o),
(735,-99,o),
(735,0,cs),
(735,540,l),
(15,540,l),
(15,270,ls),
(15,121,o),
(136,0,o),
(285,0,cs),
(15,0,l),
(15,-180,l),
(555,-180,ls)
);
},
{
closed = 1;
nodes = (
(600,630,l),
(550,630,o),
(510,670,o),
(510,720,c),
(150,720,l),
(150,621,o),
(231,540,o),
(330,540,cs),
(600,540,l)
);
}
);
};
layerId = "76DA76B7-AE51-4169-AB0E-317D7E08960F";
shapes = (
{
ref = y;
},
{
pos = (375,0);
ref = gravecomb;
}
);
width = 750;
}
);
unicode = 7923;
},
{
color = 11;
glyphname = z;
lastChange = "2026-04-30 13:10:06 +0000";
layers = (
{
anchors = (
{
name = top;
pos = (375,540);
}
);
background = {
anchors = (
{
name = top;
pos = (375,540);
}
);
shapes = (
{
closed = 1;
nodes = (
(735,270,l),
(595,270,ls),
(672,270,o),
(735,333,o),
(735,410,cs),
(735,540,l),
(15,540,l),
(15,270,l),
(155,270,ls),
(78,270,o),
(15,207,o),
(15,130,cs),
(15,0,l),
(735,0,l)
);
}
);
};
layerId = "76DA76B7-AE51-4169-AB0E-317D7E08960F";
shapes = (
{
closed = 1;
nodes = (
(735,270,l),
(595,270,ls),
(672,270,o),
(735,333,o),
(735,410,cs),
(735,540,l),
(15,540,l),
(15,270,l),
(155,270,ls),
(78,270,o),
(15,207,o),
(15,130,cs),
(15,0,l),
(735,0,l)
);
}
);
width = 750;
}
);
unicode = 122;
},
{
glyphname = zacute;
lastChange = "2026-04-30 13:10:11 +0000";
layers = (
{
background = {
anchors = (
{
name = top;
pos = (375,720);
}
);
shapes = (
{
closed = 1;
nodes = (
(735,270,l),
(595,270,ls),
(672,270,o),
(735,333,o),
(735,410,cs),
(735,540,l),
(15,540,l),
(15,270,l),
(155,270,ls),
(78,270,o),
(15,207,o),
(15,130,cs),
(15,0,l),
(735,0,l)
);
},
{
closed = 1;
nodes = (
(519,540,o),
(600,621,o),
(600,720,c),
(240,720,l),
(240,670,o),
(200,630,o),
(150,630,c),
(150,540,l),
(420,540,ls)
);
}
);
};
layerId = "76DA76B7-AE51-4169-AB0E-317D7E08960F";
shapes = (
{
ref = z;
},
{
pos = (375,0);
ref = acutecomb;
}
);
width = 750;
}
);
unicode = 378;
},
{
glyphname = zcaron;
lastChange = "2026-04-30 13:10:11 +0000";
layers = (
{
background = {
anchors = (
{
name = top;
pos = (375,720);
}
);
shapes = (
{
closed = 1;
nodes = (
(735,270,l),
(595,270,ls),
(672,270,o),
(735,333,o),
(735,410,cs),
(735,540,l),
(15,540,l),
(15,270,l),
(155,270,ls),
(78,270,o),
(15,207,o),
(15,130,cs),
(15,0,l),
(735,0,l)
);
},
{
closed = 1;
nodes = (
(555,590,o),
(595,630,o),
(645,630,c),
(645,720,l),
(465,720,ls),
(415,720,o),
(375,680,o),
(375,630,c),
(375,680,o),
(335,720,o),
(285,720,cs),
(105,720,l),
(105,630,l),
(155,630,o),
(195,590,o),
(195,540,c),
(555,540,l)
);
}
);
};
layerId = "76DA76B7-AE51-4169-AB0E-317D7E08960F";
shapes = (
{
ref = z;
},
{
pos = (375,0);
ref = caroncomb;
}
);
width = 750;
}
);
unicode = 382;
},
{
glyphname = zdotaccent;
lastChange = "2026-04-30 13:10:11 +0000";
layers = (
{
background = {
anchors = (
{
name = top;
pos = (375,720);
}
);
shapes = (
{
closed = 1;
nodes = (
(735,270,l),
(595,270,ls),
(672,270,o),
(735,333,o),
(735,410,cs),
(735,540,l),
(15,540,l),
(15,270,l),
(155,270,ls),
(78,270,o),
(15,207,o),
(15,130,cs),
(15,0,l),
(735,0,l)
);
},
{
closed = 1;
nodes = (
(495,720,l),
(255,720,l),
(255,600,ls),
(255,567,o),
(282,540,o),
(315,540,cs),
(495,540,l)
);
}
);
};
layerId = "76DA76B7-AE51-4169-AB0E-317D7E08960F";
shapes = (
{
ref = z;
},
{
pos = (375,0);
ref = dotaccentcomb;
}
);
width = 750;
}
);
unicode = 380;
},
{
glyphname = ordfeminine;
lastChange = "2026-04-30 13:08:34 +0000";
layers = (
{
layerId = "76DA76B7-AE51-4169-AB0E-317D7E08960F";
shapes = (
{
closed = 1;
nodes = (
(495,540,ls),
(495,639,o),
(414,720,o),
(315,720,cs),
(95,720,l),
(95,600,l),
(48,582,o),
(15,537,o),
(15,484,cs),
(15,416,o),
(71,360,o),
(139,360,cs),
(495,360,l)
);
}
);
width = 510;
}
);
unicode = 170;
},
{
glyphname = ordmasculine;
lastChange = "2026-04-30 13:08:34 +0000";
layers = (
{
layerId = "76DA76B7-AE51-4169-AB0E-317D7E08960F";
shapes = (
{
closed = 1;
nodes = (
(418,354,o),
(501,437,o),
(501,540,cs),
(501,643,o),
(418,726,o),
(315,726,cs),
(195,726,ls),
(92,726,o),
(9,643,o),
(9,540,cs),
(9,437,o),
(92,354,o),
(195,354,cs),
(315,354,ls)
);
}
);
width = 510;
}
);
unicode = 186;
},
{
glyphname = zero;
lastChange = "2026-04-30 13:08:34 +0000";
layers = (
{
layerId = "76DA76B7-AE51-4169-AB0E-317D7E08960F";
shapes = (
{
closed = 1;
nodes = (
(628,0,o),
(735,107,o),
(735,240,cs),
(735,480,ls),
(735,613,o),
(628,720,o),
(495,720,cs),
(255,720,ls),
(122,720,o),
(15,613,o),
(15,480,cs),
(15,240,ls),
(15,107,o),
(122,0,o),
(255,0,cs),
(495,0,ls)
);
}
);
width = 750;
}
);
unicode = 48;
},
{
glyphname = one;
lastChange = "2026-04-30 13:08:34 +0000";
layers = (
{
layerId = "76DA76B7-AE51-4169-AB0E-317D7E08960F";
shapes = (
{
closed = 1;
nodes = (
(735,0,l),
(735,240,l),
(645,240,l),
(645,720,l),
(105,720,l),
(105,670,o),
(65,630,o),
(15,630,c),
(15,480,l),
(105,480,l),
(105,240,l),
(15,240,l),
(15,0,l)
);
}
);
width = 750;
}
);
unicode = 49;
},
{
glyphname = two;
lastChange = "2026-04-30 13:08:34 +0000";
layers = (
{
layerId = "76DA76B7-AE51-4169-AB0E-317D7E08960F";
shapes = (
{
closed = 1;
nodes = (
(735,360,l),
(629,360,l),
(697,388,o),
(745,455,o),
(745,533,cs),
(745,636,o),
(661,720,o),
(558,720,cs),
(15,720,l),
(15,360,l),
(131,360,l),
(63,332,o),
(15,265,o),
(15,187,cs),
(15,0,l),
(735,0,l)
);
}
);
width = 750;
}
);
unicode = 50;
},
{
glyphname = three;
lastChange = "2026-04-30 13:08:34 +0000";
layers = (
{
layerId = "76DA76B7-AE51-4169-AB0E-317D7E08960F";
shapes = (
{
closed = 1;
nodes = (
(651,0,o),
(735,84,o),
(735,187,cs),
(735,265,o),
(687,332,o),
(619,360,c),
(687,388,o),
(735,455,o),
(735,533,cs),
(735,636,o),
(651,720,o),
(548,720,cs),
(15,720,l),
(15,480,l),
(75,480,l),
(75,240,l),
(15,240,l),
(15,0,l),
(548,0,ls)
);
}
);
width = 750;
}
);
unicode = 51;
},
{
glyphname = four;
lastChange = "2026-04-30 13:08:34 +0000";
layers = (
{
layerId = "76DA76B7-AE51-4169-AB0E-317D7E08960F";
shapes = (
{
closed = 1;
nodes = (
(675,120,l),
(735,120,l),
(735,360,l),
(675,360,l),
(675,720,l),
(255,720,ls),
(122,720,o),
(15,613,o),
(15,480,cs),
(15,120,l),
(75,120,l),
(75,0,l),
(675,0,l)
);
}
);
width = 750;
}
);
unicode = 52;
},
{
glyphname = five;
lastChange = "2026-04-30 13:08:34 +0000";
layers = (
{
layerId = "76DA76B7-AE51-4169-AB0E-317D7E08960F";
shapes = (
{
closed = 1;
nodes = (
(631,0,o),
(745,114,o),
(745,255,cs),
(745,352,o),
(690,437,o),
(610,480,c),
(735,480,l),
(735,720,l),
(15,720,l),
(15,240,l),
(75,240,l),
(75,0,l),
(490,0,ls)
);
}
);
width = 750;
}
);
unicode = 53;
},
{
glyphname = six;
lastChange = "2026-04-30 13:08:34 +0000";
layers = (
{
layerId = "76DA76B7-AE51-4169-AB0E-317D7E08960F";
shapes = (
{
closed = 1;
nodes = (
(621,0,o),
(735,114,o),
(735,255,cs),
(735,352,o),
(680,437,o),
(600,480,c),
(735,480,l),
(735,613,o),
(628,720,o),
(495,720,cs),
(255,720,ls),
(122,720,o),
(15,613,o),
(15,480,cs),
(15,240,ls),
(15,107,o),
(122,0,o),
(255,0,cs),
(480,0,ls)
);
}
);
width = 750;
}
);
unicode = 54;
},
{
glyphname = seven;
lastChange = "2026-04-30 13:08:34 +0000";
layers = (
{
layerId = "76DA76B7-AE51-4169-AB0E-317D7E08960F";
shapes = (
{
closed = 1;
nodes = (
(675,300,ls),
(675,333,o),
(702,360,o),
(735,360,c),
(735,720,l),
(15,720,l),
(15,360,l),
(195,360,ls),
(129,360,o),
(75,306,o),
(75,240,cs),
(75,0,l),
(675,0,l)
);
}
);
width = 750;
}
);
unicode = 55;
},
{
glyphname = eight;
lastChange = "2026-04-30 13:08:34 +0000";
layers = (
{
layerId = "76DA76B7-AE51-4169-AB0E-317D7E08960F";
shapes = (
{
closed = 1;
nodes = (
(651,0,o),
(735,84,o),
(735,187,cs),
(735,265,o),
(687,332,o),
(619,360,c),
(687,388,o),
(735,455,o),
(735,533,cs),
(735,636,o),
(651,720,o),
(548,720,cs),
(202,720,ls),
(99,720,o),
(15,636,o),
(15,533,cs),
(15,455,o),
(63,388,o),
(131,360,c),
(63,332,o),
(15,265,o),
(15,187,cs),
(15,84,o),
(99,0,o),
(202,0,cs),
(548,0,ls)
);
}
);
width = 750;
}
);
unicode = 56;
},
{
glyphname = nine;
lastChange = "2026-04-30 13:08:34 +0000";
layers = (
{
layerId = "76DA76B7-AE51-4169-AB0E-317D7E08960F";
shapes = (
{
closed = 1;
nodes = (
(628,0,o),
(735,107,o),
(735,240,cs),
(735,480,ls),
(735,613,o),
(628,720,o),
(495,720,cs),
(270,720,ls),
(129,720,o),
(15,606,o),
(15,465,cs),
(15,368,o),
(70,283,o),
(150,240,c),
(15,240,l),
(15,107,o),
(122,0,o),
(255,0,cs),
(495,0,ls)
);
}
);
width = 750;
}
);
unicode = 57;
},
{
glyphname = .notdef;
lastChange = "2026-04-30 13:08:34 +0000";
layers = (
{
layerId = "76DA76B7-AE51-4169-AB0E-317D7E08960F";
shapes = (
{
closed = 1;
nodes = (
(555,0,l),
(555,720,l),
(15,720,l),
(15,0,l)
);
},
{
closed = 1;
nodes = (
(45,690,l),
(525,690,l),
(525,30,l),
(45,30,l)
);
},
{
closed = 1;
nodes = (
(151,255,o),
(120,224,o),
(120,185,cs),
(120,150,l),
(435,150,l),
(435,185,ls),
(435,224,o),
(404,255,o),
(365,255,cs),
(435,255,l),
(435,360,l),
(476,376,o),
(505,415,o),
(505,462,cs),
(505,521,o),
(456,570,o),
(397,570,cs),
(85,570,l),
(85,465,l),
(120,465,l),
(120,255,l),
(190,255,ls)
);
}
);
width = 570;
}
);
},
{
glyphname = period;
lastChange = "2026-04-30 13:08:34 +0000";
layers = (
{
layerId = "76DA76B7-AE51-4169-AB0E-317D7E08960F";
shapes = (
{
closed = 1;
nodes = (
(285,135,ls),
(285,210,o),
(225,270,o),
(150,270,cs),
(15,270,l),
(15,0,l),
(285,0,l)
);
}
);
width = 300;
}
);
unicode = 46;
},
{
glyphname = comma;
lastChange = "2026-04-30 13:08:34 +0000";
layers = (
{
layerId = "76DA76B7-AE51-4169-AB0E-317D7E08960F";
shapes = (
{
closed = 1;
nodes = (
(225,-135,o),
(285,-75,o),
(285,0,cs),
(285,135,ls),
(285,210,o),
(225,270,o),
(150,270,cs),
(15,270,l),
(15,0,l),
(150,0,l),
(150,-135,l)
);
}
);
width = 300;
}
);
unicode = 44;
},
{
glyphname = colon;
lastChange = "2026-04-30 13:08:34 +0000";
layers = (
{
layerId = "76DA76B7-AE51-4169-AB0E-317D7E08960F";
shapes = (
{
closed = 1;
nodes = (
(285,540,l),
(15,540,l),
(15,405,ls),
(15,330,o),
(75,270,o),
(150,270,cs),
(285,270,l)
);
},
{
closed = 1;
nodes = (
(285,135,ls),
(285,210,o),
(225,270,o),
(150,270,cs),
(15,270,l),
(15,0,l),
(285,0,l)
);
}
);
width = 300;
}
);
unicode = 58;
},
{
glyphname = semicolon;
lastChange = "2026-04-30 13:08:34 +0000";
layers = (
{
layerId = "76DA76B7-AE51-4169-AB0E-317D7E08960F";
shapes = (
{
closed = 1;
nodes = (
(285,540,l),
(15,540,l),
(15,405,ls),
(15,330,o),
(75,270,o),
(150,270,cs),
(285,270,l)
);
},
{
closed = 1;
nodes = (
(225,-135,o),
(285,-75,o),
(285,0,cs),
(285,135,ls),
(285,210,o),
(225,270,o),
(150,270,cs),
(15,270,l),
(15,0,l),
(150,0,l),
(150,-135,l)
);
}
);
width = 300;
}
);
unicode = 59;
},
{
glyphname = ellipsis;
lastChange = "2026-04-30 13:08:34 +0000";
layers = (
{
layerId = "76DA76B7-AE51-4169-AB0E-317D7E08960F";
shapes = (
{
closed = 1;
nodes = (
(285,135,ls),
(285,210,o),
(225,270,o),
(150,270,cs),
(15,270,l),
(15,0,l),
(285,0,l)
);
},
{
closed = 1;
nodes = (
(585,135,ls),
(585,210,o),
(525,270,o),
(450,270,cs),
(315,270,l),
(315,0,l),
(585,0,l)
);
},
{
closed = 1;
nodes = (
(885,135,ls),
(885,210,o),
(825,270,o),
(750,270,cs),
(615,270,l),
(615,0,l),
(885,0,l)
);
}
);
width = 900;
}
);
unicode = 8230;
},
{
glyphname = exclam;
lastChange = "2026-04-30 13:08:34 +0000";
layers = (
{
layerId = "76DA76B7-AE51-4169-AB0E-317D7E08960F";
shapes = (
{
closed = 1;
nodes = (
(15,180,l),
(135,180,ls),
(69,180,o),
(15,126,o),
(15,60,cs),
(15,0,l),
(555,0,l),
(555,60,ls),
(555,126,o),
(501,180,o),
(435,180,cs),
(555,180,l),
(555,720,l),
(15,720,l)
);
}
);
width = 570;
}
);
unicode = 33;
},
{
glyphname = exclamdown;
lastChange = "2026-04-30 13:08:34 +0000";
layers = (
{
layerId = "76DA76B7-AE51-4169-AB0E-317D7E08960F";
shapes = (
{
closed = 1;
nodes = (
(15,540,l),
(15,480,ls),
(15,414,o),
(69,360,o),
(135,360,cs),
(15,360,l),
(15,-180,l),
(555,-180,l),
(555,360,l),
(435,360,ls),
(501,360,o),
(555,414,o),
(555,480,cs),
(555,540,l)
);
}
);
width = 570;
}
);
unicode = 161;
},
{
glyphname = question;
lastChange = "2026-04-30 13:08:34 +0000";
layers = (
{
layerId = "76DA76B7-AE51-4169-AB0E-317D7E08960F";
shapes = (
{
closed = 1;
nodes = (
(15,540,l),
(75,540,l),
(75,180,l),
(195,180,ls),
(129,180,o),
(75,126,o),
(75,60,cs),
(75,0,l),
(615,0,l),
(615,60,ls),
(615,126,o),
(561,180,o),
(495,180,cs),
(615,180,l),
(615,360,l),
(685,387,o),
(735,455,o),
(735,534,cs),
(735,637,o),
(652,720,o),
(549,720,cs),
(15,720,l)
);
}
);
width = 750;
}
);
unicode = 63;
},
{
glyphname = questiondown;
lastChange = "2026-04-30 13:08:34 +0000";
layers = (
{
layerId = "76DA76B7-AE51-4169-AB0E-317D7E08960F";
shapes = (
{
closed = 1;
nodes = (
(555,360,ls),
(621,360,o),
(675,414,o),
(675,480,cs),
(675,540,l),
(135,540,l),
(135,480,ls),
(135,414,o),
(189,360,o),
(255,360,cs),
(135,360,l),
(135,180,l),
(65,153,o),
(15,85,o),
(15,6,cs),
(15,-97,o),
(98,-180,o),
(201,-180,cs),
(735,-180,l),
(735,0,l),
(675,0,l),
(675,360,l)
);
}
);
width = 750;
}
);
unicode = 191;
},
{
glyphname = periodcentered;
lastChange = "2026-04-30 13:08:34 +0000";
layers = (
{
layerId = "76DA76B7-AE51-4169-AB0E-317D7E08960F";
shapes = (
{
closed = 1;
nodes = (
(285,360,ls),
(285,435,o),
(225,495,o),
(150,495,cs),
(15,495,l),
(15,225,l),
(285,225,l)
);
}
);
width = 300;
}
);
unicode = 183;
},
{
glyphname = bullet;
lastChange = "2026-04-30 13:08:34 +0000";
layers = (
{
layerId = "76DA76B7-AE51-4169-AB0E-317D7E08960F";
shapes = (
{
closed = 1;
nodes = (
(286,183,o),
(365,262,o),
(365,360,cs),
(365,458,o),
(286,538,o),
(188,538,cs),
(89,538,o),
(10,458,o),
(10,360,cs),
(10,262,o),
(89,183,o),
(188,183,cs)
);
}
);
width = 375;
}
);
unicode = 8226;
},
{
glyphname = asterisk;
lastChange = "2026-04-30 13:08:34 +0000";
layers = (
{
layerId = "76DA76B7-AE51-4169-AB0E-317D7E08960F";
shapes = (
{
closed = 1;
nodes = (
(365,280,l),
(382,280,o),
(395,267,o),
(395,250,cs),
(395,210,l),
(555,210,l),
(555,360,ls),
(555,410,o),
(515,450,o),
(465,450,c),
(515,450,o),
(555,490,o),
(555,540,cs),
(555,690,l),
(395,690,l),
(395,650,ls),
(395,633,o),
(382,620,o),
(365,620,c),
(365,720,l),
(205,720,l),
(205,620,l),
(188,620,o),
(175,633,o),
(175,650,cs),
(175,690,l),
(15,690,l),
(15,540,ls),
(15,490,o),
(55,450,o),
(105,450,c),
(55,450,o),
(15,410,o),
(15,360,cs),
(15,210,l),
(175,210,l),
(175,250,ls),
(175,267,o),
(188,280,o),
(205,280,c),
(205,180,l),
(365,180,l)
);
}
);
width = 570;
}
);
unicode = 42;
},
{
glyphname = numbersign;
lastChange = "2026-04-30 13:08:34 +0000";
layers = (
{
layerId = "76DA76B7-AE51-4169-AB0E-317D7E08960F";
shapes = (
{
closed = 1;
nodes = (
(360,90,l),
(390,90,l),
(390,0,l),
(645,0,l),
(645,90,l),
(735,90,l),
(735,345,l),
(645,345,l),
(645,375,l),
(735,375,l),
(735,630,l),
(645,630,l),
(645,720,l),
(390,720,l),
(390,630,l),
(360,630,l),
(360,720,l),
(105,720,l),
(105,630,l),
(15,630,l),
(15,375,l),
(105,375,l),
(105,345,l),
(15,345,l),
(15,90,l),
(105,90,l),
(105,0,l),
(360,0,l)
);
}
);
width = 750;
}
);
unicode = 35;
},
{
glyphname = slash;
lastChange = "2026-04-30 13:08:34 +0000";
layers = (
{
layerId = "76DA76B7-AE51-4169-AB0E-317D7E08960F";
shapes = (
{
closed = 1;
nodes = (
(447,156,ls),
(447,236,o),
(511,300,o),
(591,300,cs),
(671,300,o),
(735,364,o),
(735,444,cs),
(735,720,l),
(303,720,l),
(303,564,ls),
(303,484,o),
(239,420,o),
(159,420,cs),
(79,420,o),
(15,356,o),
(15,276,cs),
(15,0,l),
(447,0,l)
);
}
);
width = 750;
}
);
unicode = 47;
},
{
glyphname = backslash;
lastChange = "2026-04-30 13:08:34 +0000";
layers = (
{
layerId = "76DA76B7-AE51-4169-AB0E-317D7E08960F";
shapes = (
{
closed = 1;
nodes = (
(735,276,ls),
(735,356,o),
(671,420,o),
(591,420,cs),
(511,420,o),
(447,484,o),
(447,564,cs),
(447,720,l),
(15,720,l),
(15,444,ls),
(15,364,o),
(79,300,o),
(159,300,cs),
(239,300,o),
(303,236,o),
(303,156,cs),
(303,0,l),
(735,0,l)
);
}
);
width = 750;
}
);
unicode = 92;
},
{
export = 0;
glyphname = periodcentered.alt;
lastChange = "2026-04-30 13:08:34 +0000";
layers = (
{
layerId = "76DA76B7-AE51-4169-AB0E-317D7E08960F";
shapes = (
{
closed = 1;
nodes = (
(255,240,l),
(255,360,ls),
(255,426,o),
(201,480,o),
(135,480,cs),
(15,480,l),
(15,240,l)
);
}
);
width = 270;
}
);
},
{
glyphname = hyphen;
lastChange = "2026-04-30 13:08:34 +0000";
layers = (
{
layerId = "76DA76B7-AE51-4169-AB0E-317D7E08960F";
shapes = (
{
closed = 1;
nodes = (
(495,465,l),
(15,465,l),
(15,75,l),
(495,75,l)
);
}
);
width = 510;
}
);
unicode = 45;
},
{
glyphname = endash;
lastChange = "2026-04-30 13:08:34 +0000";
layers = (
{
layerId = "76DA76B7-AE51-4169-AB0E-317D7E08960F";
shapes = (
{
closed = 1;
nodes = (
(555,435,l),
(15,435,l),
(15,105,l),
(555,105,l)
);
}
);
width = 570;
}
);
unicode = 8211;
},
{
glyphname = emdash;
lastChange = "2026-04-30 13:08:34 +0000";
layers = (
{
layerId = "76DA76B7-AE51-4169-AB0E-317D7E08960F";
shapes = (
{
closed = 1;
nodes = (
(735,435,l),
(15,435,l),
(15,105,l),
(735,105,l)
);
}
);
width = 750;
}
);
unicode = 8212;
},
{
glyphname = underscore;
lastChange = "2026-04-30 13:08:34 +0000";
layers = (
{
layerId = "76DA76B7-AE51-4169-AB0E-317D7E08960F";
shapes = (
{
closed = 1;
nodes = (
(555,0,l),
(15,0,l),
(15,-180,l),
(555,-180,l)
);
}
);
width = 570;
}
);
unicode = 95;
},
{
glyphname = parenleft;
lastChange = "2026-04-30 13:08:34 +0000";
layers = (
{
layerId = "76DA76B7-AE51-4169-AB0E-317D7E08960F";
shapes = (
{
closed = 1;
nodes = (
(555,0,l),
(522,0,o),
(495,27,o),
(495,60,cs),
(495,480,ls),
(495,513,o),
(522,540,o),
(555,540,c),
(555,720,l),
(375,720,ls),
(176,720,o),
(15,559,o),
(15,360,cs),
(15,180,ls),
(15,-19,o),
(176,-180,o),
(375,-180,cs),
(555,-180,l)
);
}
);
width = 570;
}
);
unicode = 40;
},
{
glyphname = parenright;
lastChange = "2026-04-30 13:08:34 +0000";
layers = (
{
layerId = "76DA76B7-AE51-4169-AB0E-317D7E08960F";
shapes = (
{
closed = 1;
nodes = (
(394,-180,o),
(555,-19,o),
(555,180,cs),
(555,360,ls),
(555,559,o),
(394,720,o),
(195,720,cs),
(15,720,l),
(15,540,l),
(48,540,o),
(75,513,o),
(75,480,cs),
(75,60,ls),
(75,27,o),
(48,0,o),
(15,0,c),
(15,-180,l),
(195,-180,ls)
);
}
);
width = 570;
}
);
unicode = 41;
},
{
glyphname = braceleft;
lastChange = "2026-04-30 13:08:34 +0000";
layers = (
{
layerId = "76DA76B7-AE51-4169-AB0E-317D7E08960F";
shapes = (
{
closed = 1;
nodes = (
(645,0,l),
(595,0,o),
(555,40,o),
(555,90,cs),
(555,180,ls),
(555,230,o),
(515,270,o),
(465,270,c),
(515,270,o),
(555,310,o),
(555,360,cs),
(555,450,ls),
(555,500,o),
(595,540,o),
(645,540,c),
(645,720,l),
(195,720,ls),
(145,720,o),
(105,680,o),
(105,630,cs),
(105,540,ls),
(105,490,o),
(65,450,o),
(15,450,c),
(15,90,l),
(65,90,o),
(105,50,o),
(105,0,cs),
(105,-90,ls),
(105,-140,o),
(145,-180,o),
(195,-180,cs),
(645,-180,l)
);
}
);
width = 660;
}
);
unicode = 123;
},
{
glyphname = braceright;
lastChange = "2026-04-30 13:08:34 +0000";
layers = (
{
layerId = "76DA76B7-AE51-4169-AB0E-317D7E08960F";
shapes = (
{
closed = 1;
nodes = (
(515,-180,o),
(555,-140,o),
(555,-90,cs),
(555,0,ls),
(555,50,o),
(595,90,o),
(645,90,c),
(645,450,l),
(595,450,o),
(555,490,o),
(555,540,cs),
(555,630,ls),
(555,680,o),
(515,720,o),
(465,720,cs),
(15,720,l),
(15,540,l),
(65,540,o),
(105,500,o),
(105,450,cs),
(105,360,ls),
(105,310,o),
(145,270,o),
(195,270,c),
(145,270,o),
(105,230,o),
(105,180,cs),
(105,90,ls),
(105,40,o),
(65,0,o),
(15,0,c),
(15,-180,l),
(465,-180,ls)
);
}
);
width = 660;
}
);
unicode = 125;
},
{
glyphname = bracketleft;
lastChange = "2026-04-30 13:08:34 +0000";
layers = (
{
layerId = "76DA76B7-AE51-4169-AB0E-317D7E08960F";
shapes = (
{
closed = 1;
nodes = (
(555,0,l),
(495,0,l),
(495,540,l),
(555,540,l),
(555,720,l),
(15,720,l),
(15,-180,l),
(555,-180,l)
);
}
);
width = 570;
}
);
unicode = 91;
},
{
glyphname = bracketright;
lastChange = "2026-04-30 13:08:34 +0000";
layers = (
{
layerId = "76DA76B7-AE51-4169-AB0E-317D7E08960F";
shapes = (
{
closed = 1;
nodes = (
(555,720,l),
(15,720,l),
(15,540,l),
(75,540,l),
(75,0,l),
(15,0,l),
(15,-180,l),
(555,-180,l)
);
}
);
width = 570;
}
);
unicode = 93;
},
{
glyphname = quotesinglbase;
lastChange = "2026-04-30 13:08:34 +0000";
layers = (
{
layerId = "76DA76B7-AE51-4169-AB0E-317D7E08960F";
shapes = (
{
closed = 1;
nodes = (
(225,-135,o),
(285,-75,o),
(285,0,cs),
(285,135,ls),
(285,210,o),
(225,270,o),
(150,270,cs),
(15,270,l),
(15,0,l),
(150,0,l),
(150,-135,l)
);
}
);
width = 300;
}
);
unicode = 8218;
},
{
glyphname = quotedblbase;
lastChange = "2026-04-30 13:08:34 +0000";
layers = (
{
layerId = "76DA76B7-AE51-4169-AB0E-317D7E08960F";
shapes = (
{
closed = 1;
nodes = (
(285,135,ls),
(285,210,o),
(225,270,o),
(150,270,cs),
(15,270,l),
(15,0,l),
(150,0,l),
(150,-135,l),
(225,-135,o),
(285,-75,o),
(285,0,c),
(420,0,l),
(420,-135,l),
(495,-135,o),
(555,-75,o),
(555,0,cs),
(555,135,ls),
(555,210,o),
(495,270,o),
(420,270,cs),
(285,270,l)
);
}
);
width = 570;
}
);
unicode = 8222;
},
{
glyphname = quotedblleft;
lastChange = "2026-04-30 13:08:34 +0000";
layers = (
{
layerId = "76DA76B7-AE51-4169-AB0E-317D7E08960F";
shapes = (
{
closed = 1;
nodes = (
(345,720,o),
(285,660,o),
(285,585,c),
(150,585,l),
(150,720,l),
(75,720,o),
(15,660,o),
(15,585,cs),
(15,450,ls),
(15,375,o),
(75,315,o),
(150,315,cs),
(285,315,l),
(285,450,ls),
(285,375,o),
(345,315,o),
(420,315,cs),
(555,315,l),
(555,585,l),
(420,585,l),
(420,720,l)
);
}
);
width = 570;
}
);
unicode = 8220;
},
{
glyphname = quotedblright;
lastChange = "2026-04-30 13:08:34 +0000";
layers = (
{
layerId = "76DA76B7-AE51-4169-AB0E-317D7E08960F";
shapes = (
{
closed = 1;
nodes = (
(285,585,ls),
(285,660,o),
(225,720,o),
(150,720,cs),
(15,720,l),
(15,450,l),
(150,450,l),
(150,315,l),
(225,315,o),
(285,375,o),
(285,450,c),
(420,450,l),
(420,315,l),
(495,315,o),
(555,375,o),
(555,450,cs),
(555,585,ls),
(555,660,o),
(495,720,o),
(420,720,cs),
(285,720,l)
);
}
);
width = 570;
}
);
unicode = 8221;
},
{
glyphname = quoteleft;
lastChange = "2026-04-30 13:08:34 +0000";
layers = (
{
layerId = "76DA76B7-AE51-4169-AB0E-317D7E08960F";
shapes = (
{
closed = 1;
nodes = (
(285,585,l),
(150,585,l),
(150,720,l),
(75,720,o),
(15,660,o),
(15,585,cs),
(15,450,ls),
(15,375,o),
(75,315,o),
(150,315,cs),
(285,315,l)
);
}
);
width = 300;
}
);
unicode = 8216;
},
{
glyphname = quoteright;
lastChange = "2026-04-30 13:08:34 +0000";
layers = (
{
layerId = "76DA76B7-AE51-4169-AB0E-317D7E08960F";
shapes = (
{
closed = 1;
nodes = (
(225,315,o),
(285,375,o),
(285,450,cs),
(285,585,ls),
(285,660,o),
(225,720,o),
(150,720,cs),
(15,720,l),
(15,450,l),
(150,450,l),
(150,315,l)
);
}
);
width = 300;
}
);
unicode = 8217;
},
{
glyphname = guillemetleft;
lastChange = "2026-04-30 13:08:34 +0000";
layers = (
{
layerId = "76DA76B7-AE51-4169-AB0E-317D7E08960F";
shapes = (
{
closed = 1;
nodes = (
(511,540,l),
(511,466,o),
(459,404,o),
(390,388,c),
(393,400,o),
(395,413,o),
(395,426,cs),
(395,540,l),
(171,540,l),
(171,454,o),
(101,384,o),
(15,384,c),
(15,156,l),
(101,156,o),
(171,86,o),
(171,0,c),
(395,0,l),
(395,114,ls),
(395,127,o),
(393,140,o),
(390,152,c),
(459,136,o),
(511,74,o),
(511,0,c),
(735,0,l),
(735,114,ls),
(735,200,o),
(665,270,o),
(579,270,c),
(665,270,o),
(735,340,o),
(735,426,cs),
(735,540,l)
);
},
{
closed = 1;
nodes = (
(285,270,o),
(326,290,o),
(355,322,c),
(355,218,l),
(326,250,o),
(285,270,o),
(239,270,c)
);
}
);
width = 750;
}
);
unicode = 171;
},
{
glyphname = guillemetright;
lastChange = "2026-04-30 13:08:34 +0000";
layers = (
{
layerId = "76DA76B7-AE51-4169-AB0E-317D7E08960F";
shapes = (
{
closed = 1;
nodes = (
(355,426,ls),
(355,413,o),
(357,400,o),
(360,388,c),
(291,404,o),
(239,466,o),
(239,540,c),
(15,540,l),
(15,426,ls),
(15,340,o),
(85,270,o),
(171,270,c),
(85,270,o),
(15,200,o),
(15,114,cs),
(15,0,l),
(239,0,l),
(239,74,o),
(291,136,o),
(360,152,c),
(357,140,o),
(355,127,o),
(355,114,cs),
(355,0,l),
(579,0,l),
(579,86,o),
(649,156,o),
(735,156,c),
(735,384,l),
(649,384,o),
(579,454,o),
(579,540,c),
(355,540,l)
);
},
{
closed = 1;
nodes = (
(424,290,o),
(465,270,o),
(511,270,c),
(465,270,o),
(424,250,o),
(395,218,c),
(395,322,l)
);
}
);
width = 750;
}
);
unicode = 187;
},
{
glyphname = guilsinglleft;
lastChange = "2026-04-30 13:08:34 +0000";
layers = (
{
layerId = "76DA76B7-AE51-4169-AB0E-317D7E08960F";
shapes = (
{
closed = 1;
nodes = (
(555,114,ls),
(555,200,o),
(485,270,o),
(399,270,c),
(485,270,o),
(555,340,o),
(555,426,cs),
(555,540,l),
(171,540,l),
(171,454,o),
(101,384,o),
(15,384,c),
(15,156,l),
(101,156,o),
(171,86,o),
(171,0,c),
(555,0,l)
);
}
);
width = 570;
}
);
unicode = 8249;
},
{
glyphname = guilsinglright;
lastChange = "2026-04-30 13:08:34 +0000";
layers = (
{
layerId = "76DA76B7-AE51-4169-AB0E-317D7E08960F";
shapes = (
{
closed = 1;
nodes = (
(399,86,o),
(469,156,o),
(555,156,c),
(555,384,l),
(469,384,o),
(399,454,o),
(399,540,c),
(15,540,l),
(15,426,ls),
(15,340,o),
(85,270,o),
(171,270,c),
(85,270,o),
(15,200,o),
(15,114,cs),
(15,0,l),
(399,0,l)
);
}
);
width = 570;
}
);
unicode = 8250;
},
{
glyphname = quotedbl;
lastChange = "2026-04-30 13:08:34 +0000";
layers = (
{
layerId = "76DA76B7-AE51-4169-AB0E-317D7E08960F";
shapes = (
{
closed = 1;
nodes = (
(270,720,l),
(15,720,l),
(15,360,l),
(270,360,l)
);
},
{
closed = 1;
nodes = (
(555,720,l),
(300,720,l),
(300,360,l),
(555,360,l)
);
}
);
width = 570;
}
);
unicode = 34;
},
{
glyphname = quotesingle;
lastChange = "2026-04-30 13:08:34 +0000";
layers = (
{
layerId = "76DA76B7-AE51-4169-AB0E-317D7E08960F";
shapes = (
{
closed = 1;
nodes = (
(270,720,l),
(15,720,l),
(15,360,l),
(270,360,l)
);
}
);
width = 285;
}
);
unicode = 39;
},
{
glyphname = at;
lastChange = "2026-04-30 13:08:34 +0000";
layers = (
{
layerId = "76DA76B7-AE51-4169-AB0E-317D7E08960F";
shapes = (
{
closed = 1;
nodes = (
(735,365,ls),
(735,567,o),
(572,730,o),
(370,730,cs),
(168,730,o),
(5,567,o),
(5,365,cs),
(5,163,o),
(168,0,o),
(370,0,cs),
(735,0,l)
);
},
{
closed = 1;
nodes = (
(256,180,o),
(175,261,o),
(175,360,cs),
(175,459,o),
(256,540,o),
(355,540,cs),
(384,540,o),
(411,533,o),
(435,521,c),
(435,540,l),
(575,540,l),
(575,180,l),
(435,180,l),
(435,199,l),
(411,187,o),
(384,180,o),
(355,180,cs)
);
}
);
width = 750;
}
);
unicode = 64;
},
{
glyphname = ampersand;
lastChange = "2026-04-30 13:08:34 +0000";
layers = (
{
layerId = "76DA76B7-AE51-4169-AB0E-317D7E08960F";
shapes = (
{
closed = 1;
nodes = (
(735,360,l),
(619,360,l),
(687,388,o),
(735,455,o),
(735,533,cs),
(735,636,o),
(651,720,o),
(548,720,cs),
(202,720,ls),
(99,720,o),
(15,636,o),
(15,533,cs),
(15,455,o),
(63,388,o),
(131,360,c),
(63,332,o),
(15,265,o),
(15,187,cs),
(15,84,o),
(99,0,o),
(202,0,cs),
(735,0,l)
);
}
);
width = 750;
}
);
unicode = 38;
},
{
glyphname = paragraph;
lastChange = "2026-04-30 13:08:34 +0000";
layers = (
{
layerId = "76DA76B7-AE51-4169-AB0E-317D7E08960F";
shapes = (
{
closed = 1;
nodes = (
(420,540,l),
(450,540,l),
(450,-180,l),
(735,-180,l),
(735,720,l),
(285,720,ls),
(136,720,o),
(15,599,o),
(15,450,cs),
(15,356,o),
(63,274,o),
(135,225,c),
(135,-180,l),
(420,-180,l)
);
}
);
width = 750;
}
);
unicode = 182;
},
{
glyphname = section;
lastChange = "2026-04-30 13:08:34 +0000";
layers = (
{
layerId = "76DA76B7-AE51-4169-AB0E-317D7E08960F";
shapes = (
{
closed = 1;
nodes = (
(585,-90,o),
(645,-30,o),
(645,45,cs),
(645,120,o),
(585,180,o),
(510,180,cs),
(600,180,ls),
(675,180,o),
(735,240,o),
(735,315,cs),
(735,390,o),
(675,450,o),
(600,450,cs),
(735,450,l),
(735,720,l),
(240,720,ls),
(165,720,o),
(105,660,o),
(105,585,cs),
(105,510,o),
(165,450,o),
(240,450,cs),
(150,450,ls),
(75,450,o),
(15,390,o),
(15,315,cs),
(15,240,o),
(75,180,o),
(150,180,cs),
(15,180,l),
(15,-90,l),
(510,-90,ls)
);
}
);
width = 750;
}
);
unicode = 167;
},
{
glyphname = copyright;
lastChange = "2026-04-30 13:08:34 +0000";
layers = (
{
layerId = "76DA76B7-AE51-4169-AB0E-317D7E08960F";
shapes = (
{
closed = 1;
nodes = (
(579,-10,o),
(745,156,o),
(745,360,cs),
(745,564,o),
(579,730,o),
(375,730,cs),
(171,730,o),
(5,564,o),
(5,360,cs),
(5,156,o),
(171,-10,o),
(375,-10,cs)
);
},
{
closed = 1;
nodes = (
(256,180,o),
(175,261,o),
(175,360,cs),
(175,459,o),
(256,540,o),
(355,540,cs),
(535,540,l),
(535,180,l),
(355,180,ls)
);
}
);
width = 750;
}
);
unicode = 169;
},
{
glyphname = registered;
lastChange = "2026-04-30 13:08:34 +0000";
layers = (
{
layerId = "76DA76B7-AE51-4169-AB0E-317D7E08960F";
shapes = (
{
closed = 1;
nodes = (
(579,-10,o),
(745,156,o),
(745,360,cs),
(745,564,o),
(579,730,o),
(375,730,cs),
(171,730,o),
(5,564,o),
(5,360,cs),
(5,156,o),
(171,-10,o),
(375,-10,cs)
);
},
{
closed = 1;
nodes = (
(430,540,ls),
(502,540,o),
(560,482,o),
(560,410,cs),
(560,364,o),
(536,323,o),
(499,300,c),
(536,273,o),
(560,229,o),
(560,180,c),
(200,180,l),
(200,540,l)
);
}
);
width = 750;
}
);
unicode = 174;
},
{
glyphname = trademark;
lastChange = "2026-04-30 13:08:34 +0000";
layers = (
{
layerId = "76DA76B7-AE51-4169-AB0E-317D7E08960F";
shapes = (
{
closed = 1;
nodes = (
(330,600,l),
(360,600,l),
(360,720,l),
(15,720,l),
(15,600,l),
(45,600,l),
(45,360,l),
(330,360,l)
);
},
{
closed = 1;
nodes = (
(735,720,l),
(627,720,ls),
(591,720,o),
(562,691,o),
(562,655,c),
(562,691,o),
(533,720,o),
(497,720,cs),
(389,720,l),
(389,360,l),
(735,360,l)
);
}
);
width = 750;
}
);
unicode = 8482;
},
{
glyphname = degree;
lastChange = "2026-04-30 13:08:34 +0000";
layers = (
{
layerId = "76DA76B7-AE51-4169-AB0E-317D7E08960F";
shapes = (
{
closed = 1;
nodes = (
(286,375,o),
(365,454,o),
(365,553,cs),
(365,651,o),
(286,730,o),
(188,730,cs),
(89,730,o),
(10,651,o),
(10,553,cs),
(10,454,o),
(89,375,o),
(188,375,cs)
);
}
);
width = 375;
}
);
unicode = 176;
},
{
glyphname = bar;
lastChange = "2026-04-30 13:08:34 +0000";
layers = (
{
layerId = "76DA76B7-AE51-4169-AB0E-317D7E08960F";
shapes = (
{
closed = 1;
nodes = (
(375,720,l),
(15,720,l),
(15,-180,l),
(375,-180,l)
);
}
);
width = 390;
}
);
unicode = 124;
},
{
glyphname = cent;
lastChange = "2026-04-30 13:08:34 +0000";
layers = (
{
layerId = "76DA76B7-AE51-4169-AB0E-317D7E08960F";
shapes = (
{
closed = 1;
nodes = (
(595,600,l),
(235,600,l),
(235,535,l),
(110,512,o),
(15,402,o),
(15,270,cs),
(15,138,o),
(110,28,o),
(235,5,c),
(235,-60,l),
(595,-60,l),
(595,0,l),
(735,0,l),
(735,540,l),
(595,540,l)
);
}
);
width = 750;
}
);
unicode = 162;
},
{
glyphname = dollar;
lastChange = "2026-04-30 13:08:34 +0000";
layers = (
{
layerId = "76DA76B7-AE51-4169-AB0E-317D7E08960F";
shapes = (
{
closed = 1;
nodes = (
(735,720,l),
(555,720,l),
(555,780,l),
(195,780,l),
(195,720,l),
(192,720,ls),
(89,720,o),
(5,636,o),
(5,533,cs),
(5,455,o),
(53,388,o),
(121,360,c),
(15,360,l),
(15,0,l),
(195,0,l),
(195,-60,l),
(555,-60,l),
(555,0,l),
(558,0,ls),
(661,0,o),
(745,84,o),
(745,187,cs),
(745,265,o),
(697,332,o),
(629,360,c),
(735,360,l)
);
}
);
width = 750;
}
);
unicode = 36;
},
{
glyphname = euro;
lastChange = "2026-04-30 13:08:34 +0000";
layers = (
{
layerId = "76DA76B7-AE51-4169-AB0E-317D7E08960F";
shapes = (
{
closed = 1;
nodes = (
(675,555,l),
(675,720,l),
(425,720,ls),
(298,720,o),
(186,654,o),
(122,555,c),
(15,555,l),
(15,375,l),
(65,375,l),
(65,370,o),
(65,365,o),
(65,360,cs),
(65,355,o),
(65,350,o),
(65,345,c),
(15,345,l),
(15,165,l),
(122,165,l),
(186,66,o),
(298,0,o),
(425,0,cs),
(675,0,l),
(675,165,l),
(735,165,l),
(735,345,l),
(675,345,l),
(675,375,l),
(735,375,l),
(735,555,l)
);
}
);
width = 750;
}
);
unicode = 8364;
},
{
glyphname = sterling;
lastChange = "2026-04-30 13:16:51 +0000";
layers = (
{
layerId = "76DA76B7-AE51-4169-AB0E-317D7E08960F";
shapes = (
{
closed = 1;
nodes = (
(255,720,ls),
(156,720,o),
(75,639,o),
(75,540,cs),
(75,450,l),
(15,450,l),
(15,270,l),
(75,270,l),
(75,180,l),
(15,180,l),
(15,0,l),
(735,0,l),
(735,180,l),
(615,180,l),
(615,270,l),
(675,270,l),
(675,450,l),
(615,450,l),
(615,540,l),
(735,540,l),
(735,720,l)
);
}
);
width = 750;
}
);
unicode = 163;
},
{
glyphname = yen;
lastChange = "2026-04-30 13:08:34 +0000";
layers = (
{
layerId = "76DA76B7-AE51-4169-AB0E-317D7E08960F";
shapes = (
{
closed = 1;
nodes = (
(485,720,ls),
(424,720,o),
(375,671,o),
(375,610,c),
(375,671,o),
(326,720,o),
(265,720,cs),
(15,720,l),
(15,540,ls),
(15,474,o),
(69,420,o),
(135,420,cs),
(15,420,l),
(15,240,l),
(135,240,l),
(135,210,l),
(15,210,l),
(15,30,l),
(135,30,l),
(135,0,l),
(615,0,l),
(615,30,l),
(735,30,l),
(735,210,l),
(615,210,l),
(615,240,l),
(735,240,l),
(735,420,l),
(615,420,ls),
(681,420,o),
(735,474,o),
(735,540,cs),
(735,720,l)
);
}
);
width = 750;
}
);
unicode = 165;
},
{
glyphname = plus;
lastChange = "2026-04-30 13:08:34 +0000";
layers = (
{
layerId = "76DA76B7-AE51-4169-AB0E-317D7E08960F";
shapes = (
{
closed = 1;
nodes = (
(585,720,l),
(165,720,l),
(165,570,l),
(15,570,l),
(15,150,l),
(165,150,l),
(165,0,l),
(585,0,l),
(585,150,l),
(735,150,l),
(735,570,l),
(585,570,l)
);
}
);
width = 750;
}
);
unicode = 43;
},
{
glyphname = minus;
lastChange = "2026-04-30 13:08:34 +0000";
layers = (
{
layerId = "76DA76B7-AE51-4169-AB0E-317D7E08960F";
shapes = (
{
closed = 1;
nodes = (
(735,570,l),
(15,570,l),
(15,150,l),
(735,150,l)
);
}
);
width = 750;
}
);
unicode = 8722;
},
{
glyphname = multiply;
lastChange = "2026-04-30 13:08:34 +0000";
layers = (
{
layerId = "76DA76B7-AE51-4169-AB0E-317D7E08960F";
shapes = (
{
closed = 1;
nodes = (
(505,720,ls),
(433,720,o),
(375,662,o),
(375,590,c),
(375,662,o),
(317,720,o),
(245,720,cs),
(15,720,l),
(15,375,l),
(245,375,ls),
(267,375,o),
(288,370,o),
(306,360,c),
(288,350,o),
(267,345,o),
(245,345,cs),
(15,345,l),
(15,0,l),
(245,0,ls),
(317,0,o),
(375,58,o),
(375,130,c),
(375,58,o),
(433,0,o),
(505,0,cs),
(735,0,l),
(735,345,l),
(505,345,ls),
(483,345,o),
(462,350,o),
(444,360,c),
(462,370,o),
(483,375,o),
(505,375,cs),
(735,375,l),
(735,720,l)
);
}
);
width = 750;
}
);
unicode = 215;
},
{
glyphname = divide;
lastChange = "2026-04-30 13:08:34 +0000";
layers = (
{
layerId = "76DA76B7-AE51-4169-AB0E-317D7E08960F";
shapes = (
{
closed = 1;
nodes = (
(536,570,o),
(585,619,o),
(585,680,cs),
(585,720,l),
(165,720,l),
(165,680,ls),
(165,619,o),
(214,570,o),
(275,570,cs),
(15,570,l),
(15,150,l),
(275,150,ls),
(214,150,o),
(165,101,o),
(165,40,cs),
(165,0,l),
(585,0,l),
(585,40,ls),
(585,101,o),
(536,150,o),
(475,150,cs),
(735,150,l),
(735,570,l),
(475,570,ls)
);
}
);
width = 750;
}
);
unicode = 247;
},
{
glyphname = equal;
lastChange = "2026-04-30 13:08:34 +0000";
layers = (
{
layerId = "76DA76B7-AE51-4169-AB0E-317D7E08960F";
shapes = (
{
closed = 1;
nodes = (
(735,660,l),
(15,660,l),
(15,375,l),
(735,375,l)
);
},
{
closed = 1;
nodes = (
(735,345,l),
(15,345,l),
(15,60,l),
(735,60,l)
);
}
);
width = 750;
}
);
unicode = 61;
},
{
glyphname = greater;
lastChange = "2026-04-30 13:08:34 +0000";
layers = (
{
layerId = "76DA76B7-AE51-4169-AB0E-317D7E08960F";
shapes = (
{
closed = 1;
nodes = (
(525,116,o),
(619,210,o),
(735,210,c),
(735,510,l),
(619,510,o),
(525,604,o),
(525,720,c),
(15,720,l),
(15,570,ls),
(15,454,o),
(109,360,o),
(225,360,c),
(109,360,o),
(15,266,o),
(15,150,cs),
(15,0,l),
(525,0,l)
);
}
);
width = 750;
}
);
unicode = 62;
},
{
glyphname = less;
lastChange = "2026-04-30 13:08:34 +0000";
layers = (
{
layerId = "76DA76B7-AE51-4169-AB0E-317D7E08960F";
shapes = (
{
closed = 1;
nodes = (
(735,150,ls),
(735,266,o),
(641,360,o),
(525,360,c),
(641,360,o),
(735,454,o),
(735,570,cs),
(735,720,l),
(225,720,l),
(225,604,o),
(131,510,o),
(15,510,c),
(15,210,l),
(131,210,o),
(225,116,o),
(225,0,c),
(735,0,l)
);
}
);
width = 750;
}
);
unicode = 60;
},
{
glyphname = asciitilde;
lastChange = "2026-04-30 13:08:34 +0000";
layers = (
{
layerId = "76DA76B7-AE51-4169-AB0E-317D7E08960F";
shapes = (
{
closed = 1;
nodes = (
(163,152,o),
(226,196,o),
(299,196,cs),
(345,196,o),
(392,178,o),
(427,143,cs),
(460,110,o),
(505,90,o),
(555,90,cs),
(654,90,o),
(735,171,o),
(735,270,cs),
(735,630,l),
(615,630,l),
(587,568,o),
(524,524,o),
(451,524,cs),
(405,524,o),
(358,542,o),
(323,577,cs),
(290,610,o),
(245,630,o),
(195,630,cs),
(96,630,o),
(15,549,o),
(15,450,cs),
(15,90,l),
(135,90,l)
);
}
);
width = 750;
}
);
unicode = 126;
},
{
glyphname = asciicircum;
lastChange = "2026-04-30 13:08:34 +0000";
layers = (
{
layerId = "76DA76B7-AE51-4169-AB0E-317D7E08960F";
shapes = (
{
closed = 1;
nodes = (
(281,180,o),
(375,274,o),
(375,390,c),
(375,274,o),
(469,180,o),
(585,180,cs),
(735,180,l),
(735,510,l),
(619,510,o),
(525,604,o),
(525,720,c),
(225,720,l),
(225,604,o),
(131,510,o),
(15,510,c),
(15,180,l),
(165,180,ls)
);
}
);
width = 750;
}
);
unicode = 94;
},
{
glyphname = percent;
lastChange = "2026-04-30 13:08:34 +0000";
layers = (
{
layerId = "76DA76B7-AE51-4169-AB0E-317D7E08960F";
shapes = (
{
closed = 1;
nodes = (
(405,720,l),
(405,480,ls),
(405,414,o),
(351,360,o),
(285,360,cs),
(255,360,ls),
(321,360,o),
(375,414,o),
(375,480,cs),
(375,600,ls),
(375,666,o),
(321,720,o),
(255,720,cs),
(135,720,ls),
(69,720,o),
(15,666,o),
(15,600,cs),
(15,480,ls),
(15,414,o),
(69,360,o),
(135,360,cs),
(195,360,ls),
(96,360,o),
(15,279,o),
(15,180,cs),
(15,0,l),
(345,0,l),
(345,240,ls),
(345,306,o),
(399,360,o),
(465,360,cs),
(495,360,ls),
(429,360,o),
(375,306,o),
(375,240,cs),
(375,120,ls),
(375,54,o),
(429,0,o),
(495,0,cs),
(615,0,ls),
(681,0,o),
(735,54,o),
(735,120,cs),
(735,240,ls),
(735,306,o),
(681,360,o),
(615,360,cs),
(555,360,ls),
(654,360,o),
(735,441,o),
(735,540,cs),
(735,720,l)
);
}
);
width = 750;
}
);
unicode = 37;
},
{
glyphname = dieresiscomb;
lastChange = "2026-04-30 13:10:11 +0000";
layers = (
{
anchors = (
{
name = _top;
pos = (0,540);
},
{
name = top;
pos = (0,720);
}
);
background = {
anchors = (
{
name = _top;
pos = (0,540);
},
{
name = top;
pos = (0,720);
}
);
shapes = (
{
closed = 1;
nodes = (
(-15,720,l),
(-245,720,l),
(-245,600,ls),
(-245,567,o),
(-218,540,o),
(-185,540,cs),
(-15,540,l)
);
},
{
closed = 1;
nodes = (
(245,720,l),
(15,720,l),
(15,600,ls),
(15,567,o),
(42,540,o),
(75,540,cs),
(245,540,l)
);
}
);
};
layerId = "76DA76B7-AE51-4169-AB0E-317D7E08960F";
shapes = (
{
closed = 1;
nodes = (
(-15,720,l),
(-245,720,l),
(-245,600,ls),
(-245,567,o),
(-218,540,o),
(-185,540,cs),
(-15,540,l)
);
},
{
closed = 1;
nodes = (
(245,720,l),
(15,720,l),
(15,600,ls),
(15,567,o),
(42,540,o),
(75,540,cs),
(245,540,l)
);
}
);
width = 0;
}
);
unicode = 776;
},
{
glyphname = dotaccentcomb;
lastChange = "2026-04-30 13:10:11 +0000";
layers = (
{
anchors = (
{
name = _top;
pos = (0,540);
},
{
name = top;
pos = (0,720);
}
);
background = {
anchors = (
{
name = _top;
pos = (0,540);
},
{
name = top;
pos = (0,720);
}
);
shapes = (
{
closed = 1;
nodes = (
(120,720,l),
(-120,720,l),
(-120,600,ls),
(-120,567,o),
(-93,540,o),
(-60,540,cs),
(120,540,l)
);
}
);
};
layerId = "76DA76B7-AE51-4169-AB0E-317D7E08960F";
shapes = (
{
closed = 1;
nodes = (
(120,720,l),
(-120,720,l),
(-120,600,ls),
(-120,567,o),
(-93,540,o),
(-60,540,cs),
(120,540,l)
);
}
);
width = 0;
}
);
unicode = 775;
},
{
glyphname = gravecomb;
lastChange = "2026-04-30 13:10:11 +0000";
layers = (
{
anchors = (
{
name = _top;
pos = (0,540);
},
{
name = top;
pos = (0,720);
}
);
background = {
anchors = (
{
name = _top;
pos = (0,540);
},
{
name = top;
pos = (0,720);
}
);
shapes = (
{
closed = 1;
nodes = (
(225,630,l),
(175,630,o),
(135,670,o),
(135,720,c),
(-225,720,l),
(-225,621,o),
(-144,540,o),
(-45,540,cs),
(225,540,l)
);
}
);
};
layerId = "76DA76B7-AE51-4169-AB0E-317D7E08960F";
shapes = (
{
closed = 1;
nodes = (
(225,630,l),
(175,630,o),
(135,670,o),
(135,720,c),
(-225,720,l),
(-225,621,o),
(-144,540,o),
(-45,540,cs),
(225,540,l)
);
}
);
width = 0;
}
);
unicode = 768;
},
{
glyphname = acutecomb;
lastChange = "2026-04-30 13:10:11 +0000";
layers = (
{
anchors = (
{
name = _top;
pos = (0,540);
},
{
name = top;
pos = (0,720);
}
);
background = {
anchors = (
{
name = _top;
pos = (0,540);
},
{
name = top;
pos = (0,720);
}
);
shapes = (
{
closed = 1;
nodes = (
(144,540,o),
(225,621,o),
(225,720,c),
(-135,720,l),
(-135,670,o),
(-175,630,o),
(-225,630,c),
(-225,540,l),
(45,540,ls)
);
}
);
};
layerId = "76DA76B7-AE51-4169-AB0E-317D7E08960F";
shapes = (
{
closed = 1;
nodes = (
(144,540,o),
(225,621,o),
(225,720,c),
(-135,720,l),
(-135,670,o),
(-175,630,o),
(-225,630,c),
(-225,540,l),
(45,540,ls)
);
}
);
width = 0;
}
);
unicode = 769;
},
{
glyphname = hungarumlautcomb;
lastChange = "2026-04-30 13:10:11 +0000";
layers = (
{
anchors = (
{
name = _top;
pos = (0,540);
},
{
name = top;
pos = (0,720);
}
);
background = {
anchors = (
{
name = _top;
pos = (0,540);
},
{
name = top;
pos = (0,720);
}
);
shapes = (
{
closed = 1;
nodes = (
(-56,540,o),
(25,621,o),
(25,720,c),
(-205,720,l),
(-205,670,o),
(-245,630,o),
(-295,630,c),
(-295,540,l),
(-155,540,ls)
);
},
{
closed = 1;
nodes = (
(214,540,o),
(295,621,o),
(295,720,c),
(55,720,l),
(55,644,o),
(14,577,o),
(-47,540,c),
(115,540,ls)
);
}
);
};
layerId = "76DA76B7-AE51-4169-AB0E-317D7E08960F";
shapes = (
{
closed = 1;
nodes = (
(-56,540,o),
(25,621,o),
(25,720,c),
(-205,720,l),
(-205,670,o),
(-245,630,o),
(-295,630,c),
(-295,540,l),
(-155,540,ls)
);
},
{
closed = 1;
nodes = (
(214,540,o),
(295,621,o),
(295,720,c),
(55,720,l),
(55,644,o),
(14,577,o),
(-47,540,c),
(115,540,ls)
);
}
);
width = 0;
}
);
unicode = 779;
},
{
glyphname = circumflexcomb;
lastChange = "2026-04-30 13:10:11 +0000";
layers = (
{
anchors = (
{
name = _top;
pos = (0,540);
},
{
name = top;
pos = (0,720);
}
);
background = {
anchors = (
{
name = _top;
pos = (0,540);
},
{
name = top;
pos = (0,720);
}
);
shapes = (
{
closed = 1;
nodes = (
(-40,540,o),
(0,580,o),
(0,630,c),
(0,580,o),
(40,540,o),
(90,540,cs),
(270,540,l),
(270,630,l),
(220,630,o),
(180,670,o),
(180,720,c),
(-180,720,l),
(-180,670,o),
(-220,630,o),
(-270,630,c),
(-270,540,l),
(-90,540,ls)
);
}
);
};
layerId = "76DA76B7-AE51-4169-AB0E-317D7E08960F";
shapes = (
{
closed = 1;
nodes = (
(-40,540,o),
(0,580,o),
(0,630,c),
(0,580,o),
(40,540,o),
(90,540,cs),
(270,540,l),
(270,630,l),
(220,630,o),
(180,670,o),
(180,720,c),
(-180,720,l),
(-180,670,o),
(-220,630,o),
(-270,630,c),
(-270,540,l),
(-90,540,ls)
);
}
);
width = 0;
}
);
unicode = 770;
},
{
glyphname = caroncomb;
lastChange = "2026-04-30 13:10:11 +0000";
layers = (
{
anchors = (
{
name = _top;
pos = (0,540);
},
{
name = top;
pos = (0,720);
}
);
background = {
anchors = (
{
name = _top;
pos = (0,540);
},
{
name = top;
pos = (0,720);
}
);
shapes = (
{
closed = 1;
nodes = (
(180,590,o),
(220,630,o),
(270,630,c),
(270,720,l),
(90,720,ls),
(40,720,o),
(0,680,o),
(0,630,c),
(0,680,o),
(-40,720,o),
(-90,720,cs),
(-270,720,l),
(-270,630,l),
(-220,630,o),
(-180,590,o),
(-180,540,c),
(180,540,l)
);
}
);
};
layerId = "76DA76B7-AE51-4169-AB0E-317D7E08960F";
shapes = (
{
closed = 1;
nodes = (
(180,590,o),
(220,630,o),
(270,630,c),
(270,720,l),
(90,720,ls),
(40,720,o),
(0,680,o),
(0,630,c),
(0,680,o),
(-40,720,o),
(-90,720,cs),
(-270,720,l),
(-270,630,l),
(-220,630,o),
(-180,590,o),
(-180,540,c),
(180,540,l)
);
}
);
width = 0;
}
);
unicode = 780;
},
{
glyphname = brevecomb;
lastChange = "2026-04-30 13:10:11 +0000";
layers = (
{
anchors = (
{
name = _top;
pos = (0,540);
},
{
name = top;
pos = (0,720);
}
);
background = {
anchors = (
{
name = _top;
pos = (0,540);
},
{
name = top;
pos = (0,720);
}
);
shapes = (
{
closed = 1;
nodes = (
(45,540,ls),
(144,540,o),
(225,621,o),
(225,720,c),
(40,720,l),
(40,698,o),
(22,680,o),
(0,680,cs),
(-22,680,o),
(-40,698,o),
(-40,720,c),
(-225,720,l),
(-225,621,o),
(-144,540,o),
(-45,540,cs)
);
}
);
};
layerId = "76DA76B7-AE51-4169-AB0E-317D7E08960F";
shapes = (
{
closed = 1;
nodes = (
(45,540,ls),
(144,540,o),
(225,621,o),
(225,720,c),
(40,720,l),
(40,698,o),
(22,680,o),
(0,680,cs),
(-22,680,o),
(-40,698,o),
(-40,720,c),
(-225,720,l),
(-225,621,o),
(-144,540,o),
(-45,540,cs)
);
}
);
width = 0;
}
);
unicode = 774;
},
{
glyphname = ringcomb;
lastChange = "2026-04-30 13:10:11 +0000";
layers = (
{
anchors = (
{
name = _top;
pos = (0,540);
},
{
name = top;
pos = (0,720);
}
);
background = {
anchors = (
{
name = _top;
pos = (0,540);
},
{
name = top;
pos = (0,720);
}
);
shapes = (
{
closed = 1;
nodes = (
(110,540,o),
(150,580,o),
(150,630,cs),
(150,680,o),
(110,720,o),
(60,720,cs),
(-60,720,ls),
(-110,720,o),
(-150,680,o),
(-150,630,cs),
(-150,580,o),
(-110,540,o),
(-60,540,cs),
(60,540,ls)
);
}
);
};
layerId = "76DA76B7-AE51-4169-AB0E-317D7E08960F";
shapes = (
{
closed = 1;
nodes = (
(110,540,o),
(150,580,o),
(150,630,cs),
(150,680,o),
(110,720,o),
(60,720,cs),
(-60,720,ls),
(-110,720,o),
(-150,680,o),
(-150,630,cs),
(-150,580,o),
(-110,540,o),
(-60,540,cs),
(60,540,ls)
);
}
);
width = 0;
}
);
unicode = 778;
},
{
glyphname = tildecomb;
lastChange = "2026-04-30 13:10:11 +0000";
layers = (
{
anchors = (
{
name = _top;
pos = (0,540);
},
{
name = top;
pos = (0,720);
}
);
background = {
anchors = (
{
name = _top;
pos = (0,540);
},
{
name = top;
pos = (0,720);
}
);
shapes = (
{
closed = 1;
nodes = (
(177,540,o),
(225,588,o),
(225,648,cs),
(225,720,l),
(135,720,l),
(118,683,o),
(80,657,o),
(36,657,cs),
(9,657,o),
(-19,667,o),
(-40,688,cs),
(-60,708,o),
(-87,720,o),
(-117,720,cs),
(-177,720,o),
(-225,672,o),
(-225,612,cs),
(-225,540,l),
(117,540,ls)
);
}
);
};
layerId = "76DA76B7-AE51-4169-AB0E-317D7E08960F";
shapes = (
{
closed = 1;
nodes = (
(177,540,o),
(225,588,o),
(225,648,cs),
(225,720,l),
(135,720,l),
(118,683,o),
(80,657,o),
(36,657,cs),
(9,657,o),
(-19,667,o),
(-40,688,cs),
(-60,708,o),
(-87,720,o),
(-117,720,cs),
(-177,720,o),
(-225,672,o),
(-225,612,cs),
(-225,540,l),
(117,540,ls)
);
}
);
width = 0;
}
);
unicode = 771;
},
{
glyphname = macroncomb;
lastChange = "2026-04-30 13:10:11 +0000";
layers = (
{
anchors = (
{
name = _top;
pos = (0,540);
},
{
name = top;
pos = (0,720);
}
);
background = {
anchors = (
{
name = _top;
pos = (0,540);
},
{
name = top;
pos = (0,720);
}
);
shapes = (
{
closed = 1;
nodes = (
(270,720,l),
(-270,720,l),
(-270,600,ls),
(-270,567,o),
(-243,540,o),
(-210,540,cs),
(270,540,l)
);
}
);
};
layerId = "76DA76B7-AE51-4169-AB0E-317D7E08960F";
shapes = (
{
closed = 1;
nodes = (
(270,720,l),
(-270,720,l),
(-270,600,ls),
(-270,567,o),
(-243,540,o),
(-210,540,cs),
(270,540,l)
);
}
);
width = 0;
}
);
unicode = 772;
},
{
glyphname = commaaccentcomb;
lastChange = "2026-04-30 13:16:51 +0000";
layers = (
{
anchors = (
{
name = _bottom;
},
{
name = bottom;
pos = (0,-270);
}
);
background = {
anchors = (
{
name = _bottom;
},
{
name = bottom;
pos = (0,-180);
}
);
shapes = (
{
closed = 1;
nodes = (
(80,-270,o),
(120,-230,o),
(120,-180,cs),
(120,-90,ls),
(120,-40,o),
(80,0,o),
(30,0,cs),
(-120,0,l),
(-120,-180,l),
(30,-180,l),
(30,-270,l)
);
}
);
};
layerId = "76DA76B7-AE51-4169-AB0E-317D7E08960F";
shapes = (
{
closed = 1;
nodes = (
(80,-270,o),
(120,-230,o),
(120,-180,cs),
(120,-90,ls),
(120,-40,o),
(80,0,o),
(30,0,cs),
(-120,0,l),
(-120,-180,l),
(30,-180,l),
(30,-270,l)
);
}
);
width = 0;
}
);
unicode = 806;
},
{
glyphname = cedillacomb;
lastChange = "2026-04-30 13:10:11 +0000";
layers = (
{
anchors = (
{
name = _bottom;
},
{
name = bottom;
pos = (0,-180);
}
);
background = {
anchors = (
{
name = _bottom;
},
{
name = bottom;
pos = (0,-180);
}
);
shapes = (
{
closed = 1;
nodes = (
(125,-180,o),
(165,-140,o),
(165,-90,cs),
(165,-40,o),
(125,0,o),
(75,0,c),
(75,120,l),
(-75,120,l),
(-75,-30,l),
(-165,-30,l),
(-165,-180,l),
(75,-180,ls)
);
}
);
};
layerId = "76DA76B7-AE51-4169-AB0E-317D7E08960F";
shapes = (
{
closed = 1;
nodes = (
(125,-180,o),
(165,-140,o),
(165,-90,cs),
(165,-40,o),
(125,0,o),
(75,0,c),
(75,120,l),
(-75,120,l),
(-75,-30,l),
(-165,-30,l),
(-165,-180,l),
(75,-180,ls)
);
}
);
width = 0;
}
);
unicode = 807;
},
{
glyphname = ogonekcomb;
lastChange = "2026-04-30 13:13:29 +0000";
layers = (
{
anchors = (
{
name = _ogonek;
pos = (-90,1);
}
);
background = {
anchors = (
{
name = _ogonek;
pos = (-90,0);
}
);
shapes = (
{
closed = 1;
nodes = (
(165,-30,l),
(-15,-30,l),
(-15,120,l),
(-165,120,l),
(-165,-60,ls),
(-165,-126,o),
(-111,-180,o),
(-45,-180,cs),
(165,-180,l)
);
}
);
};
layerId = "76DA76B7-AE51-4169-AB0E-317D7E08960F";
shapes = (
{
closed = 1;
nodes = (
(165,-30,l),
(-15,-30,l),
(-15,120,l),
(-165,120,l),
(-165,-60,ls),
(-165,-126,o),
(-111,-180,o),
(-45,-180,cs),
(165,-180,l)
);
}
);
width = 0;
}
);
unicode = 808;
},
{
export = 0;
glyphname = caroncomb.alt;
lastChange = "2026-04-30 13:11:31 +0000";
layers = (
{
anchors = (
{
name = _topright;
pos = (-149.157,720);
}
);
background = {
anchors = (
{
name = _topright;
pos = (-150,720);
}
);
shapes = (
{
closed = 1;
nodes = (
(0,420,ls),
(66,420,o),
(120,474,o),
(120,540,cs),
(120,720,l),
(-120,720,l),
(-120,420,l)
);
}
);
};
layerId = "76DA76B7-AE51-4169-AB0E-317D7E08960F";
shapes = (
{
closed = 1;
nodes = (
(0,420,ls),
(66,420,o),
(120,474,o),
(120,540,cs),
(120,720,l),
(-120,720,l),
(-120,420,l)
);
}
);
width = 0;
}
);
},
{
export = 0;
glyphname = commaturnedabovecomb;
lastChange = "2026-04-30 13:10:11 +0000";
layers = (
{
anchors = (
{
name = _top;
pos = (0,540);
},
{
name = top;
pos = (0,810);
}
);
background = {
anchors = (
{
name = _top;
pos = (0,540);
},
{
name = top;
pos = (0,720);
}
);
shapes = (
{
closed = 1;
nodes = (
(120,720,l),
(-30,720,l),
(-30,810,l),
(-80,810,o),
(-120,770,o),
(-120,720,cs),
(-120,630,ls),
(-120,580,o),
(-80,540,o),
(-30,540,cs),
(120,540,l)
);
}
);
};
layerId = "76DA76B7-AE51-4169-AB0E-317D7E08960F";
shapes = (
{
closed = 1;
nodes = (
(120,720,l),
(-30,720,l),
(-30,810,l),
(-80,810,o),
(-120,770,o),
(-120,720,cs),
(-120,630,ls),
(-120,580,o),
(-80,540,o),
(-30,540,cs),
(120,540,l)
);
}
);
width = 0;
}
);
unicode = 786;
},
{
export = 0;
glyphname = strokeshortcomb;
lastChange = "2026-04-30 13:10:11 +0000";
layers = (
{
anchors = (
{
name = _center;
pos = (0,360);
}
);
background = {
anchors = (
{
name = _center;
pos = (0,360);
}
);
shapes = (
{
closed = 1;
nodes = (
(360,450,l),
(-360,450,l),
(-360,270,l),
(360,270,l)
);
}
);
};
layerId = "76DA76B7-AE51-4169-AB0E-317D7E08960F";
shapes = (
{
closed = 1;
nodes = (
(360,450,l),
(-360,450,l),
(-360,270,l),
(360,270,l)
);
}
);
width = 0;
}
);
unicode = 821;
},
{
export = 0;
glyphname = strokelongcomb;
lastChange = "2026-04-30 13:10:11 +0000";
layers = (
{
anchors = (
{
name = _center;
pos = (0,360);
}
);
background = {
anchors = (
{
name = _center;
pos = (0,360);
}
);
shapes = (
{
closed = 1;
nodes = (
(-420,270,l),
(-420,450,l),
(420,450,l),
(420,270,l)
);
}
);
};
layerId = "76DA76B7-AE51-4169-AB0E-317D7E08960F";
shapes = (
{
closed = 1;
nodes = (
(-420,270,l),
(-420,450,l),
(420,450,l),
(420,270,l)
);
}
);
width = 0;
}
);
unicode = 822;
},
{
export = 0;
glyphname = slashshortcomb;
lastChange = "2026-04-30 13:10:11 +0000";
layers = (
{
anchors = (
{
name = _center;
pos = (0,270);
}
);
background = {
anchors = (
{
name = _center;
pos = (0,270);
}
);
shapes = (
{
closed = 1;
nodes = (
(-120,0,ls),
(-120,133,o),
(-13,240,o),
(120,240,cs),
(253,240,o),
(360,347,o),
(360,480,cs),
(360,600,l),
(120,600,l),
(120,540,ls),
(120,407,o),
(13,300,o),
(-120,300,cs),
(-253,300,o),
(-360,193,o),
(-360,60,cs),
(-360,-60,l),
(-120,-60,l)
);
}
);
};
layerId = "76DA76B7-AE51-4169-AB0E-317D7E08960F";
shapes = (
{
closed = 1;
nodes = (
(-120,0,ls),
(-120,133,o),
(-13,240,o),
(120,240,cs),
(253,240,o),
(360,347,o),
(360,480,cs),
(360,600,l),
(120,600,l),
(120,540,ls),
(120,407,o),
(13,300,o),
(-120,300,cs),
(-253,300,o),
(-360,193,o),
(-360,60,cs),
(-360,-60,l),
(-120,-60,l)
);
}
);
width = 0;
}
);
unicode = 823;
},
{
export = 0;
glyphname = slashlongcomb;
lastChange = "2026-04-30 13:10:11 +0000";
layers = (
{
anchors = (
{
name = _center;
pos = (0,360);
}
);
background = {
anchors = (
{
name = _center;
pos = (0,360);
}
);
shapes = (
{
closed = 1;
nodes = (
(-120,90,ls),
(-120,223,o),
(-13,330,o),
(120,330,cs),
(253,330,o),
(360,437,o),
(360,570,cs),
(360,780,l),
(120,780,l),
(120,630,ls),
(120,497,o),
(13,390,o),
(-120,390,cs),
(-253,390,o),
(-360,283,o),
(-360,150,cs),
(-360,-60,l),
(-120,-60,l)
);
}
);
};
layerId = "76DA76B7-AE51-4169-AB0E-317D7E08960F";
shapes = (
{
closed = 1;
nodes = (
(-120,90,ls),
(-120,223,o),
(-13,330,o),
(120,330,cs),
(253,330,o),
(360,437,o),
(360,570,cs),
(360,780,l),
(120,780,l),
(120,630,ls),
(120,497,o),
(13,390,o),
(-120,390,cs),
(-253,390,o),
(-360,283,o),
(-360,150,cs),
(-360,-60,l),
(-120,-60,l)
);
}
);
width = 0;
}
);
unicode = 824;
},
{
export = 0;
glyphname = strokelongcomb.Hbar;
lastChange = "2026-04-30 13:10:11 +0000";
layers = (
{
anchors = (
{
name = _center;
pos = (0,570);
}
);
background = {
anchors = (
{
name = _center;
pos = (0,570);
}
);
shapes = (
{
closed = 1;
nodes = (
(420,480,l),
(420,660,l),
(60,660,l),
(60,480,l)
);
},
{
closed = 1;
nodes = (
(-60,480,l),
(-60,660,l),
(-420,660,l),
(-420,480,l)
);
}
);
};
layerId = "76DA76B7-AE51-4169-AB0E-317D7E08960F";
shapes = (
{
closed = 1;
nodes = (
(420,480,l),
(420,660,l),
(60,660,l),
(60,480,l)
);
},
{
closed = 1;
nodes = (
(-60,480,l),
(-60,660,l),
(-420,660,l),
(-420,480,l)
);
}
);
width = 0;
}
);
},
{
export = 0;
glyphname = strokeshortcomb.L;
lastChange = "2026-04-30 13:10:11 +0000";
layers = (
{
anchors = (
{
name = _center;
pos = (0,360);
}
);
background = {
anchors = (
{
name = _center;
pos = (0,360);
}
);
shapes = (
{
closed = 1;
nodes = (
(390,360,l),
(390,540,l),
(360,540,ls),
(332,540,o),
(310,518,o),
(310,490,cs),
(310,360,l)
);
},
{
closed = 1;
nodes = (
(-360,180,ls),
(-332,180,o),
(-310,202,o),
(-310,230,cs),
(-310,360,l),
(-390,360,l),
(-390,180,l)
);
}
);
};
layerId = "76DA76B7-AE51-4169-AB0E-317D7E08960F";
shapes = (
{
closed = 1;
nodes = (
(390,360,l),
(390,540,l),
(360,540,ls),
(332,540,o),
(310,518,o),
(310,490,cs),
(310,360,l)
);
},
{
closed = 1;
nodes = (
(-360,180,ls),
(-332,180,o),
(-310,202,o),
(-310,230,cs),
(-310,360,l),
(-390,360,l),
(-390,180,l)
);
}
);
width = 0;
}
);
},
